<svg xmlns="http://www.w3.org/2000/svg" fill="none" viewBox="0 0 500 500" height="500" width="500">
<path fill="#E3DACC" d="M199.582 193.643C228.853 193.643 252.582 169.915 252.582 140.643C252.582 111.372 228.853 87.6434 199.582 87.6434C170.311 87.6434 146.582 111.372 146.582 140.643C146.582 169.915 170.311 193.643 199.582 193.643Z"></path>
<path fill="#141413" d="M209.203 91.0332C205.833 91.0432 204.143 91.2933 202.473 91.5433C201.643 91.6733 200.803 91.8132 199.763 91.9832C198.733 92.2032 197.473 92.3433 195.833 92.6833C194.193 93.0133 192.963 93.2733 191.973 93.5933C190.973 93.9033 190.173 94.1332 189.393 94.4232C187.853 95.0532 186.283 95.5732 183.263 96.8432C182.493 97.1232 181.853 97.4433 181.283 97.7333C180.713 98.0133 180.203 98.2633 179.743 98.4833C178.813 98.9033 178.113 99.3232 177.423 99.7432C176.723 100.153 176.023 100.563 175.143 101.083C174.313 101.663 173.323 102.373 172.003 103.303C170.693 104.273 169.753 105.103 168.913 105.693C168.053 106.283 167.433 106.813 166.783 107.323C166.133 107.833 165.473 108.343 164.693 109.023C163.973 109.753 163.123 110.653 162.023 111.883C161.033 113.193 160.363 114.223 159.843 115.113C159.393 116.043 159.093 116.813 158.793 117.573C158.653 117.963 158.483 118.323 158.343 118.743C158.213 119.153 158.063 119.593 157.873 120.053C157.693 120.523 157.473 121.023 157.213 121.593C156.953 122.153 156.723 122.813 156.393 123.533C155.713 124.963 155.293 126.083 154.863 126.983C154.643 127.433 154.433 127.843 154.243 128.223C154.063 128.613 153.893 128.983 153.733 129.353C153.033 130.823 152.343 132.343 151.873 135.583C151.773 136.393 151.683 137.103 151.633 137.743C151.613 138.383 151.613 138.953 151.633 139.463C151.653 139.973 151.663 140.433 151.683 140.873C151.743 141.303 151.793 141.713 151.843 142.123C152.053 143.753 152.263 145.363 152.613 148.593C152.983 151.783 153.173 153.393 153.353 154.993C153.403 155.383 153.443 155.783 153.503 156.203C153.603 156.613 153.703 157.053 153.813 157.543C153.933 158.033 154.073 158.563 154.243 159.163C154.453 159.753 154.723 160.413 155.023 161.153C155.173 161.523 155.313 161.873 155.443 162.203C155.583 162.533 155.743 162.823 155.883 163.113C156.153 163.683 156.393 164.193 156.603 164.643C156.993 165.583 157.433 166.263 157.803 166.993C158.543 168.443 159.373 169.863 161.393 172.423C163.433 174.973 164.943 175.793 166.263 176.713C166.973 177.133 167.703 177.503 168.533 178.053C168.953 178.323 169.383 178.653 169.903 178.993C170.433 179.313 171.013 179.693 171.663 180.143C172.323 180.583 172.853 181.023 173.393 181.323C173.923 181.643 174.393 181.913 174.813 182.173C175.663 182.673 176.303 183.163 177.013 183.523C177.723 183.883 178.443 184.243 179.333 184.693C179.793 184.893 180.263 185.183 180.863 185.383C181.453 185.583 182.123 185.813 182.883 186.073C189.053 187.893 189.013 188.323 195.573 189.063C197.233 189.133 198.483 189.203 199.523 189.283C200.043 189.333 200.513 189.353 200.963 189.343C201.413 189.343 201.833 189.343 202.253 189.343C203.933 189.343 205.653 189.473 208.973 189.013C209.803 188.913 210.533 188.823 211.183 188.723C211.823 188.593 212.373 188.423 212.873 188.283C213.873 187.993 214.663 187.733 215.443 187.463C216.243 187.233 216.973 186.843 217.923 186.483C218.393 186.303 218.923 186.103 219.523 185.903C220.123 185.703 220.803 185.503 221.523 185.163C222.993 184.543 224.113 184.103 225.013 183.673C225.873 183.183 226.553 182.783 227.243 182.393C228.653 181.663 229.893 180.693 232.443 178.883C233.623 177.863 234.543 177.133 235.323 176.543C236.033 175.873 236.613 175.343 237.213 174.823C238.453 173.833 239.503 172.623 241.393 170.053C242.223 168.673 242.833 167.643 243.353 166.783C243.833 165.903 244.123 165.133 244.473 164.413C244.793 163.673 245.183 162.963 245.543 162.013C245.893 161.053 246.303 159.903 246.863 158.373C247.373 156.813 247.663 155.603 248.013 154.633C248.183 154.143 248.333 153.703 248.473 153.283C248.613 152.863 248.703 152.453 248.813 152.053C249.033 151.243 249.253 150.433 249.503 149.413C249.613 148.903 249.783 148.343 249.863 147.693C249.943 147.033 250.023 146.303 250.123 145.463C250.563 142.083 250.143 140.413 249.913 138.753C249.723 137.083 249.183 135.503 249.023 132.293C248.763 130.723 248.573 129.553 248.413 128.573C248.373 128.333 248.333 128.093 248.303 127.873C248.243 127.653 248.193 127.453 248.133 127.253C248.023 126.853 247.923 126.473 247.813 126.093C247.603 125.333 247.403 124.583 247.143 123.643C246.793 122.733 246.383 121.643 245.823 120.193C245.163 118.783 244.643 117.743 244.283 116.833C243.903 115.933 243.493 115.263 243.163 114.543C242.513 113.103 241.693 111.713 239.643 109.263C238.523 108.103 237.773 107.163 237.013 106.473C236.273 105.773 235.683 105.203 235.093 104.643C234.533 104.053 233.853 103.563 233.063 102.903C232.663 102.583 232.223 102.223 231.713 101.813C231.213 101.403 230.583 101.013 229.903 100.533C229.213 100.053 228.613 99.6333 228.083 99.2633C227.523 98.9133 227.033 98.6033 226.583 98.3232C225.693 97.7633 225.003 97.2633 224.273 96.8232C222.793 95.9633 221.373 95.0232 218.243 93.5532C213.403 91.3232 213.973 89.4232 215.193 86.5332C216.393 83.6832 217.733 80.9032 223.083 83.3732C226.523 84.9932 228.143 86.0733 229.773 87.0633C230.583 87.5733 231.373 88.1433 232.393 88.7933C232.903 89.1133 233.463 89.4733 234.093 89.8833C234.713 90.3133 235.413 90.8032 236.213 91.3532C237.013 91.9132 237.723 92.3733 238.313 92.8633C238.903 93.3533 239.413 93.7933 239.873 94.2033C240.783 95.0333 241.523 95.6632 242.173 96.4333C242.843 97.1733 243.503 97.9032 244.353 98.7832C245.223 99.6532 246.143 100.823 247.503 102.253C250.063 105.283 251.373 106.803 252.553 108.443C253.143 109.263 253.813 110.033 254.443 111.123C255.063 112.223 255.813 113.553 256.673 115.393C257.413 117.283 257.973 118.693 258.433 119.873C258.833 121.073 259.103 122.043 259.413 123.003C259.563 123.483 259.713 123.973 259.863 124.483C259.943 124.743 260.023 125.003 260.103 125.283C260.163 125.563 260.213 125.853 260.273 126.163C260.503 127.393 260.773 128.883 261.073 130.863C261.323 134.823 261.523 136.823 261.373 138.783C261.263 140.733 261.343 142.733 260.853 146.563C260.653 148.483 260.493 149.923 260.213 151.123C259.973 152.313 259.773 153.273 259.573 154.223C259.473 154.703 259.373 155.173 259.263 155.683C259.123 156.183 258.963 156.713 258.803 157.303C258.453 158.483 258.113 159.913 257.513 161.783C256.833 163.643 256.283 165.023 255.793 166.153C255.293 167.283 254.723 168.123 254.233 168.993C253.733 169.853 253.233 170.703 252.603 171.773C251.903 172.813 251.103 174.063 250.063 175.753C247.733 178.983 246.613 180.653 245.263 182.143C244.613 182.913 243.963 183.683 243.113 184.623C242.183 185.473 241.053 186.483 239.513 187.793C239.133 188.133 238.753 188.403 238.383 188.663C238.023 188.923 237.683 189.163 237.363 189.393C236.723 189.863 236.173 190.273 235.673 190.663C234.693 191.483 233.843 192.013 233.003 192.593C232.163 193.163 231.323 193.743 230.233 194.413C229.123 195.033 227.733 195.623 225.863 196.403C225.393 196.593 224.953 196.783 224.533 196.913C224.103 197.033 223.703 197.143 223.323 197.243C222.563 197.443 221.893 197.593 221.273 197.723C220.043 197.953 219.063 198.173 218.053 198.183C217.053 198.233 216.063 198.293 214.843 198.423C214.233 198.493 213.563 198.583 212.813 198.693C212.053 198.753 211.213 198.833 210.253 198.943C206.413 199.473 204.523 199.733 202.593 200.123C201.633 200.283 200.673 200.553 199.443 200.603C198.213 200.663 196.733 200.683 194.773 200.593C186.893 199.723 187.053 198.603 179.533 196.403C178.593 196.093 177.773 195.833 177.043 195.593C176.303 195.383 175.693 195.063 175.103 194.853C173.953 194.393 173.013 194.053 172.073 193.703C171.123 193.373 170.253 192.873 169.133 192.323C168.023 191.753 166.673 191.083 165.043 189.893C164.213 189.333 163.483 188.833 162.833 188.393C162.183 187.943 161.663 187.493 161.153 187.123C160.133 186.373 159.323 185.773 158.503 185.183C156.993 183.853 155.303 182.663 152.753 179.503C152.433 179.113 152.123 178.753 151.853 178.393C151.603 178.023 151.373 177.673 151.153 177.343C150.723 176.683 150.363 176.083 150.043 175.543C149.383 174.463 149.043 173.493 148.663 172.553C147.893 170.683 147.193 168.813 145.613 165.183C145.233 164.273 144.893 163.463 144.593 162.753C144.323 162.023 144.093 161.373 143.873 160.793C143.643 160.213 143.443 159.683 143.253 159.183C143.073 158.683 142.923 158.193 142.763 157.713C142.123 155.763 141.513 153.873 141.063 149.963C140.633 146.043 140.523 144.063 140.413 142.083C140.383 141.583 140.363 141.093 140.333 140.563C140.343 140.033 140.353 139.473 140.363 138.853C140.393 138.233 140.413 137.543 140.453 136.763C140.513 135.983 140.643 135.113 140.763 134.123C141.343 130.153 142.013 128.233 142.703 126.353C143.033 125.403 143.373 124.463 143.873 123.323C144.353 122.173 144.833 120.753 145.683 118.953C146.093 118.043 146.423 117.233 146.793 116.553C147.173 115.873 147.513 115.283 147.823 114.743C148.443 113.663 148.963 112.823 149.573 112.033C150.153 111.233 150.733 110.423 151.453 109.423C152.223 108.463 153.133 107.303 154.323 105.733C155.613 104.253 156.523 103.103 157.253 102.103C158.023 101.143 158.623 100.363 159.213 99.5533C160.373 97.9133 161.663 96.4033 164.773 93.9333C166.413 92.7633 167.643 91.9032 168.683 91.2132C169.773 90.6032 170.653 90.1133 171.523 89.6333C172.393 89.1533 173.263 88.6533 174.403 88.1533C174.963 87.8933 175.583 87.5932 176.283 87.2632C176.983 86.9332 177.763 86.5432 178.683 86.1932C182.343 84.6632 184.263 84.2232 186.153 83.6732C187.103 83.4232 188.063 83.2433 189.253 82.9533C190.443 82.6433 191.873 82.3833 193.783 82.0033C197.613 81.3033 199.553 81.2333 201.493 81.1533C203.433 81.0933 205.353 81.0432 209.223 81.0332C212.213 81.0332 213.823 81.7133 214.603 82.6833C215.383 83.6633 215.363 84.9833 215.143 86.5233C214.923 88.0733 214.733 89.2533 213.933 90.0033C213.143 90.7633 211.773 91.0532 209.173 91.0532L209.203 91.0332Z"></path>
<path fill="#141413" d="M124.143 68.5933C122.913 69.6932 122.003 70.8932 121.123 71.8633C120.693 72.3633 120.283 72.8333 119.903 73.2733C119.553 73.7533 119.223 74.2033 118.903 74.6232C117.643 76.3433 116.623 77.7032 115.753 79.1932C114.873 80.6632 113.883 82.0633 112.893 83.9733C112.363 84.9132 111.793 85.9433 111.133 87.1133C110.493 88.2933 109.863 89.6733 109.073 91.2033C108.693 91.9832 108.303 92.6833 108.003 93.3932C107.703 94.0933 107.433 94.7533 107.163 95.3833C106.643 96.6333 106.193 97.7333 105.783 98.7233C105.053 100.763 104.533 102.413 103.993 104.053C103.403 105.683 103.063 107.383 102.453 109.463C102.183 110.513 101.783 111.633 101.513 112.963C101.213 114.283 100.873 115.753 100.483 117.443C100.043 119.123 99.8528 120.623 99.6128 121.953C99.3828 123.283 99.1828 124.463 99.0028 125.523C98.6728 127.663 98.5628 129.393 98.3528 131.113C98.2628 131.973 98.1628 132.833 98.0628 133.743C98.0228 134.663 97.9728 135.633 97.9328 136.713C97.8528 138.873 97.6328 141.463 97.7828 144.933C97.8028 146.663 97.8228 148.183 97.8428 149.533C97.9228 150.883 98.0028 152.073 98.0628 153.153C98.2028 155.313 98.1528 157.073 98.3828 158.793C98.5528 160.523 98.7128 162.253 98.9628 164.413C99.2928 166.563 99.8028 169.123 100.543 172.513C101.003 174.183 101.433 175.653 101.823 176.943C102.023 177.593 102.213 178.203 102.393 178.773C102.583 179.343 102.813 179.873 103.013 180.373C103.833 182.383 104.523 183.973 105.263 185.543C106.063 187.083 106.873 188.613 107.793 190.553C108.243 191.533 108.853 192.543 109.443 193.743C109.743 194.343 110.063 194.973 110.403 195.653C110.573 195.993 110.743 196.343 110.913 196.703C111.103 197.053 111.313 197.413 111.513 197.793C112.343 199.293 113.043 200.603 113.663 201.793C114.333 202.953 114.913 203.963 115.453 204.893C115.993 205.813 116.413 206.693 116.893 207.463C117.363 208.243 117.803 208.973 118.243 209.713C118.683 210.443 119.113 211.193 119.613 211.963C120.143 212.703 120.693 213.493 121.313 214.363C121.943 215.233 122.623 216.193 123.523 217.183C123.963 217.683 124.423 218.223 124.923 218.793C125.423 219.363 125.943 219.973 126.563 220.553C127.783 221.723 128.803 222.823 129.823 223.653C130.833 224.493 131.733 225.223 132.543 225.893C134.253 227.053 135.603 228.073 137.033 228.803C137.763 229.203 138.403 229.593 139.223 230.023C140.063 230.463 140.943 230.933 141.923 231.463C143.853 232.503 146.183 233.743 149.273 235.403C152.363 237.013 154.683 238.193 156.623 239.133C158.553 240.133 160.123 240.823 161.683 241.573C164.823 243.013 168.003 244.433 174.663 246.223C176.333 246.633 177.803 246.983 179.113 247.303C180.433 247.553 181.593 247.773 182.653 247.973C184.753 248.433 186.473 248.623 188.173 248.873C189.023 248.993 189.883 249.113 190.783 249.243C191.693 249.343 192.663 249.383 193.733 249.463C194.813 249.533 195.993 249.603 197.333 249.683C198.683 249.693 200.193 249.653 201.913 249.633C208.823 249.393 212.233 248.563 215.573 247.693C216.413 247.483 217.243 247.273 218.133 247.053C219.023 246.853 219.943 246.513 220.983 246.233C222.023 245.933 223.163 245.623 224.463 245.293C225.113 245.123 225.803 244.973 226.543 244.763C227.283 244.543 228.073 244.313 228.913 244.063C230.593 243.583 232.063 243.173 233.383 242.793C234.693 242.403 235.813 242.003 236.853 241.683C238.913 240.993 240.613 240.553 242.223 239.923C243.843 239.323 245.483 238.743 247.503 237.953C248.483 237.513 249.563 237.033 250.793 236.483C251.403 236.203 252.053 235.913 252.753 235.593C253.443 235.283 254.133 234.873 254.903 234.483C256.403 233.663 257.763 233.003 258.913 232.333C260.063 231.653 261.073 231.063 261.983 230.513C262.443 230.243 262.883 229.993 263.303 229.753C263.703 229.483 264.093 229.233 264.473 228.983C265.233 228.493 265.943 228.033 266.653 227.563C269.453 225.653 272.293 223.723 277.073 218.913C277.663 218.303 278.223 217.743 278.743 217.203C279.233 216.643 279.693 216.113 280.133 215.613C281.003 214.613 281.793 213.763 282.433 212.903C283.093 212.073 283.693 211.323 284.253 210.613C284.813 209.903 285.293 209.193 285.803 208.503C287.813 205.733 289.733 202.873 292.953 196.673C293.383 195.893 293.683 195.183 293.963 194.523C294.253 193.853 294.523 193.233 294.773 192.643C295.043 192.063 295.223 191.473 295.413 190.913C295.593 190.353 295.763 189.833 295.923 189.323C296.613 187.343 296.903 185.613 297.303 183.963C297.993 180.603 298.653 177.213 299.763 170.333C300.833 163.443 300.993 159.923 301.233 156.433C301.413 152.943 301.593 149.433 301.543 142.453C301.453 135.473 301.153 132.053 300.953 128.613C300.563 125.263 300.463 121.683 298.413 115.573C296.013 108.583 294.903 105.293 293.643 101.963C292.383 98.6732 291.173 95.3633 288.223 89.1133C285.193 82.9233 283.443 80.0033 281.683 77.0732C279.873 74.2033 278.033 71.2733 273.353 66.3833C270.963 63.9933 269.013 62.3633 267.283 61.1533C266.423 60.5433 265.653 60.0033 264.873 59.5533C264.103 59.1033 263.403 58.6433 262.653 58.2533C261.913 57.8533 261.173 57.4633 260.383 57.0433C259.593 56.6433 258.743 56.2233 257.813 55.7533C256.893 55.2733 255.833 54.8133 254.673 54.2233C253.493 53.6733 252.163 53.0633 250.633 52.3933C244.493 49.7733 241.053 49.0733 237.773 48.0433C236.953 47.7733 236.113 47.6033 235.223 47.4033C234.333 47.2033 233.383 46.9933 232.343 46.7533C231.293 46.5333 230.153 46.2133 228.823 45.9933C227.493 45.7833 226.003 45.5433 224.303 45.2733C223.453 45.1333 222.653 45.0033 221.903 44.8833C221.143 44.8033 220.433 44.7233 219.763 44.6533C218.423 44.4933 217.243 44.3533 216.173 44.2233C215.633 44.1533 215.133 44.0833 214.643 44.0133C214.153 43.9733 213.683 43.9333 213.223 43.8933C212.303 43.8133 211.443 43.7333 210.583 43.6633C208.853 43.5133 207.123 43.3033 204.953 43.3233C202.783 43.3233 200.163 43.1933 196.693 43.5233C194.953 43.6533 193.433 43.7433 192.073 43.8633C190.723 44.0233 189.523 44.1633 188.443 44.2933C187.363 44.4133 186.383 44.5333 185.463 44.6333C184.543 44.7433 183.683 44.9133 182.823 45.0433C181.103 45.3433 179.363 45.5733 177.223 46.0033C176.153 46.2433 174.983 46.5033 173.643 46.7933C172.313 47.0933 170.803 47.3933 169.123 47.8933C167.433 48.3533 165.953 48.7533 164.633 49.1133C163.313 49.4733 162.173 49.8733 161.123 50.1833C159.033 50.8433 157.333 51.3033 155.693 51.9133C154.043 52.5033 152.373 53.0533 150.323 53.8333C149.313 54.2533 148.193 54.7133 146.923 55.2433C145.653 55.7733 144.233 56.3533 142.663 57.1333C137.743 59.4133 135.103 60.3933 133.373 60.2633C131.653 60.1633 130.933 59.0933 130.173 57.7333C129.413 56.3733 128.733 55.0033 129.533 53.2733C130.343 51.5733 132.603 49.3733 137.883 46.9233C139.573 46.0833 141.093 45.4633 142.453 44.8933C143.813 44.3333 145.003 43.8433 146.093 43.3933C148.293 42.5633 150.083 41.9833 151.853 41.3633C153.613 40.7233 155.433 40.2433 157.673 39.5433C158.803 39.2133 160.013 38.7933 161.433 38.4033C162.843 38.0233 164.433 37.5933 166.243 37.0933C168.043 36.5633 169.653 36.2433 171.093 35.9433C172.533 35.6533 173.793 35.4033 174.943 35.1633C177.253 34.7533 179.123 34.5833 180.983 34.3333C181.913 34.2233 182.843 34.0933 183.833 33.9933C184.823 33.9133 185.873 33.8233 187.043 33.7233C188.203 33.6033 189.483 33.4733 190.943 33.3333C192.403 33.2333 194.033 33.1233 195.903 32.9933C199.633 32.6533 202.453 32.6833 204.793 32.5533C207.133 32.4133 209.013 32.4433 210.903 32.4333C214.663 32.3933 218.463 32.4333 225.943 33.4833C227.813 33.7733 229.443 34.0333 230.903 34.2633C232.363 34.4833 233.623 34.8233 234.783 35.0533C237.093 35.5733 238.973 35.8633 240.793 36.3633C244.433 37.4233 248.163 38.0933 255.353 41.1333C257.133 41.9033 258.673 42.6433 260.033 43.3133C261.373 44.0333 262.573 44.6333 263.623 45.2533C264.673 45.8833 265.613 46.4433 266.503 46.9733C267.373 47.5433 268.183 48.0933 268.993 48.6333C269.813 49.1533 270.583 49.7733 271.423 50.3733C272.273 50.9733 273.133 51.6533 274.083 52.4333C276.003 53.9433 278.203 55.9033 280.963 58.6533C283.713 61.4333 285.543 63.7133 287.053 65.6133C287.793 66.5732 288.433 67.4632 289.043 68.2832C289.643 69.1232 290.173 69.9233 290.713 70.7233C292.803 73.9633 294.903 77.2233 298.243 84.0532C301.493 90.9132 302.583 94.5133 303.723 98.0433C304.843 101.563 305.853 105.183 308.173 111.923C308.323 112.313 308.463 112.793 308.603 113.243C308.743 113.693 308.873 114.133 309.003 114.553C309.253 115.393 309.523 116.193 309.713 116.943C310.053 118.423 310.363 119.733 310.633 120.913C311.103 123.273 311.433 125.153 311.753 127.043C312.243 130.793 312.833 134.573 312.943 142.053C313.013 149.533 312.973 153.263 312.963 157.013C312.873 160.753 312.873 164.523 311.723 171.973C311.463 173.833 311.143 175.463 310.823 176.903C310.503 178.353 310.253 179.623 309.913 180.763C309.233 183.053 308.723 184.873 308.023 186.673C307.683 187.573 307.343 188.473 306.993 189.433C306.813 189.913 306.633 190.403 306.443 190.913C306.233 191.423 306.003 191.963 305.773 192.523C305.293 193.643 304.863 194.883 304.223 196.293C303.893 196.993 303.553 197.743 303.183 198.533C302.813 199.323 302.443 200.203 302.003 201.003C298.563 207.663 296.763 211.063 294.843 214.393C294.353 215.223 293.893 216.073 293.343 216.943C292.773 217.803 292.163 218.703 291.473 219.703C290.803 220.713 289.953 221.753 288.983 222.923C288.493 223.503 287.973 224.123 287.423 224.783C286.843 225.423 286.203 226.073 285.523 226.773C280.043 232.333 276.673 234.413 273.423 236.463C272.593 236.953 271.763 237.443 270.883 237.973C270.443 238.233 269.993 238.513 269.533 238.793C269.063 239.073 268.553 239.323 268.033 239.623C266.983 240.203 265.843 240.843 264.553 241.593C263.273 242.343 261.773 243.053 260.103 243.963C259.263 244.403 258.483 244.843 257.743 245.213C256.993 245.563 256.283 245.903 255.613 246.213C254.283 246.853 253.113 247.413 252.043 247.923C249.883 248.863 248.163 249.613 246.433 250.373C244.713 251.173 242.953 251.773 240.753 252.593C239.653 252.983 238.443 253.443 237.053 253.893C235.653 254.303 234.083 254.763 232.293 255.283C228.743 256.383 225.903 256.923 223.623 257.543C222.473 257.823 221.443 258.133 220.453 258.333C219.463 258.533 218.523 258.713 217.593 258.903C213.863 259.683 210.083 260.413 202.413 260.693C200.493 260.723 198.813 260.733 197.323 260.713C195.823 260.603 194.513 260.493 193.323 260.373C192.133 260.253 191.063 260.133 190.053 259.993C189.053 259.793 188.113 259.613 187.173 259.423C185.293 259.033 183.413 258.723 181.103 258.133C179.943 257.863 178.673 257.583 177.213 257.283C175.773 256.923 174.163 256.523 172.323 256.073C165.003 254.143 161.413 252.913 157.833 251.693C156.063 251.033 154.253 250.453 152.103 249.493C151.023 249.023 149.823 248.533 148.493 247.893C147.173 247.243 145.693 246.533 144.023 245.663C140.713 243.903 138.283 242.543 136.253 241.423C135.253 240.863 134.343 240.353 133.493 239.873C132.643 239.413 131.743 238.813 130.893 238.313C127.493 236.173 124.173 233.913 118.703 228.403C118.003 227.733 117.383 227.063 116.823 226.423C116.263 225.783 115.733 225.183 115.233 224.623C114.213 223.503 113.413 222.453 112.693 221.493C111.973 220.533 111.323 219.673 110.713 218.853C110.123 218.023 109.623 217.203 109.093 216.413C108.043 214.813 106.983 213.223 105.803 211.153C105.193 210.133 104.513 209.013 103.753 207.733C103.043 206.433 102.243 204.973 101.333 203.303C100.373 201.663 99.7528 200.113 99.0928 198.783C98.4828 197.433 97.8928 196.263 97.4628 195.163C96.6028 192.953 95.9528 191.173 95.2928 189.403C94.1528 185.793 92.9428 182.213 91.0428 174.913C90.2128 171.243 89.5628 168.493 89.0028 166.203C88.5428 163.893 88.1028 162.053 87.6728 160.203C87.1828 158.363 86.9528 156.483 86.6128 154.133C86.4528 152.963 86.2928 151.663 86.1428 150.193C86.0528 148.713 86.0128 147.053 85.9728 145.153C85.8228 141.353 86.0528 138.503 86.1728 136.133C86.2428 134.943 86.3028 133.883 86.3628 132.873C86.4828 131.873 86.6028 130.923 86.7128 129.983C86.9628 128.103 87.1428 126.203 87.5028 123.863C87.7128 122.693 87.9428 121.413 88.2028 119.953C88.4828 118.493 88.6928 116.843 89.1628 115.003C89.6028 113.153 89.9828 111.533 90.3228 110.093C90.6328 108.643 91.1028 107.413 91.4228 106.273C91.7828 105.143 92.1028 104.123 92.4028 103.153C92.5528 102.673 92.7028 102.203 92.8528 101.743C93.0228 101.293 93.1928 100.843 93.3628 100.403C94.0428 98.6333 94.7228 96.8532 95.5828 94.6333C96.0628 93.5433 96.5828 92.3433 97.1828 90.9832C97.4828 90.3032 97.7928 89.5833 98.1328 88.8133C98.4628 88.0433 98.8928 87.2533 99.3128 86.4033C100.173 84.7033 100.893 83.1932 101.623 81.8932C102.383 80.6032 103.053 79.4732 103.673 78.4432C104.853 76.3732 106.043 74.8333 107.133 73.2533C108.193 71.6632 109.443 70.1733 110.943 68.2733C111.313 67.8032 111.713 67.3032 112.123 66.7733C112.573 66.2733 113.053 65.7332 113.563 65.1732C114.603 64.0532 115.653 62.7233 117.123 61.3833C118.233 60.3333 119.183 59.3833 120.143 58.6533C121.123 57.9333 122.003 57.3533 122.783 56.8733C123.173 56.6333 123.543 56.4333 123.883 56.2533C124.243 56.0833 124.603 55.9633 124.933 55.8533C125.593 55.6333 126.153 55.5133 126.643 55.4633C128.603 55.2833 129.373 56.3333 130.143 57.6833C130.913 59.0433 131.323 60.2033 130.553 61.6733C130.363 62.0433 130.093 62.4233 129.743 62.8333C129.563 63.0433 129.363 63.2433 129.143 63.4733C128.933 63.7233 128.703 63.9933 128.443 64.2633C127.933 64.8133 127.313 65.4132 126.583 66.0633C125.863 66.7332 125.093 67.5933 124.153 68.4733L124.143 68.5933Z"></path>
<path fill="#141413" d="M107.123 292.613C109.163 296.803 109.573 300.593 109.393 303.523C109.393 303.703 109.393 303.903 109.373 304.063C109.353 304.213 109.333 304.363 109.323 304.513C109.283 304.803 109.253 305.093 109.213 305.373C109.133 305.933 109.063 306.473 108.993 307.003C108.883 308.043 108.633 309.043 108.403 310.033C108.173 311.023 107.983 312.003 107.603 313.053C107.433 313.573 107.263 314.113 107.083 314.673C106.923 315.233 106.693 315.813 106.423 316.423C106.163 317.033 105.893 317.673 105.613 318.343C105.323 319.013 104.893 319.703 104.503 320.443C104.303 320.813 104.093 321.193 103.873 321.583C103.613 321.953 103.343 322.343 103.073 322.743C102.523 323.533 101.953 324.383 101.183 325.193C100.813 325.603 100.453 326.003 100.113 326.393C99.7628 326.773 99.3628 327.083 99.0028 327.413C98.2628 328.053 97.5928 328.683 96.8628 329.133C96.1528 329.603 95.4928 330.093 94.8428 330.463C94.1728 330.813 93.5528 331.143 92.9528 331.463C91.7428 332.053 90.6228 332.443 89.5728 332.843C88.5128 333.143 87.5128 333.473 86.5128 333.693C84.5128 334.133 82.5228 334.473 80.0628 334.653C79.4528 334.693 78.8028 334.743 78.1228 334.793C77.4528 334.803 76.7428 334.823 75.9828 334.843C75.5928 334.843 75.2428 334.873 74.7928 334.843C74.3428 334.813 73.8828 334.793 73.4028 334.763C72.9228 334.733 72.4328 334.693 71.9328 334.663C71.4228 334.623 70.9128 334.493 70.3728 334.403C66.1028 333.603 63.0528 332.213 60.7528 330.743C58.4028 329.333 56.7328 327.863 55.1828 326.303C54.7728 325.933 54.4228 325.503 54.0728 325.063C53.7228 324.623 53.3628 324.173 53.0028 323.713C52.6128 323.263 52.3228 322.743 51.9828 322.203C51.6628 321.663 51.3228 321.093 50.9728 320.503C49.7928 318.033 48.4628 314.903 48.0628 310.553C47.9328 308.403 47.8428 306.503 48.0428 304.853C48.1228 304.023 48.1628 303.243 48.2628 302.513C48.4028 301.793 48.5228 301.123 48.6528 300.473C48.7828 299.833 48.8828 299.213 49.0228 298.633C49.1928 298.063 49.3528 297.523 49.5028 296.993C49.8428 295.933 50.0628 294.943 50.4928 293.953C50.6928 293.453 50.8928 292.963 51.0928 292.453C51.3028 291.953 51.5728 291.453 51.8328 290.933C52.3228 289.883 53.0028 288.823 53.7628 287.643C55.3428 285.343 57.7428 282.623 61.7728 280.253C63.7828 279.133 65.6528 278.393 67.3428 277.943C68.1828 277.693 68.9728 277.563 69.7328 277.393C70.4828 277.283 71.1928 277.173 71.8628 277.113C74.5428 276.873 76.6328 277.013 78.6528 277.273C80.6728 277.543 82.6228 277.923 84.9828 278.493C86.1628 278.793 87.4428 279.133 88.8728 279.573C89.0528 279.633 89.2328 279.683 89.4128 279.743C89.5428 279.783 89.4728 279.763 89.5128 279.783L89.5628 279.803C89.6328 279.833 89.7028 279.863 89.7728 279.893C89.9228 279.953 90.0828 280.013 90.2528 280.083C90.2728 280.103 90.2828 280.083 90.3028 280.063C91.5028 278.293 92.3928 276.973 93.1428 275.863C94.3728 274.003 95.3528 272.523 96.3328 271.043C98.2828 268.063 100.233 265.093 104.283 259.243C109.656 251.417 115.033 243.59 120.413 235.763C128.533 224.053 128.933 224.333 137.063 212.623C145.183 200.913 144.773 200.623 152.893 188.913C158.893 180.263 161.553 180.393 163.953 182.053C166.343 183.713 167.073 185.933 161.073 194.583C152.963 206.273 153.783 206.843 145.673 218.533C137.563 230.223 136.633 229.583 128.523 241.283C120.413 252.973 120.243 252.863 112.133 264.553C108.073 270.403 106.303 273.493 104.523 276.593C103.633 278.143 102.743 279.693 101.573 281.583C100.983 282.533 100.323 283.563 99.5628 284.723C98.8928 285.713 98.1828 286.763 97.4228 287.873C96.5428 289.143 95.6128 290.493 94.6228 291.933C94.4328 292.203 94.2428 292.473 94.1628 292.583C92.5428 291.923 91.0128 291.303 89.5728 290.713C88.8528 290.413 88.1628 290.203 87.4928 289.953C87.0128 289.803 86.5528 289.653 86.1028 289.513C84.9628 289.163 83.9428 288.893 83.0128 288.663C81.1528 288.213 79.6528 287.923 78.1528 287.713C76.6528 287.513 75.1528 287.423 73.3428 287.563C71.5428 287.713 69.4428 288.153 67.1128 289.413C64.8128 290.773 63.4228 292.253 62.4128 293.673C62.1528 294.013 61.9428 294.393 61.7228 294.723C61.4928 295.053 61.3028 295.393 61.1328 295.743C60.9528 296.083 60.7828 296.413 60.6028 296.743C60.4528 297.093 60.3128 297.433 60.1628 297.773C59.8428 298.433 59.6428 299.193 59.3828 299.963C59.2528 300.353 59.1228 300.753 58.9828 301.163C58.8528 301.583 58.7928 302.023 58.6928 302.483C58.5928 302.943 58.4928 303.433 58.3828 303.943C58.2828 304.453 58.2828 305.003 58.2128 305.583C58.0428 306.743 58.1328 308.023 58.1828 309.483C58.9328 315.253 60.7728 317.643 62.5228 319.733C63.4728 320.743 64.4728 321.713 65.9328 322.633C66.3028 322.853 66.6728 323.113 67.0928 323.353C67.5228 323.553 67.9828 323.763 68.4728 323.993C68.5928 324.053 68.7128 324.113 68.8428 324.173C68.9728 324.213 69.1128 324.253 69.2428 324.293C69.5128 324.383 69.7928 324.473 70.0828 324.563C70.3728 324.643 70.6628 324.783 70.9828 324.833C71.3028 324.893 71.6328 324.953 71.9728 325.013C72.3128 325.073 72.6428 325.163 72.9628 325.193C73.2928 325.213 73.6028 325.223 73.9128 325.233C74.5228 325.263 75.0828 325.323 75.7528 325.263C76.3828 325.233 76.9828 325.203 77.5428 325.173C78.0928 325.113 78.6128 325.053 79.1028 324.993C81.0728 324.743 82.5628 324.353 84.0028 323.913C84.7228 323.693 85.3828 323.393 86.1128 323.133C86.7928 322.813 87.5228 322.483 88.2828 322.083C89.7828 321.253 91.4228 320.143 93.1428 318.223C93.3528 317.973 93.5928 317.773 93.7628 317.513C93.9328 317.253 94.1028 317.003 94.2728 316.763C94.4428 316.523 94.6028 316.293 94.7628 316.073C94.8928 315.823 95.0128 315.583 95.1428 315.343C95.3728 314.863 95.6428 314.453 95.8228 313.993C95.9928 313.533 96.1628 313.103 96.3128 312.683C96.6728 311.893 96.7928 311.033 97.0128 310.293C97.2428 309.563 97.3328 308.793 97.4528 308.043C97.5728 307.293 97.7228 306.563 97.7528 305.713C97.7828 305.303 97.8128 304.873 97.8528 304.433C97.8728 304.213 97.8928 303.983 97.9128 303.753C97.9328 303.513 97.9528 303.273 97.9428 303.123C97.9628 301.663 97.7628 299.963 96.7028 297.733C95.8828 296.103 95.1128 294.853 94.6228 293.833C94.1228 292.813 93.9028 292.003 93.9128 291.283C93.9328 289.873 94.9028 288.793 95.7328 287.583C96.5528 286.393 97.2928 285.093 99.0828 285.163C99.9528 285.203 101.093 285.603 102.503 286.673C103.893 287.753 105.613 289.533 107.153 292.593L107.123 292.613Z"></path>
<path fill="#141413" d="M155.353 427.353C156.373 429.923 156.953 432.173 157.303 434.143C157.693 436.093 157.843 437.933 157.943 439.613C158.073 443.003 157.573 445.993 156.563 448.833C155.533 451.663 153.823 454.433 151.193 456.893C148.573 459.353 145.103 461.523 140.723 463.483C139.623 464.003 138.613 464.413 137.653 464.823C136.683 465.213 135.863 465.553 134.933 465.903C133.893 466.233 132.943 466.603 131.993 466.823C131.043 467.013 130.153 467.243 129.293 467.343C125.833 467.823 123.043 467.493 120.383 466.973C117.713 466.423 115.143 465.503 112.233 463.913C111.483 463.543 110.763 463.063 109.993 462.553C109.203 462.073 108.443 461.463 107.633 460.833C106.793 460.223 106.033 459.433 105.163 458.653C104.753 458.243 104.353 457.793 103.923 457.333C103.713 457.103 103.503 456.873 103.283 456.633C103.083 456.383 102.883 456.123 102.673 455.863C100.973 453.823 99.8428 451.763 98.8728 449.913C98.4528 448.973 98.0428 448.123 97.7128 447.253C97.4128 446.343 97.0528 445.563 96.8528 444.673C95.8928 441.293 95.7928 438.023 96.4128 435.043C97.0328 432.053 98.2828 429.373 100.013 426.653C101.753 423.913 104.023 421.153 106.993 417.723C107.183 417.513 107.283 417.373 107.533 417.113C107.783 416.853 108.023 416.593 108.263 416.343C108.733 415.823 109.283 415.413 109.783 414.983C110.293 414.553 110.843 414.223 111.353 413.863C111.873 413.533 112.403 413.253 112.913 412.973C114.983 411.933 116.903 411.423 118.603 411.103C120.303 410.793 121.823 410.673 123.213 410.653C124.613 410.623 125.883 410.693 127.133 410.803C129.613 411.043 131.943 411.453 134.613 412.143C135.943 412.493 137.353 412.913 138.903 413.443C139.213 413.553 139.533 413.663 139.863 413.783V413.763C141.033 412.343 142.063 411.113 142.973 410.003C144.103 408.663 145.123 407.493 146.053 406.443C147.913 404.333 149.453 402.683 150.983 401.043C154.053 397.743 157.123 394.453 162.803 387.473C174.143 373.533 173.843 373.293 185.193 359.353C186.983 357.143 188.473 355.313 189.683 353.813C189.853 353.593 189.993 353.423 190.053 353.303C189.963 353.213 189.873 353.133 189.793 353.053C189.703 352.963 189.613 352.873 189.523 352.783C188.423 351.573 187.373 350.373 186.283 349.053C185.733 348.383 185.193 347.703 184.593 346.913C183.793 345.783 183.063 344.523 182.603 343.193C182.113 341.863 181.773 340.453 181.603 339.003C181.513 338.273 181.453 337.533 181.433 336.783V336.293C181.433 336.383 181.423 336.293 181.433 336.293V336.183C181.433 336.183 181.433 336.063 181.463 335.943C181.463 335.913 181.473 335.873 181.473 335.863C181.403 335.783 181.233 335.783 181.193 335.753C181.073 335.723 180.963 335.683 180.853 335.653C180.063 335.463 179.313 335.273 178.593 335.103C177.173 334.743 175.893 334.433 174.703 334.133C172.343 333.523 170.353 333.003 168.303 332.473C164.203 331.403 159.873 330.293 151.833 328.423C134.303 324.343 134.183 324.833 116.653 320.753C103.703 317.743 102.483 315.133 103.143 312.293C103.803 309.453 105.963 308.043 118.913 311.063C136.413 315.143 136.643 314.163 154.143 318.243C162.273 320.133 166.573 321.383 170.623 322.593C172.643 323.193 174.613 323.793 176.953 324.453C178.133 324.773 179.403 325.113 180.813 325.503C181.523 325.683 182.273 325.873 183.063 326.083C184.473 326.423 185.973 326.783 187.553 327.163C187.883 327.583 188.243 328.053 188.643 328.563C188.843 328.813 189.043 329.073 189.253 329.343C189.453 329.613 189.723 329.903 189.783 330.133C189.873 330.323 189.963 330.523 190.053 330.723C190.573 331.843 191.383 333.373 191.443 333.483C191.403 333.783 191.363 334.073 191.313 334.363C191.293 334.653 191.273 334.933 191.253 335.213C191.233 335.513 191.213 335.723 191.203 336.093V336.523C191.213 336.983 191.253 337.413 191.293 337.803C191.373 338.603 191.543 339.263 191.743 339.803C191.913 340.373 192.173 340.733 192.383 341.093C192.823 341.693 193.313 342.333 193.773 342.913C194.713 344.093 195.653 345.203 196.643 346.333C198.373 348.303 200.503 350.453 202.773 352.763C200.903 355.053 197.563 359.133 192.583 365.233C181.233 379.183 182.183 379.953 170.843 393.893C165.173 400.863 162.153 404.213 159.143 407.553C157.633 409.223 156.133 410.893 154.293 413.023C153.383 414.093 152.383 415.273 151.243 416.613C149.983 418.153 148.563 419.873 146.943 421.833C144.933 424.283 143.133 426.553 142.923 426.733C141.393 426.013 139.923 425.293 138.563 424.683C137.873 424.373 137.203 424.113 136.553 423.853C136.143 423.703 135.753 423.553 135.363 423.413C134.093 422.953 132.933 422.593 131.853 422.293C129.703 421.693 127.883 421.333 126.063 421.123C124.253 420.913 122.403 420.853 120.433 421.173C119.453 421.333 118.443 421.603 117.493 422.063C117.263 422.183 117.033 422.313 116.793 422.443C116.583 422.603 116.343 422.743 116.123 422.913C115.923 423.103 115.673 423.253 115.483 423.483C115.273 423.723 115.113 423.843 114.733 424.293C111.803 427.663 109.753 430.143 108.393 432.183C107.033 434.223 106.323 435.793 105.973 437.263C105.643 438.743 105.603 440.143 106.113 442.193C106.353 443.213 106.823 444.383 107.423 445.743C108.083 447.003 108.823 448.423 110.003 449.843C110.533 450.593 111.193 451.173 111.733 451.793C112.363 452.323 112.893 452.873 113.483 453.293C114.623 454.173 115.713 454.843 116.733 455.343C118.773 456.363 120.523 456.843 122.253 457.073C123.973 457.293 125.703 457.373 127.733 456.993C128.243 456.923 128.763 456.743 129.323 456.623C129.883 456.503 130.433 456.223 131.043 456.043C131.173 456.003 131.383 455.923 131.583 455.833C131.783 455.753 131.993 455.663 132.203 455.573C132.623 455.403 133.053 455.223 133.493 455.033C134.353 454.663 135.293 454.273 136.213 453.843C140.013 452.143 142.183 450.583 143.573 449.223C144.933 447.853 145.533 446.683 145.963 445.333C146.353 443.973 146.603 442.463 146.453 440.253C146.343 439.143 146.233 437.903 145.903 436.413C145.633 434.933 145.183 433.373 144.553 431.773C143.573 429.453 142.763 428.153 142.233 427.213C141.693 426.293 141.403 425.643 141.283 424.973C141.023 423.693 141.463 422.333 141.633 420.873C141.763 420.153 141.713 419.413 142.133 418.803C142.463 418.193 143.163 417.663 144.363 417.583C145.553 417.513 147.363 417.893 149.463 419.393C151.543 420.873 153.773 423.543 155.333 427.353H155.353Z"></path>
<path fill="#141413" d="M288.293 251.753C291.913 249.073 295.536 246.393 299.163 243.713C301.893 241.723 303.113 240.523 304.343 239.333C304.953 238.733 305.563 238.143 306.363 237.443C306.763 237.093 307.213 236.723 307.723 236.313C308.023 236.083 308.343 235.833 308.683 235.573C309.283 235.133 309.913 234.663 310.593 234.163C311.273 233.663 311.913 233.193 312.533 232.853C313.153 232.523 313.743 232.293 314.273 232.153C315.313 231.863 316.293 231.813 317.223 231.913C319.073 232.133 320.453 232.893 321.443 233.803C321.953 234.243 322.453 234.823 322.943 235.473C323.413 236.163 323.863 236.943 324.383 237.763C324.803 238.423 325.253 239.143 325.773 239.963C326.133 240.523 326.543 241.133 327.033 241.823C329.686 245.47 332.339 249.113 334.993 252.753C338.943 258.243 339.493 257.843 343.443 263.333C347.393 268.823 346.923 269.163 350.873 274.653C354.823 280.143 354.993 280.023 358.943 285.503C362.893 290.993 363.503 290.553 367.453 296.033C371.403 301.523 371.203 301.663 375.153 307.153C379.103 312.643 378.713 312.923 382.663 318.413C386.613 323.903 387.283 323.423 391.233 328.913C395.183 334.403 394.753 334.713 398.703 340.193C402.653 345.683 402.163 346.033 406.113 351.523C410.063 357.013 411.003 356.333 414.953 361.823C418.903 367.313 418.463 367.633 422.413 373.113C426.363 378.603 425.853 378.973 429.803 384.453C433.753 389.943 434.543 389.363 438.493 394.853C442.443 400.333 441.923 400.713 445.873 406.193C446.373 406.873 446.813 407.473 447.203 408.003C447.683 408.633 448.093 409.183 448.483 409.693C449.633 411.253 450.773 412.513 451.323 413.843C451.623 414.503 451.833 415.113 451.963 415.853C452.093 416.583 452.123 417.413 451.983 418.313C451.853 419.213 451.533 420.193 451.003 421.093C450.483 421.983 449.663 423.023 448.323 423.973C447.673 424.453 447.063 424.903 446.493 425.333C446.213 425.533 445.953 425.733 445.693 425.923C445.553 426.023 445.413 426.123 445.273 426.213C444.733 426.583 444.243 426.903 443.793 427.183C442.893 427.743 442.143 428.153 441.393 428.563C439.893 429.383 438.393 430.203 435.693 432.233C430.283 436.293 430.873 437.073 425.463 441.123C420.053 445.183 419.503 444.453 414.103 448.503C410.476 451.183 406.853 453.867 403.233 456.553C400.533 458.583 399.203 459.633 397.873 460.673C397.153 461.233 396.443 461.793 395.553 462.493C394.803 463.063 393.973 463.693 393.043 464.403C392.103 465.123 390.973 465.663 389.783 465.983C388.563 466.303 387.293 466.233 386.273 465.963C385.243 465.683 384.433 465.243 383.823 464.763C383.193 464.303 382.643 463.723 382.143 463.143C381.663 462.523 381.263 461.883 380.843 461.253C380.213 460.313 379.593 459.363 378.803 458.183C378.213 457.303 377.503 456.253 376.553 454.853C372.733 449.273 372.203 449.633 368.383 444.053C364.563 438.473 365.063 438.133 361.243 432.553C357.423 426.973 356.723 427.453 352.903 421.873C349.083 416.293 348.523 416.673 344.703 411.093C340.883 405.513 341.213 405.293 337.393 399.713C334.873 395.973 332.353 392.233 329.833 388.493C326.013 382.913 326.753 382.403 322.933 376.823C319.113 371.243 318.973 371.333 315.153 365.753C311.333 360.173 310.463 360.773 306.633 355.193C302.813 349.613 303.493 349.143 299.673 343.563C295.853 337.983 295.633 338.133 291.813 332.543C287.993 326.963 288.483 326.633 284.653 321.053C280.833 315.473 280.493 315.703 276.673 310.123C272.853 304.543 273.363 304.193 269.543 298.613C265.723 293.033 265.273 293.333 261.453 287.753C260.443 286.263 259.693 285.143 259.063 284.213C258.023 282.603 257.013 281.333 256.473 280.013C256.223 279.353 256.023 278.733 255.913 278.073C255.803 277.403 255.763 276.623 255.893 275.773C256.013 274.923 256.303 273.973 256.833 273.083C257.093 272.633 257.403 272.233 257.783 271.793C258.173 271.353 258.653 270.903 259.253 270.453C259.533 270.263 259.803 270.073 259.813 270.063C261.753 268.843 263.213 267.913 264.453 267.133C265.303 266.583 266.003 266.133 266.703 265.673C268.103 264.763 269.513 263.843 272.303 262.103C275.173 260.313 276.533 259.283 277.883 258.263C278.053 258.133 278.223 258.003 278.393 257.873C278.463 257.803 278.433 257.803 278.453 257.773C278.473 257.723 278.483 257.683 278.503 257.623C278.543 257.533 278.583 257.463 278.693 257.393C278.723 257.373 278.763 257.353 278.793 257.353C278.743 257.203 278.903 257.053 278.923 256.763C278.923 256.693 278.923 256.613 278.923 256.523C278.753 256.243 278.453 255.793 278.173 255.393C277.593 254.553 276.873 253.593 275.893 252.363C271.643 247.083 271.793 246.973 267.543 241.693C264.263 237.623 265.003 235.803 267.423 233.843C269.853 231.893 272.103 231.313 275.383 235.373C279.623 240.643 279.413 240.803 283.653 246.073C289.223 253.053 289.693 253.633 294.803 260.043C294.733 260.083 293.973 260.563 293.133 261.083C290.623 262.653 288.793 263.853 287.273 264.903C286.513 265.433 285.823 265.913 285.173 266.373C284.843 266.603 284.523 266.833 284.213 267.063C284.043 267.203 283.873 267.333 283.703 267.473C282.383 268.543 281.053 269.613 278.183 271.403C275.373 273.163 273.843 273.893 272.323 274.613C271.563 274.973 270.813 275.333 269.903 275.803C269.453 276.043 268.953 276.313 268.403 276.623C268.313 276.673 268.293 276.683 268.283 276.683L268.233 276.703L268.123 276.763C268.043 276.803 267.963 276.853 267.883 276.903C267.873 276.903 267.843 276.923 267.813 276.943C267.643 277.053 267.503 277.153 267.423 277.263C267.353 277.383 267.373 277.533 267.433 277.663C267.563 277.923 267.903 278.043 268.143 278.113C268.393 278.183 268.603 278.193 268.753 278.193C268.783 278.203 268.773 278.163 268.823 278.213C268.913 278.323 269.003 278.433 269.103 278.543C269.283 278.773 269.483 279.013 269.683 279.273C270.083 279.793 270.523 280.393 271.003 281.093C274.823 286.673 274.643 286.793 278.463 292.373C282.283 297.953 281.763 298.303 285.593 303.883C289.413 309.463 289.293 309.543 293.113 315.123C296.933 320.703 296.833 320.773 300.653 326.353C304.473 331.933 304.193 332.123 308.013 337.703C311.833 343.283 312.013 343.153 315.843 348.733C319.663 354.313 319.793 354.223 323.623 359.803C327.443 365.383 328.073 364.953 331.893 370.533C335.713 376.113 335.993 375.923 339.813 381.503C343.633 387.083 343.423 387.233 347.243 392.803C351.063 398.383 350.913 398.483 354.733 404.063C358.553 409.633 358.233 409.863 362.053 415.433C365.873 421.003 366.113 420.843 369.923 426.423C373.743 432.003 373.473 432.183 377.293 437.763C379.86 441.47 382.426 445.177 384.993 448.883C385.953 450.273 386.683 451.303 387.323 452.153C387.643 452.573 387.933 452.953 388.203 453.313C388.383 453.553 388.373 453.513 388.403 453.533L388.483 453.573C388.583 453.623 388.673 453.653 388.753 453.693C388.823 453.743 388.963 453.783 389.103 453.713C389.223 453.623 389.323 453.613 389.463 453.603H389.513C389.613 453.543 389.703 453.483 389.803 453.423C390.013 453.293 390.213 453.173 390.403 453.063C390.793 452.833 391.163 452.623 391.523 452.403C392.993 451.553 394.473 450.703 397.173 448.673C402.583 444.613 401.753 443.513 407.163 439.453C410.776 436.76 414.39 434.067 418.003 431.373C421.616 428.68 425.226 425.98 428.833 423.273C432.026 420.867 435.22 418.46 438.413 416.053C438.413 416.053 438.863 416.133 439.093 415.923C439.213 415.833 439.293 415.693 439.293 415.493C439.413 415.563 438.973 414.873 438.643 414.353C438.283 413.793 437.863 413.183 437.373 412.503C433.423 407.013 433.203 407.173 429.253 401.683C425.303 396.193 424.863 396.513 420.913 391.023C416.963 385.533 416.723 385.713 412.773 380.223C408.823 374.733 410.053 373.843 406.103 368.353C402.153 362.863 401.653 363.223 397.703 357.733C393.753 352.243 393.413 352.483 389.463 346.993C385.513 341.503 385.663 341.393 381.713 335.903C377.763 330.413 377.263 330.773 373.313 325.283C369.363 319.793 370.313 319.103 366.363 313.613C362.413 308.123 361.913 308.483 357.963 303.003C354.013 297.513 353.473 297.903 349.513 292.413C346.86 288.767 344.206 285.12 341.553 281.473C338.92 277.813 336.283 274.153 333.643 270.493C329.693 265.003 330.623 264.333 326.663 258.843C322.713 253.353 322.913 253.203 318.963 247.713C318.463 247.033 318.023 246.433 317.633 245.903C317.453 245.663 317.283 245.443 317.133 245.233C317.093 245.193 317.053 245.143 317.013 245.113C316.853 244.963 316.733 244.873 316.613 244.803C316.503 244.723 316.353 244.693 316.173 244.753C315.983 244.803 315.853 245.003 315.643 245.143C314.693 245.863 313.973 246.413 313.383 246.863C312.553 247.523 311.893 248.053 311.223 248.573C309.903 249.633 308.583 250.703 305.853 252.703C300.383 256.703 300.023 256.213 294.553 260.203C290.333 263.283 289.433 261.343 287.603 258.833C285.763 256.313 284.153 254.823 288.373 251.743L288.293 251.753Z"></path>
<path fill="#141413" d="M182.153 341.173C181.593 339.023 181.463 337.343 181.423 335.963C181.433 334.573 181.493 333.473 181.703 332.393C181.833 331.303 182.113 330.243 182.413 328.923C182.763 327.613 183.193 326.053 183.993 324.053C184.393 323.053 184.843 322.223 185.213 321.463C185.633 320.733 186.033 320.113 186.393 319.543C186.743 318.963 187.153 318.513 187.493 318.063C187.853 317.623 188.163 317.183 188.553 316.803C189.303 316.033 190.023 315.233 191.063 314.383C191.573 313.943 192.113 313.453 192.803 312.983C193.483 312.503 194.223 311.923 195.153 311.413C195.613 311.143 196.043 310.883 196.443 310.653C196.853 310.433 197.263 310.253 197.633 310.063C198.383 309.703 199.033 309.343 199.663 309.113C200.283 308.853 200.843 308.623 201.373 308.393C201.913 308.193 202.433 308.033 202.943 307.863C205.003 307.223 207.213 306.573 211.603 306.943C212.693 307.063 213.643 307.243 214.493 307.373C215.323 307.573 216.063 307.753 216.733 307.913C217.403 308.073 217.983 308.313 218.543 308.483C219.103 308.673 219.633 308.833 220.133 309.063C221.153 309.493 222.173 309.923 223.363 310.653C223.663 310.833 223.973 311.013 224.313 311.213C224.623 311.443 224.963 311.673 225.313 311.933C225.663 312.193 226.033 312.463 226.423 312.763C226.803 313.083 227.183 313.433 227.593 313.813C228.443 314.543 229.063 315.293 229.623 315.963C230.193 316.613 230.603 317.263 230.963 317.863C231.723 319.023 232.123 320.073 232.533 321.083C233.253 323.153 234.033 325.163 234.883 329.343C235.603 333.553 235.373 335.723 235.243 337.843C235.183 338.373 235.113 338.913 235.043 339.473C234.963 340.043 234.803 340.623 234.663 341.283C234.583 341.613 234.513 341.953 234.403 342.313C234.283 342.663 234.153 343.043 234.013 343.443C233.873 343.843 233.723 344.263 233.553 344.703C233.353 345.133 233.133 345.593 232.903 346.073C231.943 348.013 231.033 349.363 230.223 350.443C229.453 351.563 228.663 352.313 227.963 353.143C227.593 353.533 227.183 353.893 226.763 354.283C226.333 354.673 225.903 355.103 225.343 355.493C224.793 355.893 224.213 356.363 223.503 356.823C222.773 357.253 221.973 357.773 221.013 358.253C217.103 360.153 214.853 360.393 212.733 360.623C212.193 360.663 211.663 360.703 211.093 360.743C210.523 360.743 209.923 360.743 209.243 360.743C208.573 360.763 207.843 360.693 207.013 360.623C206.603 360.583 206.153 360.563 205.693 360.503C205.233 360.423 204.733 360.343 204.213 360.263C202.113 359.883 200.583 359.413 199.323 358.973C198.683 358.783 198.123 358.553 197.603 358.323C197.073 358.103 196.583 357.893 196.083 357.683C195.603 357.433 195.123 357.183 194.623 356.913C194.373 356.773 194.113 356.633 193.843 356.483C193.583 356.313 193.323 356.133 193.043 355.943C191.913 355.193 190.623 354.183 189.133 352.583C188.603 351.983 188.123 351.443 187.803 350.893C187.473 350.343 187.223 349.833 187.053 349.363C186.673 348.443 186.703 347.613 186.843 346.983C187.163 345.693 188.233 344.953 189.523 344.273C190.813 343.593 191.963 343.203 193.043 343.383C193.593 343.463 194.043 343.743 194.623 344.103C194.903 344.293 195.183 344.533 195.463 344.823C195.743 345.123 196.093 345.403 196.423 345.793C198.323 347.783 199.723 348.233 200.963 348.713C202.283 349.053 203.523 349.483 206.063 349.963C206.703 350.073 207.253 350.183 207.763 350.223C208.263 350.283 208.713 350.383 209.113 350.393C209.523 350.433 209.893 350.483 210.243 350.543C210.593 350.553 210.933 350.583 211.273 350.613C212.613 350.683 214.093 350.733 216.603 349.523C219.083 348.253 220.073 347.253 221.143 346.383C222.093 345.393 223.163 344.423 224.443 341.923C224.593 341.603 224.733 341.313 224.863 341.033C224.973 340.743 225.053 340.463 225.133 340.203C225.293 339.683 225.423 339.223 225.453 338.783C225.503 338.343 225.553 337.963 225.553 337.593C225.533 337.223 225.513 336.873 225.493 336.523C225.343 335.143 225.233 333.823 224.803 331.273C224.303 328.733 223.843 327.483 223.443 326.183C223.193 325.553 222.993 324.883 222.523 324.163C222.303 323.793 222.073 323.373 221.713 322.983C221.373 322.573 221.003 322.093 220.473 321.653C220.223 321.423 219.983 321.203 219.763 320.993C219.523 320.813 219.293 320.643 219.073 320.483C218.863 320.323 218.663 320.163 218.473 320.023C218.273 319.903 218.073 319.783 217.893 319.673C217.523 319.453 217.213 319.223 216.883 319.063C216.553 318.903 216.243 318.743 215.943 318.593C214.683 318.063 213.403 317.413 210.653 317.103C207.893 316.873 206.513 317.183 205.183 317.493C204.853 317.583 204.523 317.663 204.163 317.753C203.823 317.883 203.453 318.013 203.053 318.163C202.643 318.283 202.223 318.503 201.733 318.733C201.493 318.843 201.233 318.963 200.953 319.093C200.693 319.253 200.413 319.413 200.123 319.593C199.513 319.913 199.053 320.303 198.633 320.633C198.203 320.943 197.883 321.293 197.593 321.613C196.983 322.213 196.643 322.813 196.263 323.373C195.613 324.563 194.873 325.663 193.883 328.083C192.953 330.533 192.873 331.873 192.853 333.163C192.823 334.453 192.853 335.763 193.453 338.253C193.533 338.723 193.683 339.103 193.703 339.483C193.743 339.853 193.693 340.193 193.673 340.493C193.603 341.093 193.323 341.613 192.923 342.073C192.123 342.993 190.803 343.633 189.513 344.303C188.213 344.973 186.993 345.743 185.743 345.613C185.123 345.543 184.483 345.243 183.833 344.573C183.493 344.243 183.233 343.783 182.953 343.233C182.693 342.673 182.363 342.033 182.193 341.223L182.153 341.173Z"></path>
<path fill="#141413" d="M364.453 142.613C365.103 144.303 365.753 145.483 366.493 146.343C366.673 146.563 366.813 146.793 366.993 146.983C367.183 147.163 367.363 147.343 367.533 147.523C367.843 147.903 368.253 148.163 368.593 148.473C369.313 149.053 370.093 149.533 371.033 149.983C371.513 150.183 372.023 150.413 372.593 150.573C373.153 150.753 373.813 150.893 374.413 150.983C374.673 151.023 375.143 151.103 375.633 151.183C376.123 151.303 376.763 151.453 377.503 151.623C378.153 151.813 378.893 151.873 379.693 151.973C380.343 152.063 380.963 152.143 381.523 152.123C382.093 152.133 382.623 152.153 383.123 152.163C383.613 152.123 384.073 152.083 384.513 152.043C384.953 152.013 385.373 152.003 385.743 151.903C387.273 151.653 388.453 151.313 389.593 150.883C390.713 150.423 391.813 149.903 393.023 149.003C393.323 148.773 393.643 148.533 393.973 148.283C394.273 147.993 394.593 147.683 394.933 147.353C395.303 147.053 395.563 146.613 395.923 146.213C396.293 145.823 396.583 145.323 396.903 144.813C398.173 142.723 398.703 140.913 398.963 139.393C399.103 138.633 399.103 137.923 399.173 137.283C399.153 136.623 399.133 136.003 399.103 135.383C399.013 134.763 398.923 134.153 398.843 133.503C398.673 132.863 398.563 132.173 398.363 131.433C397.933 129.953 397.343 128.183 396.153 126.033C395.823 125.523 395.573 125.003 395.243 124.573C394.923 124.143 394.613 123.743 394.333 123.363C394.023 123.003 393.703 122.703 393.423 122.393C393.283 122.243 393.143 122.093 393.003 121.943C392.853 121.813 392.703 121.693 392.563 121.573C391.983 121.093 391.493 120.633 390.943 120.323C390.413 119.983 389.943 119.623 389.393 119.393C388.353 118.833 387.253 118.383 385.833 117.973C385.473 117.873 385.093 117.773 384.693 117.663C384.303 117.533 383.843 117.523 383.383 117.443C382.463 117.233 381.373 117.243 380.143 117.153C378.833 117.203 377.603 117.163 376.633 117.283C376.143 117.333 375.643 117.333 375.223 117.393C374.803 117.463 374.403 117.513 374.023 117.563C373.623 117.593 373.303 117.673 372.983 117.743C372.653 117.803 372.343 117.863 372.033 117.923C371.483 118.103 370.923 118.223 370.423 118.413C369.953 118.633 369.403 118.783 368.963 119.093C368.733 119.243 368.463 119.353 368.233 119.543C368.003 119.733 367.763 119.933 367.513 120.133C366.563 121.043 365.553 122.403 364.733 124.833C364.513 125.643 364.273 126.363 364.143 127.093C364.103 127.273 364.073 127.443 364.033 127.613L363.973 127.883L363.943 128.023V128.083L363.913 128.213L363.873 128.473C363.783 129.163 363.703 129.813 363.623 130.423C363.293 132.873 363.133 134.713 363.013 135.913C360.393 136.063 358.123 136.193 355.943 136.323C355.063 136.373 354.203 136.433 353.333 136.483C352.743 136.523 352.143 136.563 351.523 136.603C349.043 136.763 346.223 136.933 341.943 137.113C333.543 137.513 325.143 137.917 316.743 138.323C304.133 138.863 304.113 138.373 291.503 138.913C278.893 139.453 278.913 139.953 266.303 140.493C256.993 140.893 255.643 138.683 255.523 135.773C255.403 132.863 256.573 130.953 265.883 130.553C278.473 130.013 278.433 129.023 291.023 128.483C303.623 127.943 303.663 129.063 316.263 128.533C328.863 128.003 328.863 128.193 341.463 127.653C346.043 127.453 348.943 127.173 351.403 126.863C354.703 126.513 353.813 126.313 354.073 126.113C354.043 126.023 354.003 125.923 353.953 125.803L353.933 125.753C354.013 125.353 354.093 124.943 354.183 124.513C354.333 123.663 354.653 122.713 354.923 121.723C356.113 118.033 357.903 115.243 359.763 113.273C360.743 112.323 361.633 111.483 362.603 110.863C363.523 110.163 364.483 109.713 365.413 109.233C366.353 108.763 367.313 108.473 368.323 108.083C369.323 107.833 370.403 107.483 371.563 107.283C373.903 106.813 376.613 106.573 380.123 106.523C381.973 106.623 383.593 106.653 385.033 106.953C385.753 107.083 386.433 107.163 387.073 107.333C387.703 107.513 388.303 107.683 388.863 107.843C390.013 108.133 390.973 108.613 391.903 108.983C392.843 109.333 393.653 109.853 394.493 110.303C395.343 110.743 396.113 111.293 396.923 111.883C397.763 112.443 398.563 113.143 399.443 113.943C399.663 114.143 399.893 114.343 400.123 114.553C400.343 114.773 400.553 115.013 400.773 115.253C401.213 115.743 401.683 116.253 402.173 116.793C402.613 117.383 403.073 118.003 403.573 118.663C404.083 119.323 404.483 120.103 404.983 120.893C406.813 124.163 407.663 126.863 408.203 129.133C408.473 130.273 408.593 131.323 408.773 132.303C408.863 133.293 408.913 134.233 408.973 135.173C408.973 136.113 408.923 137.063 408.883 138.073C408.743 139.073 408.643 140.143 408.403 141.313C407.893 143.643 407.053 146.443 405.043 149.753C402.973 153.023 400.883 155.153 398.963 156.663C397.073 158.223 395.363 159.233 393.613 160.113C391.853 160.973 389.993 161.673 387.613 162.183C387.023 162.343 386.393 162.423 385.723 162.493C385.053 162.563 384.353 162.643 383.603 162.723C382.863 162.733 382.073 162.723 381.233 162.723C380.813 162.713 380.373 162.723 379.943 162.683C379.503 162.633 379.053 162.583 378.593 162.533C377.913 162.453 377.263 162.373 376.663 162.303C376.073 162.203 375.553 162.073 375.083 161.983C374.623 161.883 374.223 161.803 373.913 161.733C373.753 161.703 373.623 161.673 373.513 161.653C373.453 161.643 373.413 161.633 373.363 161.623C373.433 161.633 373.483 161.653 373.533 161.663H373.513C373.523 161.663 373.473 161.663 373.543 161.663C373.683 161.673 373.523 161.663 373.503 161.663C372.103 161.543 370.993 161.333 369.943 161.073C368.893 160.833 367.953 160.513 367.063 160.203C365.293 159.513 363.723 158.773 362.193 157.733C361.423 157.223 360.643 156.683 359.893 155.993C359.513 155.653 359.113 155.313 358.723 154.943C358.363 154.533 357.993 154.123 357.603 153.683C356.783 152.833 356.143 151.753 355.383 150.593C354.983 150.023 354.743 149.353 354.403 148.693C354.103 148.013 353.703 147.313 353.503 146.553C352.483 143.693 352.463 141.563 352.503 140.023C352.733 138.513 353.143 137.563 353.673 136.963C354.723 135.783 356.203 135.983 357.653 135.963C359.113 135.953 360.543 135.863 361.683 136.723C362.253 137.153 362.733 137.803 363.093 138.813C363.613 139.743 363.903 141.063 364.473 142.603L364.453 142.613Z"></path>
</svg>
