<svg width="160" height="27" viewBox="0 0 160 27" fill="none" xmlns="http://www.w3.org/2000/svg">
<g clip-path="url(#clip0_15714_8352)">
<path d="M15.9487 21.6875C17.285 21.6875 18.368 22.7706 18.3681 24.1069C18.3681 25.4432 17.2851 26.5271 15.9487 26.5271C14.6123 26.5271 13.5293 25.4432 13.5293 24.1069C13.5295 22.7706 14.6124 21.6875 15.9487 21.6875Z" fill="white"/>
<path d="M14.7445 15.9898C14.9256 15.8734 15.1393 15.8471 15.3399 15.9182C15.5469 15.9894 15.702 16.1512 15.7667 16.3516V16.345L16.4139 18.2924C16.5109 18.5771 16.4138 18.8883 16.168 19.063L7.99039 25.0087C7.74454 25.1833 7.42053 25.1833 7.18118 25.0087L5.52492 23.8047L5.44762 23.7464C5.29894 23.6105 5.22087 23.4163 5.23381 23.2094C5.24684 23.0089 5.35105 22.8215 5.51917 22.6986L14.7125 16.0153L14.7445 15.9898Z" fill="white"/>
<path fill-rule="evenodd" clip-rule="evenodd" d="M108.791 7.44141C113.723 7.44147 116.786 10.9048 116.786 15.9266C116.786 16.3233 116.754 16.7519 116.754 17.1199H104.346C104.592 19.9076 106.183 21.3806 108.97 21.3806C110.993 21.3805 112.34 20.6761 112.984 18.6536H116.783C115.957 22.2381 113.199 24.3821 109.031 24.3822C103.792 24.3822 100.482 20.9195 100.482 15.9587H100.489C100.489 10.9048 103.859 7.44141 108.791 7.44141ZM108.638 10.4439C106.125 10.4439 104.624 12.0982 104.41 14.3354H112.804C112.558 12.0982 111.15 10.4439 108.638 10.4439Z" fill="white"/>
<path fill-rule="evenodd" clip-rule="evenodd" d="M59.1506 7.4375C62.8569 7.4375 66.1991 8.93899 66.1991 12.4309V24.0107H62.7361V21.8339H62.6144C61.5422 23.4277 59.644 24.3758 56.9779 24.3758C54.0973 24.3758 51.7098 22.6919 51.7098 19.5041L51.7065 19.5107C51.7065 12.7415 62.3669 15.711 62.3677 12.3413C62.3677 11.0227 60.9595 10.3183 58.9368 10.3183C56.914 10.3183 55.7195 10.9936 55.5659 13.074H51.9812C52.2276 9.09251 55.1372 7.43761 59.1506 7.4375ZM62.3677 15.5896C60.8345 17.0907 55.6267 16.0186 55.6267 19.2672C55.6268 20.8002 56.7311 21.5648 58.3216 21.5649C60.3732 21.5649 62.3643 20.157 62.3644 17.6127H62.3677V15.5896Z" fill="white"/>
<path fill-rule="evenodd" clip-rule="evenodd" d="M125.25 7.4375C128.956 7.4375 132.298 8.93899 132.298 12.4309V24.0107H128.835V21.8339H128.713C127.641 23.4278 125.743 24.3758 123.077 24.3758C120.196 24.3757 117.809 22.6918 117.809 19.5041L117.805 19.5107C117.805 12.7415 128.465 15.711 128.466 12.3413C128.466 11.0226 127.058 10.3183 125.035 10.3183C123.013 10.3183 121.819 10.9936 121.665 13.074H118.081C118.327 9.09242 121.237 7.4375 125.25 7.4375ZM128.466 15.5896C126.933 17.0904 121.726 16.0187 121.726 19.2672C121.727 20.8003 122.831 21.5649 124.422 21.5649C126.473 21.5649 128.464 20.157 128.464 17.6127H128.466V15.5896Z" fill="white"/>
<path d="M103.116 5.87562H96.1933V24.0138H92.1503V5.87562H85.1929V2.56641H103.116V5.87562Z" fill="white"/>
<path d="M72.5355 24.0134H68.6753V7.80859H72.5355V24.0134Z" fill="white"/>
<path fill-rule="evenodd" clip-rule="evenodd" d="M44.3987 2.56641C48.3193 2.56661 51.1676 5.41548 51.1676 9.30735C51.1675 13.1991 48.3192 16.1369 44.3987 16.1372H39.1298V24.0105H35.1167V2.56641H44.3987ZM39.1298 12.7383H43.5723C45.6239 12.7383 47.1569 11.3902 47.1569 9.33859C47.1568 7.28721 45.6237 5.96855 43.5723 5.96855H39.0977L39.1298 12.7383Z" fill="white"/>
<path d="M154.076 7.44141C157.077 7.44155 159.558 9.18925 159.558 13.017V24.0146H155.698V14.272C155.698 12.4956 155.087 10.5047 152.696 10.5047C150.305 10.5048 149.111 12.3738 149.111 14.8543V24.0146H145.251V14.272C145.251 12.4957 144.639 10.505 142.281 10.5047C139.801 10.5047 138.696 12.4663 138.696 15.2218V24.0146H134.836V7.80983H138.543V10.1684H138.635C139.247 8.88171 140.812 7.44141 143.75 7.44141C146.201 7.44142 148.16 8.54588 148.713 10.4439H148.807C149.418 8.97476 151.073 7.44141 154.076 7.44141Z" fill="white"/>
<path d="M85.0992 10.8692H82.7722C80.1671 10.8694 79.005 12.921 79.0049 15.4333V24.0115H75.1455V7.80675H79.0049V10.7155H79.1266C79.738 9 81.0891 7.40625 84.0592 7.40625H85.0992V10.8692Z" fill="white"/>
<path d="M19.0923 11.6641C19.3575 11.6705 19.6228 11.8262 19.7264 12.0785L19.7329 12.0843L22.8777 21.7635C22.9616 22.0222 22.8774 22.3134 22.677 22.4881L20.969 23.7364C20.7878 23.8658 20.5673 23.9046 20.3538 23.8334C20.1469 23.7623 19.985 23.6069 19.9138 23.3935L16.3818 12.5242C16.3366 12.3367 16.3755 12.1423 16.4854 11.9806C16.5953 11.8192 16.7633 11.7154 16.9443 11.6895L19.0923 11.6641Z" fill="white"/>
<path d="M3.603 16.7422C4.93927 16.7422 6.02224 17.8254 6.02241 19.1616C6.02241 20.498 4.93937 21.5819 3.603 21.5819C2.26665 21.5819 1.18359 20.498 1.18359 19.1616C1.18376 17.8254 2.26675 16.7422 3.603 16.7422Z" fill="white"/>
<path d="M1.32591 8.66406C1.4682 8.66415 1.60434 8.70912 1.72723 8.79316L10.9205 15.47C11.0822 15.5929 11.1855 15.7809 11.1984 15.9815C11.2114 16.1885 11.1401 16.3826 10.9978 16.5185L9.27742 17.7998C9.03152 17.9745 8.701 17.9745 8.46159 17.7998L0.277389 11.854C0.0380169 11.6794 -0.0590747 11.3747 0.0315009 11.0901L0.672126 9.13615C0.736854 8.92276 0.89869 8.7673 1.1121 8.69615C1.18326 8.67678 1.25474 8.66406 1.32591 8.66406Z" fill="white"/>
<path d="M24.4697 11.4766C25.8059 11.4766 26.8889 12.5598 26.8891 13.896C26.8891 15.2324 25.806 16.3162 24.4697 16.3162C23.1333 16.3161 22.0503 15.2324 22.0503 13.896C22.0505 12.5598 23.1334 11.4766 24.4697 11.4766Z" fill="white"/>
<path d="M13.1139 0C13.3403 0 13.5412 0.103403 13.6706 0.28454C13.8 0.465695 13.8388 0.686167 13.7677 0.899672L10.2611 11.7105L10.2479 11.7426C10.1703 11.9367 10.0084 12.0923 9.80136 12.1505C9.59437 12.2151 9.38065 12.1763 9.20599 12.0535L7.54397 10.8627H7.5374L7.48558 10.824C7.27855 10.6429 7.19424 10.3516 7.27835 10.0863L10.4034 0.47204C10.5004 0.187636 10.7589 0.000157826 11.0563 0H13.1139Z" fill="white"/>
<path d="M24.3722 6.58594C24.6504 6.58594 24.8962 6.74809 24.9997 7.00041L25.66 9.0119C25.7312 9.22546 25.6924 9.44592 25.563 9.62706C25.4271 9.80811 25.2262 9.9116 25.0062 9.9116H13.6387C13.419 9.91152 13.2186 9.80803 13.0893 9.63363V9.62706C12.9534 9.45241 12.921 9.22554 12.9857 9.01847L13.6066 7.06455C13.6972 6.77995 13.9563 6.58594 14.2604 6.58594H24.3722Z" fill="white"/>
<path d="M4.49705 3.46875C5.83332 3.46875 6.91629 4.55192 6.91646 5.88816C6.91646 7.22453 5.83342 8.30839 4.49705 8.30839C3.16069 8.30836 2.07764 7.22451 2.07764 5.88816C2.07781 4.55194 3.1608 3.46878 4.49705 3.46875Z" fill="white"/>
<path d="M70.6046 2.17188C71.9521 2.17188 72.964 3.15166 72.964 4.43833C72.9638 5.72481 71.9519 6.73602 70.6046 6.73602C69.2573 6.73598 68.2463 5.75678 68.2461 4.43833C68.2461 3.15168 69.2572 2.17192 70.6046 2.17188Z" fill="white"/>
<path d="M17.392 0.21875C18.7284 0.21875 19.8113 1.30193 19.8115 2.63816C19.8115 3.97453 18.7284 5.05839 17.392 5.05839C16.0557 5.05836 14.9727 3.97451 14.9727 2.63816C14.9728 1.30194 16.0558 0.218776 17.392 0.21875Z" fill="white"/>
</g>
<defs>
<clipPath id="clip0_15714_8352">
<rect width="160" height="26.9474" fill="white"/>
</clipPath>
</defs>
</svg>
