<svg width="200" height="34" viewBox="0 0 200 34" fill="none" xmlns="http://www.w3.org/2000/svg">
<path fill-rule="evenodd" clip-rule="evenodd" d="M146.984 27.5503H157.599V24.7142H149.826V6.65625H146.984V27.5503ZM170.3 27.5507H172.679V13.4864H170.242V15.2806C169.025 14.0073 167.343 13.2549 165.429 13.2549C161.368 13.2549 158.119 16.496 158.119 20.4897C158.119 24.4832 161.368 27.7822 165.429 27.7822C167.343 27.7822 169.082 26.972 170.3 25.7566V27.5507ZM165.429 16.033C167.922 16.033 169.894 18.0588 169.894 20.4897C169.894 22.9785 167.922 24.9463 165.429 24.9463C162.934 24.9463 160.962 22.9785 160.962 20.4897C160.962 18.0588 162.992 16.033 165.429 16.033ZM189.617 20.4892C189.617 24.4829 186.31 27.7819 182.307 27.7819C180.393 27.7819 178.654 26.9715 177.435 25.7561V27.5504H175.057V7.81392H177.842V14.9329C179.002 13.8911 180.568 13.2545 182.307 13.2545C186.31 13.1966 189.617 16.4957 189.617 20.4892ZM186.716 20.4892C186.716 18.0584 184.687 16.0326 182.25 16.0326C179.814 16.0326 177.783 18.0004 177.783 20.4892C177.783 22.9201 179.814 24.8879 182.25 24.8879C184.687 24.8879 186.716 22.9201 186.716 20.4892ZM198.026 16.5534L199.244 14.4697C198.084 13.7751 196.808 13.1964 195.183 13.3121C192.515 13.3121 190.485 14.9327 190.485 17.2478C190.485 19.6995 192.737 20.6347 194.134 21.2153L194.198 21.2414C196.17 21.9938 197.039 22.5147 197.039 23.4987C197.039 24.3089 196.402 25.1771 195.01 25.1771C193.85 25.1771 192.342 24.5405 191.53 24.0774L190.427 26.3925C191.645 27.1449 193.386 27.8396 195.125 27.8396C197.968 27.8396 199.998 25.8138 199.998 23.4987C199.998 21.1836 198.026 19.6787 195.764 18.8685C195.681 18.8376 195.599 18.8073 195.519 18.7774C194.245 18.3041 193.269 17.9419 193.269 17.0163C193.269 16.1482 194.198 15.6272 195.3 15.6272C196.402 15.6272 197.445 16.206 198.026 16.5534Z" fill="black"/>
<path d="M30.1622 14.4117C30.1043 13.8908 30.0462 13.2541 29.8142 12.5596C29.6401 11.865 29.3502 11.1126 28.9441 10.3023C28.5381 9.49203 28.0161 8.68172 27.3781 7.87143C27.1461 7.58204 26.856 7.23477 26.508 6.94539C26.972 5.09329 25.928 3.53057 25.928 3.53057C24.1878 3.41481 23.0277 4.05147 22.6216 4.39874C22.5637 4.39874 22.5056 4.34087 22.3896 4.28298C22.0997 4.16723 21.8096 4.05147 21.4616 3.93572C21.1136 3.81996 20.8235 3.76208 20.4756 3.64632C20.1276 3.58845 19.7794 3.53057 19.4895 3.47269C19.4314 3.47269 19.3735 3.47269 19.3154 3.47269C18.5613 1.04181 16.3572 0 16.3572 0C13.921 1.56271 13.457 3.70421 13.457 3.70421C13.457 3.70421 13.457 3.76208 13.457 3.81996C13.341 3.87783 13.167 3.87783 13.051 3.93572C12.8769 3.99359 12.7029 4.05147 12.4709 4.10936C12.2969 4.16723 12.1229 4.22511 11.8909 4.34087C11.5429 4.5145 11.1368 4.68813 10.7888 4.86176C10.4408 5.0354 10.0928 5.26691 9.74472 5.49843C9.68672 5.49843 9.68672 5.44055 9.68672 5.44055C6.26447 4.16723 3.24824 5.72994 3.24824 5.72994C2.95822 9.31839 4.58234 11.6335 4.93037 12.0387C4.87235 12.2702 4.75635 12.5017 4.69835 12.7332C4.46634 13.5435 4.23431 14.4117 4.11831 15.2799C4.11831 15.3956 4.0603 15.5114 4.0603 15.6271C0.928068 17.1898 0 20.3731 0 20.3731C2.61019 23.3828 5.68443 23.5564 5.68443 23.5564C6.09046 24.251 6.49649 24.8875 7.01852 25.5242C7.25053 25.7557 7.48256 26.0452 7.65658 26.2767C6.7285 28.997 7.77258 31.2543 7.77258 31.2543C10.6728 31.37 12.5869 29.9809 12.993 29.6337C13.283 29.7494 13.573 29.8072 13.863 29.9231C14.7331 30.1546 15.6612 30.2703 16.5892 30.3281C16.8212 30.3281 17.0533 30.3281 17.2853 30.3281H17.4013H17.4593H17.5753H17.6913C19.0834 32.296 21.4616 32.5854 21.4616 32.5854C23.2018 30.7911 23.2597 28.997 23.2597 28.5918V28.534V28.476C23.6077 28.2445 23.9557 27.9552 24.3038 27.6658C24.9998 27.0291 25.5798 26.3346 26.1019 25.5822C26.16 25.5242 26.2179 25.4664 26.2179 25.3507C28.1901 25.4664 29.5241 24.1353 29.5241 24.1353C29.1761 22.1095 28.016 21.1255 27.784 20.952H27.7261C27.7261 20.8361 27.7261 20.7203 27.7261 20.6046C27.7261 20.3731 27.7261 20.1416 27.7261 19.968V19.6786V19.6207V19.5629V19.5049V19.3892V19.2156C27.7261 19.1577 27.7261 19.0999 27.7261 19.0419C27.7261 18.9841 27.7261 18.9262 27.7261 18.8682V18.6947V18.521C27.668 18.2895 27.668 18.058 27.6101 17.8843C27.3781 17.0163 27.088 16.2059 26.624 15.4534C26.16 14.7011 25.6379 14.0644 24.9998 13.4856C24.3618 12.9068 23.6658 12.5017 22.9117 12.1544C22.1576 11.8071 21.4035 11.6335 20.5915 11.5178C20.1855 11.4599 19.8375 11.4599 19.4314 11.4599H19.3154H19.2575H19.1994H19.1415H19.0255C18.9674 11.4599 18.9093 11.4599 18.8514 11.4599C18.6773 11.4599 18.4453 11.5178 18.2714 11.5178C17.5173 11.6335 16.7633 11.9229 16.1252 12.3281C15.4871 12.7332 14.9071 13.1962 14.4431 13.7171C13.979 14.238 13.631 14.8747 13.399 15.5114C13.167 16.1481 13.051 16.7846 12.993 17.4213C12.993 17.595 12.993 17.7107 12.993 17.8843C12.993 17.9422 12.993 17.9422 12.993 18.0002V18.1159C12.993 18.1737 12.993 18.2895 12.993 18.3474C13.051 18.6367 13.109 18.9841 13.167 19.2734C13.341 19.8522 13.631 20.3731 13.921 20.8361C14.269 21.2992 14.6751 21.6465 15.0812 21.9358C15.4871 22.2252 15.9513 22.4567 16.4153 22.5724C16.8793 22.6882 17.2853 22.7461 17.7493 22.7461C17.8073 22.7461 17.8653 22.7461 17.9233 22.7461H17.9813H18.0394C18.0973 22.7461 18.1554 22.7461 18.1554 22.7461C18.1554 22.7461 18.1554 22.7461 18.2133 22.7461H18.2714H18.3293C18.3874 22.7461 18.4453 22.7461 18.5034 22.7461C18.5613 22.7461 18.6194 22.7461 18.6773 22.6882C18.7933 22.6882 18.8514 22.6304 18.9674 22.6304C19.1415 22.5724 19.3154 22.5146 19.4895 22.3989C19.6634 22.341 19.7794 22.2252 19.9535 22.1095C20.0114 22.1095 20.0115 22.0517 20.0695 21.9937C20.2435 21.878 20.2435 21.6465 20.1275 21.5307C20.0115 21.415 19.8375 21.357 19.7215 21.4728C19.6634 21.4728 19.6634 21.5307 19.6055 21.5307C19.4895 21.5885 19.3735 21.6465 19.1994 21.7043C19.0834 21.7622 18.9093 21.7622 18.7933 21.82C18.7354 21.82 18.6194 21.82 18.5613 21.82C18.5034 21.82 18.5034 21.82 18.4453 21.82C18.3874 21.82 18.3874 21.82 18.3293 21.82C18.2714 21.82 18.2714 21.82 18.2133 21.82C18.1554 21.82 18.0973 21.82 18.0973 21.82H18.0394H17.9813C17.9233 21.82 17.9234 21.82 17.8653 21.82C17.5173 21.7622 17.2273 21.7043 16.8793 21.5307C16.5313 21.415 16.2412 21.1835 15.9511 20.952C15.6612 20.7203 15.4292 20.3731 15.2551 20.0838C15.0812 19.7944 14.9071 19.3892 14.849 18.9841C14.7911 18.8104 14.7911 18.5789 14.7911 18.4052C14.7911 18.3474 14.7911 18.2895 14.7911 18.2317V18.1737V18.1159C14.7911 18.0002 14.7911 17.8843 14.849 17.7685C15.0231 16.9004 15.4292 16.0901 16.1252 15.3956C16.2993 15.2219 16.4732 15.1062 16.6473 14.9325C16.8212 14.8168 17.0533 14.7011 17.2273 14.5853C17.4593 14.4696 17.6913 14.4117 17.8653 14.3538C18.0973 14.2959 18.3293 14.238 18.5613 14.238C18.6773 14.238 18.7933 14.238 18.9093 14.238H18.9674H19.0834H19.1415H19.2575C19.4895 14.238 19.7794 14.2959 20.0114 14.3538C20.5335 14.4695 20.9975 14.6432 21.4616 14.9325C22.3896 15.4534 23.1437 16.2638 23.6658 17.1898C23.8978 17.6528 24.0718 18.1737 24.1878 18.6947C24.1878 18.8104 24.2458 18.9841 24.2458 19.0999V19.2156V19.3314C24.2458 19.3892 24.2458 19.3892 24.2458 19.4471C24.2458 19.5049 24.2458 19.5049 24.2458 19.5629V19.6786V19.7944C24.2458 19.8522 24.2458 19.9679 24.2458 20.0258C24.2458 20.1995 24.2458 20.3153 24.1878 20.4888C24.1878 20.6046 24.1298 20.7783 24.1298 20.894C24.1298 21.0098 24.0717 21.1835 24.0138 21.2992C23.9557 21.5885 23.8397 21.878 23.7237 22.1095C23.4917 22.6304 23.2018 23.1513 22.8536 23.6721C22.1576 24.5983 21.2296 25.4085 20.1275 25.8715C19.6055 26.1031 19.0255 26.2767 18.4453 26.3924C18.1554 26.4504 17.8653 26.4504 17.5753 26.5082H17.5173H17.4593H17.3433H17.2273H17.1693C16.9953 26.5082 16.8793 26.5082 16.7052 26.5082C16.0673 26.4504 15.4292 26.3346 14.849 26.1609C14.269 25.9874 13.631 25.7557 13.109 25.4664C12.0069 24.8876 11.0208 24.0773 10.2088 23.0934C9.80272 22.6304 9.45469 22.1095 9.22268 21.5307C8.93265 20.952 8.70065 20.3731 8.52663 19.7944C8.35262 19.2156 8.23662 18.5789 8.23662 18.0002V17.8843V17.8265V17.7107V17.3635V17.3056V17.1898V17.132C8.23662 17.0741 8.23662 16.9583 8.23662 16.9004C8.23662 16.6111 8.29462 16.2638 8.29462 15.9744C8.35262 15.6849 8.41062 15.3377 8.46863 15.0484C8.52663 14.7589 8.58463 14.4117 8.70063 14.1223C8.87465 13.5435 9.10668 12.9647 9.33869 12.3859C9.86072 11.2863 10.4988 10.3023 11.3108 9.5499C11.4848 9.37627 11.7169 9.14476 11.9489 8.97112C12.1809 8.79748 12.4129 8.62385 12.6449 8.5081C12.877 8.33446 13.109 8.2187 13.341 8.10295C13.457 8.04506 13.573 7.98719 13.689 7.92932C13.747 7.92932 13.805 7.87143 13.863 7.87143C13.921 7.87143 13.979 7.81355 14.037 7.81355C14.2691 7.6978 14.5591 7.63992 14.7911 7.52417C14.849 7.52417 14.9071 7.46628 14.9652 7.46628C15.0231 7.46628 15.0812 7.40841 15.1391 7.40841C15.2551 7.35053 15.4292 7.35053 15.5452 7.29266C15.6031 7.29266 15.6612 7.23477 15.7772 7.23477C15.8351 7.23477 15.8932 7.23477 16.0092 7.1769C16.0673 7.1769 16.1252 7.1769 16.2412 7.11902H16.3572H16.4732C16.5313 7.11902 16.5892 7.11902 16.7052 7.06113C16.7633 7.06113 16.8793 7.06113 16.9373 7.00326C16.9953 7.00326 17.1113 7.00326 17.1693 7.00326C17.2273 7.00326 17.2853 7.00326 17.3433 7.00326H17.4593H17.5173H17.5753C17.6333 7.00326 17.7493 7.00326 17.8073 7.00326H17.9233H17.9813C18.0394 7.00326 18.0973 7.00326 18.1554 7.00326C18.4453 7.00326 18.6773 7.00326 18.9674 7.00326C19.4895 7.00326 20.0114 7.06113 20.5335 7.1769C21.5195 7.35053 22.4477 7.69781 23.3178 8.10295C24.1878 8.5081 24.9418 9.02899 25.5798 9.60778C25.6379 9.66565 25.6379 9.66565 25.6958 9.72354C25.7539 9.78141 25.7539 9.78141 25.8118 9.83929C25.8699 9.89718 25.9859 9.95505 26.0438 10.0708C26.1019 10.1866 26.2179 10.1866 26.276 10.3023C26.3339 10.4181 26.4499 10.476 26.508 10.5338C26.7979 10.8232 27.0299 11.1126 27.2621 11.4599C27.7261 12.0387 28.1321 12.6753 28.4221 13.2541C28.4221 13.312 28.4801 13.312 28.4801 13.3699C28.4801 13.4277 28.5381 13.4277 28.5381 13.4856C28.5961 13.5435 28.5961 13.6014 28.6541 13.7171C28.7121 13.775 28.7121 13.8329 28.7701 13.9486C28.8281 14.0065 28.8281 14.0644 28.8861 14.1802C29.0022 14.4696 29.1182 14.7011 29.1761 14.9325C29.2921 15.3377 29.4081 15.6849 29.4662 15.9744C29.5241 16.0901 29.6401 16.2059 29.7561 16.1481C29.8721 16.1481 29.9883 16.0323 29.9883 15.9164C30.2203 15.2219 30.2203 14.8168 30.1622 14.4117Z" fill="url(#paint0_linear_12712_28152)"/>
<path d="M58.4119 17.5946C58.1799 23.2666 53.7135 27.7232 48.0871 27.7232C42.1707 27.7232 37.8203 22.9772 37.8203 17.1894C37.8203 11.4015 42.5766 6.59766 48.3771 6.59766C50.9873 6.59766 53.5394 7.69735 55.7436 9.72308L54.0615 11.8067C52.3794 10.3597 50.4073 9.37581 48.4351 9.37581C44.2008 9.37581 40.7205 12.8485 40.7205 17.1316C40.7205 21.4723 44.0268 24.8293 48.2031 24.8293C51.9734 24.8293 54.9316 22.109 55.5116 18.5205H46.9849V16.0317H58.5279L58.4119 17.5946Z" fill="black"/>
<path d="M68.2755 16.2054H66.7094C64.9693 16.2054 63.5771 17.5945 63.5771 19.3308V27.5495H60.793V13.543H63.1131V14.7005C63.8672 13.9481 65.0853 13.543 66.4193 13.543H69.4356L68.2755 16.2054Z" fill="black"/>
<path d="M83.5862 27.5505H81.208V25.7564C79.3518 27.5505 76.4517 28.4187 73.4935 27.1454C71.2892 26.1614 69.6652 24.1936 69.2591 21.8207C68.389 17.364 71.8693 13.3125 76.3355 13.3125C78.1917 13.3125 79.9318 14.0649 81.1499 15.2804V13.4861H83.5862V27.5505ZM80.6859 21.589C81.324 18.7531 79.1778 16.1486 76.3936 16.1486C73.9575 16.1486 71.9853 18.1164 71.9853 20.5473C71.9853 23.2676 74.3634 25.409 77.2056 24.8882C78.8878 24.5988 80.2798 23.2676 80.6859 21.589Z" fill="black"/>
<path d="M89.2138 12.7336V13.5439H93.6802V16.0327H89.2138V27.6083H86.4297V12.8493C86.4297 9.78178 88.6338 7.92969 91.418 7.92969H94.7823L93.6802 10.5921H91.418C90.1999 10.5921 89.2138 11.5181 89.2138 12.7336Z" fill="black"/>
<path d="M108.584 27.5505H106.206V25.7564C104.35 27.5505 101.45 28.4187 98.4916 27.1454C96.2874 26.1614 94.6634 24.1936 94.2574 21.8207C93.3873 17.364 96.9255 13.3125 101.392 13.3125C103.248 13.3125 104.988 14.0649 106.206 15.2804V13.4861H108.642L108.584 27.5505ZM105.742 21.589C106.38 18.7531 104.234 16.1486 101.45 16.1486C99.0136 16.1486 97.0415 18.1164 97.0415 20.5473C97.0415 23.2676 99.4197 25.409 102.262 24.8882C103.944 24.5988 105.336 23.2676 105.742 21.589Z" fill="black"/>
<path d="M123.61 19.2739V27.5505H120.825V19.2739C120.825 17.5375 119.375 16.1486 117.693 16.1486C115.895 16.1486 114.503 17.5375 114.503 19.2739V27.5505H111.719V13.544H114.039V14.7595C115.025 13.8334 116.417 13.3125 117.809 13.3125C121.057 13.3125 123.61 15.9749 123.61 19.2739Z" fill="black"/>
<path d="M140.139 27.5505H137.761V25.7564C135.905 27.5505 133.005 28.4187 130.046 27.1454C127.842 26.1614 126.218 24.1936 125.812 21.8207C124.942 17.364 128.48 13.3125 132.947 13.3125C134.803 13.3125 136.543 14.0649 137.761 15.2804V13.4861H140.197L140.139 27.5505ZM137.297 21.589C137.935 18.7531 135.789 16.1486 133.005 16.1486C130.568 16.1486 128.596 18.1164 128.596 20.5473C128.596 23.2676 130.974 25.409 133.817 24.8882C135.441 24.5988 136.891 23.2676 137.297 21.589Z" fill="black"/>
<defs>
<linearGradient id="paint0_linear_12712_28152" x1="15.1916" y1="41.3913" x2="15.1916" y2="3.69565" gradientUnits="userSpaceOnUse">
<stop stop-color="#FFF100"/>
<stop offset="1" stop-color="#F05A28"/>
</linearGradient>
</defs>
</svg>
