<svg width="160" height="160" viewBox="0 0 160 160" fill="none" xmlns="http://www.w3.org/2000/svg">
<path d="M79.0879 52.8544C79.0879 52.8544 88.9247 28.2976 109.491 31.5392C130.058 34.784 130.576 62.0128 128.301 70.6656C126.026 79.3184 119.21 102.118 99.0719 107.216C87.8399 110.058 78.4863 91.888 78.4863 91.888C78.4863 91.888 75.6383 106.512 65.9583 107.258C56.2783 108.003 39.7919 88.2688 35.2575 77.024C27.5551 57.9232 33.9871 44.7392 39.2479 38.3616C44.5055 31.984 53.7503 31.8944 61.7119 34.7648C73.2991 38.944 79.0911 52.8544 79.0911 52.8544H79.0879Z" fill="white"/>
<path d="M78.6623 96.7551C78.0383 98.4351 77.4367 99.6575 76.8927 100.659C76.3487 101.661 75.8303 102.429 75.2863 103.181C74.7359 103.929 74.1183 104.646 73.2511 105.462C72.3775 106.262 71.2191 107.177 69.4239 107.955C67.6255 108.72 66.1535 108.928 64.9631 109.024C64.8127 109.033 64.6687 109.046 64.5247 109.056C64.4543 109.062 64.3839 109.065 64.3135 109.072C64.2399 109.072 64.1503 109.069 64.0703 109.065C63.7503 109.046 63.4175 109.046 63.1423 108.998C62.8703 108.947 62.6047 108.899 62.3423 108.851C62.0831 108.8 61.8591 108.72 61.6191 108.656C59.7471 108.083 58.0639 107.312 55.1039 105.318C54.3839 104.8 53.7439 104.355 53.2063 103.923C52.9343 103.712 52.6783 103.51 52.4351 103.321C52.1983 103.126 51.9775 102.941 51.7631 102.765C50.9087 102.07 50.2655 101.469 49.6063 100.889C48.9727 100.281 48.3199 99.6959 47.5583 98.9087C47.1711 98.5215 46.7455 98.0927 46.2847 97.5903C46.0511 97.3407 45.8047 97.0751 45.5391 96.7903C45.2799 96.5055 45.0111 96.1919 44.7231 95.8655C44.1375 95.2127 43.6607 94.6143 43.2319 94.0831C42.7967 93.5551 42.4415 93.0687 42.1151 92.6303C41.4559 91.7599 40.9791 91.0207 40.4895 90.2975C39.5519 88.8223 38.5759 87.3663 36.8863 84.3039C36.4767 83.5295 36.1183 82.8543 35.7983 82.2495C35.4911 81.6351 35.2223 81.0975 34.9759 80.6047C34.7167 80.1183 34.5183 79.6671 34.3135 79.2447C34.1087 78.8223 33.9199 78.4255 33.7279 78.0287C33.5519 77.6223 33.3791 77.2159 33.1935 76.7839C33.0111 76.3487 32.8095 75.8943 32.6367 75.3663C32.4543 74.8415 32.2527 74.2655 32.0415 73.6063C31.8591 72.9375 31.6511 72.1855 31.4367 71.3215C31.2607 70.4479 31.1039 69.6831 30.9823 68.9983C30.8895 68.3071 30.8127 67.6991 30.7487 67.1455C30.6719 66.5951 30.6719 66.0863 30.6399 65.6159C30.6175 65.1423 30.5983 64.6975 30.5855 64.2495C30.5919 63.8015 30.5983 63.3567 30.6079 62.8831C30.6175 62.4095 30.6079 61.9039 30.6431 61.3631C30.6655 60.8159 30.6911 60.2175 30.7199 59.5359C30.7359 58.8543 30.8159 58.0895 30.8639 57.2127C30.9023 56.3391 31.0175 55.5711 31.0783 54.8863C31.1167 54.5439 31.1391 54.2207 31.1775 53.9167C31.2223 53.6127 31.2607 53.3247 31.2991 53.0495C31.3791 52.5023 31.4303 52.0063 31.5103 51.5391C31.5935 51.0719 31.6735 50.6335 31.7535 50.1951C31.7919 49.9743 31.8335 49.7535 31.8719 49.5327C31.9263 49.3119 31.9807 49.0847 32.0351 48.8543C32.1535 48.3903 32.2655 47.8975 32.4191 47.3535C32.5951 46.8159 32.7903 46.2207 33.0207 45.5519C33.1583 45.2223 33.3055 44.8735 33.4591 44.4991C33.6159 44.1279 33.7791 43.7311 33.9999 43.3247C34.2111 42.9151 34.4095 42.5311 34.5983 42.1727C34.8127 41.8239 35.0143 41.4975 35.2063 41.1903C35.5711 40.5663 35.9871 40.0703 36.3295 39.5999C37.0559 38.6879 37.6991 38.0031 38.3935 37.3727C38.7231 37.0431 39.0943 36.7519 39.4815 36.4383C39.6767 36.2847 39.8687 36.1151 40.0863 35.9583C40.3039 35.8047 40.5311 35.6447 40.7711 35.4783C41.2383 35.1263 41.8047 34.8191 42.4223 34.4351C42.7359 34.2591 43.0655 34.0895 43.4207 33.8975C43.7791 33.7183 44.1599 33.5295 44.5695 33.3375C46.2207 32.5823 47.5295 32.1631 48.6303 31.8655C49.1871 31.7343 49.6863 31.6031 50.1695 31.5231C50.4095 31.4815 50.6431 31.4399 50.8735 31.3983C51.1071 31.3695 51.3375 31.3375 51.5647 31.3087C52.0191 31.2383 52.4895 31.2287 52.9823 31.1871C53.4815 31.1839 54.0031 31.1519 54.5919 31.1871C55.7631 31.2447 57.2031 31.3791 59.0431 32.0319C60.6655 32.6495 61.8847 33.1135 62.8991 33.5007C63.9199 33.8911 64.7519 34.2111 65.5903 34.5887C66.4255 34.9663 67.2767 35.3887 68.2687 36.0607C69.2639 36.7295 70.3487 37.6767 71.5711 38.9791C72.7967 40.2975 73.6191 41.3535 74.2879 42.2399C74.9503 43.1295 75.4463 43.8591 75.9327 44.5919C76.4159 45.3279 76.8831 46.0671 77.4527 46.9951C77.8751 47.6959 78.3807 48.5375 79.0527 49.6575C79.0847 49.6991 79.1103 49.7759 79.1455 49.7631C79.1775 49.7375 79.2031 49.7087 79.2287 49.6799C79.2447 49.6639 79.2575 49.6511 79.2703 49.6351L79.2895 49.6159L79.3311 49.5551C79.3951 49.4655 79.4559 49.3759 79.5167 49.2895C80.0127 48.5887 80.4415 47.9839 80.8927 47.3471C81.8111 46.0831 82.7903 44.6879 84.6655 42.2815C85.7439 40.9087 86.6079 39.9167 87.3503 39.1039C88.0927 38.2943 88.7135 37.6639 89.3535 37.0527C89.9935 36.4415 90.6495 35.8399 91.5039 35.1231C92.3647 34.4095 93.4143 33.5647 94.9599 32.5951C96.5151 31.6351 97.7919 31.0463 98.9023 30.6399C100.013 30.2335 100.947 29.9871 101.91 29.8335C102.409 29.7535 102.845 29.7151 103.318 29.6671C103.792 29.6127 104.301 29.5935 104.864 29.5647C105.993 29.5359 107.357 29.5231 109.171 29.7663C110.985 30.0095 112.326 30.3711 113.434 30.6975C114.534 31.0527 115.405 31.3887 116.249 31.7791C117.094 32.1727 117.926 32.6047 118.905 33.2447C119.149 33.4079 119.405 33.5775 119.677 33.7567C119.936 33.9551 120.208 34.1631 120.496 34.3871C120.79 34.6047 121.078 34.8607 121.385 35.1359C121.693 35.4111 122.025 35.6959 122.342 36.0383C122.505 36.2047 122.662 36.3679 122.816 36.5247C122.893 36.6047 122.966 36.6815 123.04 36.7583C123.113 36.8415 123.184 36.9247 123.254 37.0047C123.542 37.3279 123.779 37.6447 124.009 37.9423C124.445 38.5439 124.803 39.0879 125.091 39.5871C125.677 40.5855 126.061 41.3983 126.432 42.2079C126.8 43.0143 127.139 43.8207 127.558 44.8127C127.766 45.3055 127.997 45.8463 128.256 46.4607C128.387 46.7647 128.528 47.0847 128.675 47.4271C128.749 47.5967 128.829 47.7727 128.909 47.9519C128.995 48.1535 129.082 48.3615 129.171 48.5759C129.882 50.3327 130.157 51.7183 130.352 52.8447C130.538 53.9775 130.617 54.8735 130.681 55.7631C130.745 56.6527 130.774 57.5327 130.794 58.6175C130.797 59.1551 130.803 59.7503 130.809 60.4223C130.809 61.0975 130.819 61.8207 130.794 62.7167C130.781 63.1583 130.784 63.5743 130.758 63.9615C130.733 64.3519 130.71 64.7167 130.688 65.0591C130.653 65.7503 130.57 66.3519 130.512 66.8991C130.458 67.4495 130.377 67.9391 130.304 68.4031C130.227 68.8671 130.169 69.3023 130.077 69.7343C129.99 70.1663 129.907 70.5983 129.814 71.0591C129.712 71.5167 129.6 71.9967 129.478 72.5343C129.225 73.6031 128.896 74.8831 128.39 76.5663C128.122 77.4015 127.901 78.1407 127.67 78.7871C127.562 79.1135 127.459 79.4175 127.363 79.7087C127.261 79.9967 127.161 80.2687 127.069 80.5247C126.886 81.0431 126.723 81.5103 126.557 81.9487C126.39 82.3871 126.249 82.8031 126.083 83.2127C125.917 83.6223 125.753 84.0319 125.577 84.4671C125.395 84.8991 125.184 85.3471 124.954 85.8495C124.723 86.3519 124.435 86.8863 124.118 87.4975C123.958 87.8047 123.773 88.1183 123.581 88.4575C123.385 88.7967 123.187 89.1519 122.937 89.5391C121.974 91.0719 121.187 92.1279 120.521 93.0111C119.859 93.8911 119.302 94.5727 118.742 95.2511C118.179 95.9263 117.603 96.5919 116.857 97.4079C116.105 98.2207 115.197 99.1839 113.846 100.4C113.51 100.704 113.168 100.979 112.857 101.238C112.521 101.491 112.224 101.731 111.91 101.945C111.75 102.051 111.597 102.157 111.446 102.256C111.373 102.304 111.299 102.352 111.229 102.4C111.165 102.438 111.104 102.48 111.04 102.518C110.793 102.672 110.56 102.819 110.336 102.957C109.443 103.513 108.733 103.958 108.019 104.403C107.305 104.851 106.598 105.309 105.712 105.901C104.822 106.489 103.782 107.225 102.262 108.192C100.726 109.155 99.3183 109.776 98.0863 110.073C96.8511 110.374 95.8559 110.419 94.8959 110.425C93.9231 110.384 92.9375 110.329 91.7471 110.016C90.5631 109.718 89.1487 109.216 87.5263 108.176C85.9103 107.126 84.9119 106.115 84.1279 105.261C83.7247 104.838 83.4175 104.425 83.1039 104.048C82.8159 103.654 82.5279 103.296 82.2815 102.915C81.7567 102.166 81.2927 101.392 80.7391 100.413C80.1919 99.4303 79.5839 98.2303 78.8959 96.5919C77.8463 94.0511 77.6447 92.6239 77.7119 91.8463C77.7951 91.0655 78.1919 90.9151 78.6751 90.8031C79.1647 90.6911 79.6415 90.6143 80.1695 91.1615C80.7135 91.7055 81.2671 92.8895 82.2239 95.1967C82.8511 96.6847 83.3919 97.7631 83.8719 98.6335C84.3583 99.5007 84.7583 100.189 85.2063 100.832C85.4175 101.165 85.6607 101.469 85.9007 101.808C86.1631 102.125 86.4223 102.483 86.7519 102.829C87.3919 103.539 88.2079 104.361 89.4463 105.165C90.6847 105.961 91.7023 106.333 92.5663 106.573C93.4303 106.829 94.1567 106.889 94.8863 106.953C95.6287 106.976 96.3647 106.969 97.2255 106.784C98.0863 106.595 99.0847 106.195 100.451 105.353C101.817 104.489 102.851 103.728 103.715 103.107C104.582 102.477 105.277 101.971 105.971 101.469C106.669 100.966 107.373 100.461 108.269 99.8591C109.235 99.2095 110.08 98.6911 111.293 97.5967C112.486 96.5279 113.334 95.6287 114.025 94.8671C114.713 94.1023 115.245 93.4719 115.766 92.8287C116.281 92.1855 116.797 91.5359 117.411 90.7103C118.022 89.8847 118.761 88.8863 119.616 87.5295C119.83 87.1967 120.022 86.8639 120.205 86.5471C120.387 86.2335 120.563 85.9423 120.72 85.6607C121.024 85.0943 121.305 84.6047 121.539 84.1471C121.773 83.6895 121.981 83.2767 122.179 82.8863C122.365 82.4927 122.541 82.1215 122.717 81.7471C122.899 81.3791 123.049 80.9951 123.229 80.5983C123.315 80.3967 123.405 80.1919 123.497 79.9775C123.584 79.7599 123.673 79.5327 123.769 79.2959C123.865 79.0559 123.965 78.8063 124.07 78.5407C124.166 78.2719 124.269 77.9871 124.377 77.6863C124.605 77.0847 124.819 76.3999 125.069 75.6191C125.305 74.8351 125.501 74.1439 125.667 73.5231C125.817 72.8991 125.968 72.3551 126.074 71.8559C126.182 71.3567 126.278 70.9055 126.371 70.4799C126.448 70.0511 126.521 69.6479 126.595 69.2447C126.675 68.8415 126.726 68.4351 126.787 68.0063C126.845 67.5743 126.921 67.1199 126.966 66.6111C127.072 65.5935 127.187 64.3679 127.213 62.7295C127.235 61.9231 127.232 61.1615 127.238 60.5023C127.245 59.8431 127.248 59.2671 127.254 58.7391C127.261 57.6959 127.264 56.8671 127.238 56.0543C127.213 55.2415 127.174 54.4319 127.04 53.4527C126.899 52.4767 126.678 51.3183 126.115 49.8911C126.041 49.7151 125.971 49.5423 125.901 49.3759C125.817 49.1903 125.737 49.0111 125.661 48.8383C125.507 48.4927 125.363 48.1663 125.225 47.8623C124.953 47.2575 124.717 46.7231 124.499 46.2367C124.064 45.2767 123.702 44.5247 123.331 43.7951C122.957 43.0655 122.576 42.3487 122.057 41.5135C121.801 41.0911 121.501 40.6527 121.149 40.1759C120.787 39.7023 120.381 39.2191 119.814 38.6623C119.677 38.5247 119.549 38.3839 119.417 38.2591C119.28 38.1375 119.149 38.0223 119.017 37.9071C118.758 37.6831 118.525 37.4591 118.275 37.2863C118.032 37.1039 117.805 36.9343 117.59 36.7711C117.37 36.6175 117.149 36.4863 116.947 36.3551C116.547 36.0831 116.153 35.8943 115.789 35.6991C115.433 35.4943 115.066 35.3631 114.714 35.1999C114.003 34.8959 113.27 34.6431 112.345 34.3615C111.411 34.1055 110.285 33.8079 108.729 33.5935C107.174 33.3823 105.977 33.3535 104.985 33.3119C104.486 33.3119 104.035 33.2863 103.609 33.2991C103.19 33.3087 102.758 33.2991 102.416 33.3215C101.689 33.3599 100.953 33.4655 100.048 33.7375C99.1423 34.0063 98.0639 34.4479 96.7135 35.2735C95.3695 36.1087 94.4383 36.8927 93.6895 37.5679C92.9439 38.2495 92.3807 38.8415 91.8335 39.4495C91.2863 40.0575 90.7551 40.6783 90.0959 41.4623C89.4367 42.2495 88.6495 43.1967 87.6255 44.4991C85.8047 46.8287 84.8159 48.1599 83.8783 49.3631C83.4111 49.9679 82.9695 50.5471 82.4607 51.2351C82.3967 51.3215 82.3327 51.4079 82.2655 51.4975C82.1631 51.6415 82.0575 51.7887 81.9519 51.9391C81.7119 52.2783 81.4559 52.6399 81.1839 52.9983C80.9119 53.3471 80.6207 53.7215 80.2975 53.9679C79.9711 54.2303 79.6447 54.3071 79.2991 54.4511C79.2607 54.4607 79.2159 54.4639 79.1711 54.4703C79.1487 54.4735 79.1263 54.4767 79.1007 54.4767H79.0623C79.0495 54.4447 79.0367 54.4671 79.0239 54.4607C78.9151 54.4543 78.8255 54.4415 78.7359 54.4255C78.5599 54.3807 78.3935 54.3071 78.2143 54.2047C78.0383 54.0991 77.8495 53.9615 77.6639 53.7759C77.4783 53.5903 77.2927 53.3535 77.1103 53.0943C76.8991 52.7903 76.7007 52.4735 76.5119 52.1695C76.3359 51.8783 76.1631 51.5935 75.9967 51.3215C75.8015 51.0015 75.6191 50.7007 75.4463 50.4191C75.1007 49.8559 74.7935 49.3695 74.5119 48.9311C73.9455 48.0543 73.4719 47.3695 72.9887 46.6975C72.5055 46.0255 72.0095 45.3631 71.3791 44.5535C70.7423 43.7503 69.9743 42.7903 68.8767 41.6031C67.7631 40.4127 66.8991 39.6479 66.1279 39.1135C65.3599 38.5727 64.6879 38.2175 63.9807 37.8751C63.2767 37.5359 62.5279 37.2255 61.5711 36.8383C61.0879 36.6463 60.5567 36.4351 59.9519 36.1951C59.6447 36.0767 59.3215 35.9487 58.9759 35.8143C58.8031 35.7471 58.6239 35.6767 58.4383 35.6063C58.3455 35.5711 58.2527 35.5327 58.1567 35.4975C58.0575 35.4591 57.9647 35.4207 57.8879 35.3983C56.5759 34.9247 55.4783 34.7839 54.5567 34.7039C54.0959 34.6559 53.6703 34.6591 53.2671 34.6463C52.8639 34.6559 52.4799 34.6495 52.0959 34.6815C51.3247 34.7263 50.5471 34.8287 49.5839 35.0367C48.6239 35.2639 47.4751 35.6063 46.0191 36.2655C45.6543 36.4287 45.3215 36.6047 45.0047 36.7583C44.6943 36.9279 44.4063 37.0879 44.1311 37.2383C43.8751 37.4015 43.6351 37.5551 43.4079 37.6991C43.2959 37.7727 43.1839 37.8431 43.0783 37.9135C42.9759 37.9903 42.8799 38.0671 42.7807 38.1407C42.3967 38.4351 42.0447 38.6911 41.7503 38.9823C41.4495 39.2639 41.1519 39.5071 40.8991 39.8047C40.3615 40.3583 39.8655 40.9567 39.2863 41.7343C39.1487 41.9327 39.0015 42.1439 38.8479 42.3647C38.7711 42.4767 38.6911 42.5887 38.6079 42.7071C38.5343 42.8319 38.4575 42.9599 38.3807 43.0911C38.2239 43.3535 38.0543 43.6287 37.8783 43.9263C37.7119 44.2303 37.5519 44.5631 37.3695 44.9119C37.2799 45.0879 37.1871 45.2543 37.1103 45.4239C37.0367 45.5967 36.9663 45.7631 36.8991 45.9231C36.7615 46.2463 36.6335 46.5471 36.5119 46.8351C36.2975 47.4207 36.1311 47.9455 35.9679 48.4191C35.8175 48.8959 35.7183 49.3407 35.6031 49.7535C35.5487 49.9615 35.4975 50.1599 35.4463 50.3583C35.3983 50.5567 35.3663 50.7583 35.3247 50.9567C35.2479 51.3535 35.1679 51.7503 35.0847 52.1727C34.9983 52.5951 34.9503 53.0527 34.8703 53.5551C34.7935 54.0575 34.7007 54.6079 34.6463 55.2479C34.6111 55.5647 34.5759 55.9039 34.5375 56.2623C34.5183 56.4415 34.4959 56.6271 34.4767 56.8191C34.4639 57.0111 34.4511 57.2095 34.4383 57.4175C34.3935 58.2399 34.3199 58.9535 34.3039 59.5999C34.2815 60.2463 34.2623 60.8127 34.2463 61.3311C34.2143 61.8527 34.2271 62.3039 34.2271 62.7359C34.2271 63.1679 34.2271 63.5711 34.2271 63.9775C34.3231 65.5935 34.3359 67.2415 35.0527 70.4383C35.2447 71.2351 35.4303 71.9263 35.5839 72.5471C35.7567 73.1647 35.9295 73.7023 36.0703 74.1951C36.2079 74.6911 36.3615 75.1263 36.5023 75.5391C36.6431 75.9551 36.7743 76.3423 36.9055 76.7327C37.0463 77.1199 37.2031 77.5039 37.3599 77.9103C37.5231 78.3167 37.6767 78.7551 37.8975 79.2223C38.1119 79.6927 38.3455 80.2111 38.6143 80.7999C38.9119 81.3759 39.2415 82.0191 39.6223 82.7551C41.2223 85.6607 42.2847 86.9599 43.2959 88.2687C43.8239 88.9087 44.3327 89.5615 45.0047 90.3487C45.3375 90.7455 45.6863 91.1903 46.1119 91.6767C46.5311 92.1663 46.9855 92.7295 47.5391 93.3439C47.8111 93.6543 48.0671 93.9455 48.3071 94.2207C48.5567 94.4895 48.7871 94.7391 49.0079 94.9759C49.4399 95.4559 49.8367 95.8623 50.2015 96.2271C50.9151 96.9759 51.5199 97.5327 52.1087 98.1119C52.7199 98.6623 53.3151 99.2351 54.1055 99.8879C54.3007 100.054 54.5087 100.227 54.7263 100.413C54.9503 100.589 55.1871 100.774 55.4367 100.969C55.9327 101.373 56.5183 101.779 57.1775 102.259C59.8591 104.07 61.3055 104.765 62.6559 105.229C62.8223 105.28 62.9951 105.347 63.1583 105.389C63.3183 105.424 63.4783 105.459 63.6479 105.494C63.7375 105.52 63.8079 105.523 63.8783 105.526C63.9519 105.533 64.0255 105.539 64.1023 105.545L64.2175 105.558C64.2687 105.558 64.3231 105.552 64.3775 105.552C64.4863 105.545 64.5983 105.539 64.7135 105.533C65.6255 105.485 66.7199 105.341 68.0447 104.781C69.3631 104.211 70.2495 103.542 70.9471 102.934C71.6383 102.313 72.1631 101.766 72.6399 101.165C73.1167 100.563 73.5775 99.9359 74.0703 99.0847C74.5631 98.2335 75.1071 97.1679 75.6671 95.6575C76.0895 94.4831 76.4127 93.5839 76.6591 92.8927C76.9183 92.2015 77.1359 91.7247 77.3471 91.4047C77.7663 90.7647 78.1759 90.7487 78.6751 90.8159C79.1647 90.8831 79.5455 91.0431 79.6543 91.8591C79.7055 92.2687 79.6895 92.8415 79.5519 93.6415C79.4111 94.4415 79.1583 95.4719 78.6751 96.7711L78.6623 96.7551Z" fill="#141413"/>
<path d="M79.6415 48.6655C81.1295 46.3839 81.9039 45.2639 82.6783 44.1439C83.4495 43.0207 84.2239 41.8975 85.6223 39.5583C87.0111 37.2127 87.7055 36.0415 88.3999 34.8703C89.0879 33.6959 89.7791 32.5215 91.0687 30.1215C92.3519 27.7183 92.9087 26.4767 93.4655 25.2319C94.0159 23.9871 94.5695 22.7455 95.7151 20.2879C96.8511 17.8271 97.3535 16.5727 97.8463 15.3183C98.0895 14.6911 98.3295 14.0639 98.6175 13.2831C98.6879 13.0879 98.7615 12.8831 98.8415 12.6655C98.8767 12.5631 98.9151 12.4607 98.9535 12.3551H98.9503C98.9503 12.3551 98.9791 12.3263 98.9503 12.2943C98.9471 12.2911 98.9439 12.2847 98.9375 12.2815C98.9343 12.2815 98.9279 12.2783 98.8671 12.2879L98.7263 12.3071C98.5407 12.3327 98.3647 12.3583 98.1919 12.3839C97.8463 12.4351 97.5199 12.4831 97.1935 12.5407C95.8943 12.7647 94.5695 12.9951 92.0831 13.9103C89.6159 14.8639 88.4607 15.5039 87.3279 16.1567C86.7679 16.4927 86.2079 16.8287 85.5359 17.2799C85.1903 17.4943 84.8415 17.7695 84.4223 18.0543C84.2175 18.2015 84.0095 18.3679 83.7855 18.5407C83.6735 18.6271 83.5551 18.7167 83.4367 18.8063C83.3215 18.9023 83.2031 19.0047 83.0815 19.1071C82.5823 19.5103 82.1823 19.9007 81.8175 20.2399C81.4623 20.5887 81.1711 20.9119 80.8959 21.1967C80.6431 21.4975 80.4127 21.7695 80.1983 22.0287C79.9999 22.2975 79.8111 22.5503 79.6255 22.8031C79.4303 23.0495 79.2831 23.3279 79.0975 23.6031C79.0111 23.7439 78.9087 23.8847 78.8223 24.0383C78.7359 24.1951 78.6495 24.3583 78.5535 24.5279C78.4639 24.7007 78.3551 24.8735 78.2623 25.0687C78.1727 25.2639 78.0767 25.4719 77.9743 25.6927C77.9231 25.8015 77.8687 25.9167 77.8143 26.0319C77.7727 26.1407 77.7311 26.2527 77.6895 26.3711C77.6479 26.4895 77.5967 26.6015 77.5615 26.7327C77.5263 26.8639 77.4879 27.0015 77.4495 27.1423C77.1519 28.2879 77.0719 29.2511 76.9983 30.0415C76.9407 30.8415 76.9119 31.4911 76.9055 32.1471C76.8959 33.4591 76.9151 34.7871 77.2479 37.4495C77.6095 40.1119 77.9199 41.4335 78.2175 42.7487C78.5247 44.0639 78.8383 45.3823 79.4911 48.0095C79.9807 49.9487 80.1215 51.0815 80.0095 51.7759C79.9007 52.4671 79.5455 52.7135 79.1007 52.8511C78.6559 52.9887 78.2463 52.9663 77.8111 52.4127C77.3759 51.8591 76.9087 50.7775 76.4063 48.7871C75.7375 46.0927 75.3791 44.7487 75.0239 43.3983C74.6783 42.0447 74.3231 40.6911 73.9423 37.9007C73.5903 35.1007 73.6159 33.6607 73.6703 32.2239C73.7023 31.5039 73.7535 30.7839 73.8367 29.8783C73.9391 28.9695 74.0319 27.8751 74.4095 26.3807C74.5119 26.0063 74.6047 25.6575 74.7391 25.3247C74.7999 25.1583 74.8607 24.9983 74.9183 24.8447C74.9823 24.7039 75.0463 24.5695 75.1071 24.4383C75.2319 24.1759 75.3471 23.9295 75.4559 23.6959C75.5647 23.4623 75.6959 23.2575 75.8047 23.0527C76.0319 22.6495 76.2335 22.2847 76.4607 21.9615C76.6815 21.6383 76.8703 21.3183 77.1007 21.0303C77.3247 20.7391 77.5487 20.4447 77.7855 20.1375C78.0415 19.8431 78.3103 19.5295 78.6111 19.1839C78.9247 18.8543 79.2703 18.4895 79.6767 18.0895C80.0927 17.7023 80.5503 17.2575 81.1135 16.8031C81.2511 16.6847 81.3855 16.5727 81.5167 16.4639C81.6511 16.3583 81.7791 16.2591 81.9071 16.1599C82.1599 15.9647 82.3935 15.7791 82.6175 15.6063C83.0751 15.2799 83.4655 14.9695 83.8367 14.7199C84.5695 14.1983 85.1679 13.7983 85.7695 13.4015C86.9823 12.6303 88.2207 11.8655 90.8927 10.8351C93.5743 9.84627 94.9823 9.57107 96.3807 9.29587C96.7295 9.22867 97.0815 9.16787 97.4559 9.10387C97.6415 9.07187 97.8367 9.03987 98.0351 9.00787C98.1471 8.98867 98.2623 8.96947 98.3807 8.95027C98.5631 8.92147 98.7519 8.89267 98.9439 8.86387C99.3279 8.80627 99.7343 8.73587 100.147 8.70067C100.352 8.68467 100.576 8.64307 100.781 8.64307C100.979 8.64627 101.187 8.65267 101.398 8.65587C101.603 8.66867 101.763 8.72307 101.955 8.75827C102.054 8.77427 102.105 8.82547 102.185 8.85747C102.259 8.89587 102.339 8.92787 102.4 8.97587C102.464 9.02067 102.531 9.06227 102.595 9.11987C102.672 9.18387 102.72 9.27987 102.761 9.35347C102.841 9.51027 102.902 9.67987 102.944 9.88147C103.033 10.2815 102.982 10.7871 102.854 11.2895C102.726 11.7919 102.573 12.2783 102.416 12.7359C102.336 12.9631 102.259 13.1839 102.182 13.4015C102.131 13.5391 102.083 13.6735 102.035 13.8015C101.949 14.0287 101.869 14.2463 101.789 14.4511C101.475 15.2703 101.209 15.9135 100.941 16.5567C100.4 17.8367 99.8527 19.1167 98.6943 21.6287C97.5231 24.1375 96.9119 25.3791 96.3039 26.6207C95.6895 27.8591 95.0751 29.0975 93.7759 31.5359C92.4671 33.9711 91.8463 35.2063 91.2255 36.4415C90.6015 37.6767 89.9775 38.9119 88.5631 41.2895C87.1391 43.6607 86.4287 44.8447 85.7151 46.0287C84.9983 47.2095 84.2815 48.3935 82.7711 50.7071C80.5279 54.1183 79.8591 53.3695 79.0911 52.8511C78.3103 52.3263 77.4367 52.0319 79.6479 48.6687L79.6415 48.6655Z" fill="#141413"/>
<path d="M76.8383 51.6415C76.5119 50.4447 76.4095 49.8303 76.3039 49.2159C76.2527 48.9087 76.2015 48.6015 76.1215 48.2207C76.0799 48.0319 76.0383 47.8207 75.9743 47.5871C75.9071 47.3535 75.8271 47.0943 75.7343 46.7999C75.3567 45.6191 75.1871 45.0239 75.0175 44.4255C74.9311 44.1279 74.8447 43.8303 74.7391 43.4559C74.6271 43.0847 74.5023 42.6367 74.2751 42.0607C73.8399 40.9023 73.5615 40.3455 73.2863 39.7919C73.1487 39.5135 73.0111 39.2383 72.8511 38.8863C72.7743 38.7103 72.6911 38.5151 72.5951 38.2943C72.4927 38.0767 72.3807 37.8335 72.2559 37.5519C71.7631 36.4287 71.4911 35.8751 71.2223 35.3247C71.0847 35.0495 70.9567 34.7711 70.7839 34.4319C70.6015 34.0959 70.3871 33.6927 70.1087 33.1519C69.5487 32.0703 69.3759 31.4687 69.1551 30.8927C68.9279 30.3231 68.6975 29.7503 68.0735 28.7007C67.9135 28.4415 67.7855 28.2047 67.6479 28.0127C67.5071 27.8207 67.3855 27.6511 67.2735 27.5007C67.0431 27.1999 66.8607 26.9567 66.6751 26.7167C66.3007 26.2399 65.9583 25.7375 65.1807 24.8191C64.7999 24.3519 64.5151 24.0031 64.2751 23.7119C64.0319 23.4239 63.8111 23.2255 63.6031 23.0079C63.3951 22.7935 63.1839 22.5791 62.9247 22.3135C62.7967 22.1791 62.6527 22.0319 62.4927 21.8623C62.3199 21.7055 62.1279 21.5327 61.9071 21.3311C61.4655 20.9311 61.1423 20.6239 60.8735 20.3615C60.5919 20.1151 60.3679 19.9199 60.1439 19.7247C59.9199 19.5263 59.6959 19.3279 59.4111 19.0847C59.1231 18.8479 58.7455 18.6015 58.2527 18.2623C56.2175 16.9727 56.1407 17.1423 53.9519 16.0063C53.1423 15.5967 52.7231 15.1807 52.5983 14.7871C52.4671 14.3871 52.6047 13.9935 52.8191 13.5775C53.0335 13.1615 53.2671 12.8543 53.6479 12.7487C54.0351 12.6463 54.5439 12.7391 55.3919 13.1679C57.6575 14.3455 57.8463 14.0479 60.0831 15.4687C60.6335 15.8431 61.0431 16.1311 61.3535 16.4063C61.6639 16.6879 61.8975 16.9279 62.1311 17.1679C62.3647 17.4079 62.6015 17.6415 62.8991 17.9263C63.1839 18.2271 63.5359 18.5759 64.0223 19.0175C64.2655 19.2415 64.4767 19.4335 64.6655 19.6095C64.8415 19.7983 64.9951 19.9615 65.1327 20.1119C65.4079 20.4159 65.6287 20.6591 65.8495 20.9023C66.0639 21.1487 66.2975 21.3823 66.5567 21.6991C66.8127 22.0159 67.1167 22.3999 67.5263 22.9087C68.3679 23.9071 68.7903 24.3999 69.2447 24.8767C69.4719 25.1167 69.6959 25.3567 69.9615 25.6703C70.0927 25.8271 70.2335 26.0031 70.3903 26.2079C70.5471 26.4127 70.6847 26.6591 70.8543 26.9375C71.5231 28.0543 71.7919 28.6527 72.0575 29.2447C72.3199 29.8399 72.5247 30.4575 73.1199 31.6031C73.4111 32.1759 73.6287 32.6079 73.8111 32.9663C73.9839 33.3279 74.0991 33.6287 74.2271 33.9199C74.4799 34.5087 74.7359 35.0975 75.2415 36.2719C75.3695 36.5663 75.4847 36.8223 75.5839 37.0527C75.6735 37.2863 75.7535 37.4911 75.8271 37.6767C75.9743 38.0479 76.0895 38.3455 76.2047 38.6431C76.4383 39.2383 76.6751 39.8335 77.1231 41.0303C77.3471 41.6287 77.5167 42.0767 77.6575 42.4511C77.8047 42.8223 77.9327 43.1167 78.0639 43.4079C78.3231 43.9935 78.5823 44.5823 78.9727 45.8015C79.0719 46.1055 79.1583 46.3711 79.2351 46.6079C79.3055 46.8479 79.3663 47.0559 79.4239 47.2479C79.5391 47.6287 79.6319 47.9359 79.7215 48.2399C79.9071 48.8511 80.0959 49.4591 80.4319 50.6911C80.9279 52.5119 79.9775 52.6303 79.0719 52.8575C78.1663 53.0847 77.3087 53.4143 76.8255 51.6447L76.8383 51.6415Z" fill="#141413"/>
<path d="M142.736 151.049C126.576 151.049 126.576 150.8 110.419 150.8C99.6415 150.77 88.8639 150.741 78.0863 150.713C70.0031 150.713 65.9615 150.777 61.9167 150.841C59.8943 150.867 57.8751 150.896 55.3471 150.928C54.7167 150.934 54.0511 150.937 53.3503 150.944C52.9983 150.944 52.6367 150.947 52.2655 150.95C51.8943 150.947 51.5103 150.925 51.1167 150.909C49.5359 150.841 47.7663 150.765 45.7439 150.678C41.6991 150.502 38.6655 150.371 36.1375 150.262C34.8735 150.211 33.7343 150.166 32.6623 150.121C32.5279 150.115 32.3935 150.112 32.2623 150.105H32.1631C32.1631 150.105 32.1599 150.105 32.1567 150.102C32.1567 150.102 32.1535 150.102 32.1503 150.102C31.9231 150.144 31.7023 150.182 31.4783 150.224C30.9407 150.333 30.3935 150.381 29.8527 150.451C29.3119 150.512 28.7615 150.537 28.2047 150.566C27.6447 150.566 27.0751 150.592 26.4863 150.547C25.3119 150.499 24.0575 150.333 22.7039 149.993C21.3503 149.657 19.8975 149.139 18.3647 148.371C17.6095 147.977 16.8127 147.542 16.0223 147.027C15.6191 146.774 15.2255 146.509 14.8063 146.214C14.5983 146.064 14.3871 145.907 14.1727 145.753C14.0671 145.673 13.9583 145.597 13.8495 145.517C13.7439 145.43 13.6383 145.344 13.5327 145.257C11.8239 143.878 10.5151 142.438 9.5007 141.037C8.4863 139.635 7.7695 138.275 7.2223 136.998C6.9823 136.345 6.7295 135.737 6.5663 135.123C6.4831 134.819 6.3775 134.525 6.3167 134.227C6.2527 133.929 6.1887 133.638 6.1247 133.35C6.0543 133.062 6.0223 132.774 5.9775 132.493C5.9391 132.208 5.8975 131.929 5.8591 131.651C5.8239 131.091 5.7599 130.541 5.7567 129.99C5.7599 129.44 5.7343 128.889 5.7887 128.336C5.8079 128.057 5.8271 127.779 5.8463 127.497C5.8687 127.216 5.9103 126.941 5.9423 126.659C6.0863 125.529 6.2943 124.336 6.6463 123.027C6.9983 121.721 7.4943 120.304 8.2687 118.777C9.0367 117.257 10.0991 115.625 11.6255 114.048C12.3839 113.257 13.1679 112.585 13.9391 112.013C14.1343 111.872 14.3199 111.725 14.5119 111.593C14.7071 111.465 14.8991 111.337 15.0847 111.213C15.4559 110.953 15.8431 110.752 16.2079 110.531C17.6863 109.699 19.0655 109.139 20.3327 108.713C21.6031 108.297 22.7647 107.984 23.8751 107.773C24.4255 107.651 24.9663 107.581 25.4975 107.485C26.0287 107.421 26.5535 107.337 27.0783 107.289C27.6031 107.241 28.1279 107.184 28.6623 107.161C28.9279 107.145 29.1967 107.133 29.4687 107.117C29.7471 107.11 30.0287 107.104 30.3167 107.097C30.4607 107.097 30.6047 107.091 30.7487 107.088C30.8223 107.088 30.8895 107.085 30.9855 107.088L31.2031 107.097C31.4783 107.107 31.7567 107.12 32.0415 107.129C32.6143 107.149 33.2095 107.168 33.8335 107.187C35.0879 107.222 36.4639 107.257 38.0287 107.277C39.5903 107.293 41.3439 107.302 43.3055 107.229C43.7983 107.213 44.2655 107.184 44.7199 107.152C44.9503 107.142 45.1583 107.113 45.3759 107.094C45.6031 107.075 45.8271 107.053 46.0511 107.033C47.0463 106.941 47.8687 106.931 48.6847 106.896C49.4815 106.877 50.2303 106.861 50.9407 106.845C51.6479 106.835 52.3135 106.829 52.9471 106.819C55.4847 106.793 57.5103 106.79 59.5359 106.79C63.5839 106.79 67.6319 106.806 75.7247 106.909C83.8239 107.021 87.8591 107.139 91.9007 107.216C95.9423 107.296 99.9839 107.392 108.061 107.392C112.096 107.385 115.123 107.337 117.616 107.238C118.246 107.222 118.819 107.174 119.379 107.142C119.965 107.104 120.525 107.069 121.069 107.033C122.166 106.976 123.187 106.931 124.205 106.902C128.278 106.784 132.333 106.729 140.435 106.797C152.4 106.928 153.99 107.721 153.971 108.643C153.952 109.587 152.339 110.109 140.406 109.977C132.342 109.907 128.307 110.003 124.304 110.16C123.302 110.195 122.307 110.253 121.261 110.313C120.736 110.352 120.195 110.39 119.632 110.432C119.04 110.47 118.409 110.525 117.776 110.544C115.213 110.662 112.176 110.717 108.125 110.726C100.025 110.726 95.9839 110.579 91.9423 110.448C87.9007 110.317 83.8527 110.15 75.7823 110.038C67.7087 109.952 63.6735 109.91 59.6383 109.865C57.6223 109.853 55.6063 109.843 53.0879 109.856C51.8303 109.862 50.4479 109.878 48.8863 109.913C48.4991 109.926 48.1023 109.942 47.6927 109.958C47.4911 109.968 47.2735 109.971 47.0751 109.984C46.8767 110 46.6751 110.013 46.4703 110.029C46.3679 110.035 46.2655 110.045 46.1599 110.051C46.0415 110.061 45.9263 110.073 45.8047 110.083C45.5615 110.105 45.3151 110.128 45.0655 110.15C44.5759 110.179 44.0639 110.217 43.5487 110.233C41.4815 110.313 39.6991 110.31 38.1055 110.301C36.5151 110.291 35.1167 110.269 33.8463 110.243C33.2095 110.23 32.6079 110.217 32.0287 110.205C31.7375 110.198 31.4527 110.192 31.1743 110.185C31.0463 110.185 30.9215 110.179 30.7935 110.176C30.6655 110.182 30.5407 110.185 30.4159 110.192C29.9167 110.211 29.4335 110.23 28.9375 110.272C28.4447 110.301 27.9679 110.355 27.4879 110.409C25.5743 110.633 23.6863 111.001 21.4591 111.747C20.3487 112.125 19.1583 112.617 17.9039 113.325C16.6591 114.038 15.3311 114.953 14.0639 116.246C13.4303 116.893 12.8863 117.549 12.4351 118.205C11.9743 118.857 11.5871 119.504 11.2671 120.141C10.6175 121.408 10.1919 122.608 9.8847 123.725C9.2927 125.968 9.0815 127.897 9.1039 129.715C9.1327 131.555 9.4495 133.398 10.2943 135.549C10.7423 136.611 11.3311 137.747 12.1791 138.931C13.0239 140.112 14.1279 141.341 15.5871 142.528C16.3103 143.123 17.0399 143.622 17.7599 144.093C18.4735 144.553 19.1551 144.941 19.8079 145.28C21.1167 145.955 22.3167 146.387 23.4335 146.681C24.5503 146.979 25.5839 147.117 26.5695 147.174C27.5519 147.248 28.4895 147.203 29.4271 147.133C29.6607 147.107 29.8943 147.078 30.1311 147.053C30.3679 147.03 30.6015 146.998 30.8415 146.953C31.0783 146.912 31.3183 146.873 31.5615 146.832L31.9359 146.768C32.0543 146.768 32.1727 146.777 32.2911 146.781C32.4255 146.787 32.5599 146.793 32.6975 146.8C33.7663 146.848 34.8991 146.902 36.1599 146.96C38.6783 147.075 41.6991 147.213 45.7279 147.395C47.7439 147.485 49.5071 147.565 51.0815 147.635C51.4751 147.651 51.8559 147.67 52.2271 147.686C52.5983 147.686 52.9599 147.686 53.3119 147.686C54.0159 147.686 54.6783 147.686 55.3087 147.686C57.8335 147.68 59.8559 147.677 61.8751 147.673C65.9167 147.667 69.9583 147.664 78.0415 147.651C94.2175 147.651 94.2207 147.379 110.397 147.379C121.181 147.353 131.965 147.328 142.749 147.302C154.691 147.302 153.965 148.253 153.965 149.184C153.965 150.115 154.694 151.03 142.739 151.03L142.736 151.049Z" fill="#141413"/>
<path d="M144.989 150.281C143.651 149.683 143.005 149.328 142.409 148.886C142.109 148.675 141.808 148.467 141.424 148.214C141.062 147.933 140.624 147.6 140.029 147.177C139.453 146.723 139.053 146.345 138.707 146.045C138.531 145.897 138.393 145.744 138.262 145.6C138.131 145.456 138.006 145.321 137.885 145.187C137.379 144.656 136.918 144.089 136.041 142.921C135.833 142.621 135.654 142.358 135.491 142.125C135.328 141.891 135.174 141.693 135.059 141.494C134.816 141.11 134.611 140.806 134.403 140.502C134.185 140.205 134.029 139.875 133.808 139.472C133.702 139.27 133.587 139.043 133.462 138.787C133.35 138.525 133.238 138.227 133.11 137.885C132.989 137.542 132.861 137.248 132.781 136.973C132.697 136.701 132.624 136.464 132.557 136.246C132.419 135.811 132.301 135.465 132.217 135.113C132.128 134.761 132.041 134.406 131.929 133.968C131.84 133.523 131.757 132.985 131.648 132.269C131.577 131.549 131.555 131.005 131.555 130.55C131.577 130.096 131.616 129.734 131.654 129.376C131.677 129.193 131.686 129.021 131.718 128.822C131.75 128.624 131.779 128.416 131.808 128.185C131.837 127.955 131.862 127.702 131.888 127.414C131.933 127.133 131.981 126.816 132.025 126.454C132.102 125.725 132.24 125.203 132.31 124.755C132.381 124.307 132.467 123.958 132.553 123.606C132.64 123.257 132.71 122.902 132.841 122.47C132.985 122.045 133.145 121.529 133.408 120.861C133.696 120.201 133.897 119.702 134.086 119.296C134.285 118.893 134.445 118.573 134.605 118.249C134.685 118.089 134.761 117.926 134.851 117.757C134.947 117.59 135.049 117.417 135.161 117.222C135.398 116.841 135.641 116.358 136.064 115.773C136.864 114.573 137.389 114.064 137.859 113.52C138.102 113.254 138.374 113.011 138.688 112.688C138.845 112.528 139.017 112.349 139.216 112.147C139.424 111.955 139.657 111.741 139.923 111.497C140.189 111.251 140.422 111.037 140.63 110.845C140.851 110.665 141.043 110.505 141.219 110.361C141.571 110.073 141.837 109.821 142.131 109.603C142.733 109.187 143.289 108.691 144.627 108.045C144.873 107.923 145.088 107.808 145.299 107.75C145.51 107.689 145.699 107.648 145.872 107.625C146.214 107.577 146.48 107.603 146.688 107.683C147.104 107.84 147.296 108.208 147.443 108.649C147.59 109.091 147.648 109.478 147.462 109.837C147.369 110.016 147.219 110.189 146.985 110.355C146.87 110.438 146.733 110.521 146.569 110.601C146.406 110.681 146.237 110.797 146.035 110.896C144.925 111.427 144.477 111.894 144 112.275C143.766 112.477 143.558 112.713 143.27 112.966C143.129 113.094 142.969 113.235 142.787 113.385C142.611 113.552 142.416 113.737 142.192 113.949C141.965 114.16 141.76 114.333 141.581 114.493C141.408 114.662 141.254 114.809 141.11 114.941C140.825 115.206 140.566 115.392 140.336 115.606C139.885 116.045 139.376 116.451 138.675 117.51C138.297 118.022 138.08 118.448 137.862 118.781C137.757 118.95 137.661 119.101 137.571 119.245C137.485 119.389 137.414 119.533 137.334 119.67C137.184 119.952 137.03 120.23 136.841 120.582C136.665 120.937 136.483 121.379 136.224 121.961C135.993 122.553 135.869 123.014 135.766 123.398C135.673 123.785 135.651 124.105 135.606 124.419C135.568 124.733 135.523 125.046 135.491 125.433C135.459 125.821 135.35 126.275 135.293 126.88C135.254 127.181 135.216 127.446 135.174 127.68C135.155 127.913 135.136 128.118 135.113 128.304C135.069 128.675 135.011 128.976 134.995 129.296C134.969 129.613 134.941 129.929 134.925 130.326C134.928 130.723 134.957 131.197 135.011 131.83C135.107 132.457 135.177 132.925 135.238 133.315C135.318 133.702 135.385 134.009 135.449 134.32C135.504 134.633 135.593 134.934 135.702 135.312C135.811 135.689 135.926 136.15 136.16 136.733C136.269 137.027 136.368 137.283 136.454 137.513C136.557 137.734 136.649 137.929 136.733 138.105C136.905 138.454 137.017 138.752 137.184 139.014C137.341 139.283 137.494 139.555 137.689 139.891C137.779 140.064 137.904 140.24 138.041 140.438C138.176 140.64 138.329 140.864 138.502 141.12C139.248 142.112 139.702 142.541 140.189 142.921C140.307 143.021 140.425 143.12 140.55 143.225C140.675 143.331 140.8 143.449 140.96 143.558C141.27 143.782 141.616 144.083 142.093 144.461C142.592 144.809 142.969 145.072 143.283 145.289C143.619 145.472 143.891 145.619 144.16 145.763C144.685 146.073 145.264 146.297 146.384 146.806C148.093 147.417 147.721 148.294 147.443 149.184C147.165 150.073 147.03 151.001 144.985 150.265L144.989 150.281Z" fill="#141413"/>
<path d="M131.517 138.121C126.083 138.237 126.077 137.987 120.643 138.099C115.206 138.208 115.206 138.121 109.769 138.224C104.333 138.326 104.339 138.582 98.8991 138.675C93.4623 138.765 93.4623 138.873 88.0223 138.947C85.3023 138.982 83.9359 138.893 82.5727 138.809C81.2063 138.72 79.8399 138.633 77.1103 138.608C71.6639 138.544 71.6639 138.659 66.2239 138.557C60.7807 138.445 60.7807 138.486 55.3407 138.361C49.8975 138.237 49.9007 138.08 44.4607 137.955C39.0207 137.837 39.0175 137.99 33.5839 137.897C29.5775 137.837 29.0559 137.133 29.0527 136.195C29.0463 135.27 29.6031 134.653 33.6351 134.717C39.0783 134.813 39.0815 134.499 44.5183 134.617C49.9551 134.739 49.9455 135.101 55.3791 135.225C60.8127 135.347 60.8127 135.414 66.2431 135.526C71.6735 135.629 71.6831 135.245 77.1039 135.309C79.8111 135.334 81.1583 135.398 82.5151 135.465C83.8719 135.526 85.2287 135.593 87.9455 135.555C91.5658 135.51 95.186 135.465 98.8063 135.421C102.431 135.342 106.055 135.263 109.68 135.184C115.12 135.081 115.117 134.809 120.557 134.701C125.997 134.589 125.997 134.512 131.437 134.397C135.453 134.31 135.229 135.264 135.251 136.198C135.27 137.129 135.536 138.041 131.517 138.125V138.121Z" fill="#141413"/>
<path d="M47.9551 121.885C50.9599 121.766 50.9695 122.016 53.9743 121.901C56.9791 121.789 56.9823 121.875 59.9903 121.769C62.9983 121.664 62.9887 121.408 65.9967 121.312C69.0079 121.219 69.0015 121.11 72.0191 121.033C73.5263 120.995 74.2879 121.085 75.0495 121.168C75.8111 121.257 76.5791 121.344 78.1023 121.366C81.1295 121.427 81.1295 121.312 84.1439 121.411C87.1551 121.52 87.1583 121.478 90.1663 121.6C93.1743 121.721 93.1679 121.878 96.1759 122C99.1775 122.115 99.1903 121.961 102.179 122.051C103.28 122.08 103.894 122.272 104.234 122.569C104.576 122.87 104.653 123.283 104.653 123.75C104.653 124.217 104.579 124.598 104.217 124.861C103.853 125.126 103.209 125.264 102.089 125.232C99.0687 125.139 99.0623 125.453 96.0511 125.337C93.0431 125.216 93.0591 124.857 90.0575 124.736C87.0559 124.617 87.0591 124.55 84.0607 124.441C81.0655 124.342 81.0463 124.726 78.0735 124.665C76.5919 124.64 75.8591 124.579 75.1167 124.512C74.3711 124.451 73.6255 124.387 72.1247 124.422C69.1295 124.499 69.1263 124.47 66.1279 124.563C63.1231 124.659 63.1263 124.704 60.1215 124.806C57.1167 124.912 57.1263 125.184 54.1183 125.296C51.1135 125.411 51.1135 125.488 48.1087 125.606C45.8879 125.693 45.9871 124.742 45.9487 123.808C45.9103 122.877 45.7375 121.968 47.9615 121.878L47.9551 121.885Z" fill="#141413"/>
</svg>
