<svg width="148" height="50" viewBox="0 0 148 50" fill="none" xmlns="http://www.w3.org/2000/svg">
<g clip-path="url(#clip0_2868_3390)">
<path d="M8.55574 49.7005C3.55039 50.3245 0.105469 47.6207 0.105469 44.2927V39.8997L6.25774 39.1427V42.2232C6.25774 43.4543 6.99535 44.2657 8.26692 44.1097C9.49904 43.9598 10.0725 43.1903 10.0725 41.7529C10.0725 39.0491 8.30849 37.0438 5.43702 34.5626C2.48452 31.9687 0.475315 28.7676 0.475315 25.03C0.475315 20.5559 3.42988 16.6621 8.71988 16.0111C13.0666 15.4765 16.4305 18.1805 16.4305 21.5085V25.9035L10.2366 26.6647V23.3369C10.2366 22.1865 9.58006 21.5271 8.71988 21.6334C7.85968 21.7394 6.99534 22.5839 6.99534 23.734C6.99534 26.1989 7.69346 26.9331 10.9743 30.3901C13.6109 33.1565 16.5946 36.0247 16.5946 40.7047C16.5959 42.9318 15.7765 45.0811 14.2931 46.7411C12.8098 48.401 10.7669 49.4548 8.55574 49.7005Z" fill="url(#paint0_linear_2868_3390)"/>
<path d="M50.9531 44.0801V11.2309L57.5148 10.4238V43.2731L50.9531 44.0801Z" fill="url(#paint1_linear_2868_3390)"/>
<path d="M97.2191 38.3907L91.9686 39.0373L89.9181 24.59L87.8672 39.5408L82.33 40.2272L77.2852 7.98739L83.7658 7.19076L85.7748 23.8306L87.7446 6.71236L92.0913 6.1778L94.061 22.8176L96.3568 5.65989L102.305 4.92773L97.2191 38.3907Z" fill="url(#paint2_linear_2868_3390)"/>
<path d="M119.898 35.6038V2.75663L126.504 1.94336V28.9623L132.82 28.1844V34.0084L119.898 35.6038Z" fill="url(#paint3_linear_2868_3390)"/>
<path d="M135.035 33.7444V0.895188L141.638 0.0839844V27.1009L147.955 26.325V32.149L135.035 33.7444Z" fill="url(#paint4_linear_2868_3390)"/>
<path d="M44.1039 12.0723L36.2708 13.0353L31.9219 46.4171L37.7398 45.7016L38.2342 41.5102L35.5268 40.851L41.3156 40.1396L41.7311 45.2211L48.54 44.3891L44.1039 12.0723ZM38.8949 34.5965L40.125 23.6474L40.9562 34.3449L38.8949 34.5965Z" fill="url(#paint5_linear_2868_3390)"/>
<path d="M117.482 3.05469L104.562 4.64174V37.491L117.482 35.9019V30.0715L111.124 30.8538V22.5588L115.309 22.0449V16.2148L111.124 16.7285V10.4511L107.885 9.65448L117.482 8.47306V3.05469Z" fill="url(#paint6_linear_2868_3390)"/>
<path d="M73.2651 25.4451C74.9461 24.376 76.0118 23.0551 76.0118 21.493V14.1445C76.0118 9.95751 72.1971 8.62008 69.039 9.00695L61 9.99495V42.8442L67.5637 42.0372V28.7751L68.424 28.6691C69.3258 28.5567 69.7787 29.0851 69.7787 29.7756V36.6728L69.7912 41.7627L76.1344 40.9827V28.7106C76.1344 27.1465 74.9461 26.1025 73.2651 25.4451ZM69.6145 21.7885C69.6145 22.7329 69.1988 23.153 68.507 23.2445L67.5637 23.361V16.0207L64.8481 15.353L68.507 14.9037C69.2031 14.8184 69.6145 15.1367 69.6145 16.081V21.7885Z" fill="url(#paint7_linear_2868_3390)"/>
<path d="M17.5742 15.3354V20.9597L22.0455 20.4106V47.6335L28.6071 46.8264V20.602L25.8935 19.9363L32.8727 19.0794V13.4551L17.5742 15.3354Z" fill="url(#paint8_linear_2868_3390)"/>
</g>
<defs>
<linearGradient id="paint0_linear_2868_3390" x1="3.65638" y1="33.5182" x2="146.691" y2="14.5347" gradientUnits="userSpaceOnUse">
<stop stop-color="#EB512A"/>
<stop offset="0.25" stop-color="#EB5429"/>
<stop offset="0.44" stop-color="#EC5E24"/>
<stop offset="0.62" stop-color="#ED6F1D"/>
<stop offset="0.79" stop-color="#EE8713"/>
<stop offset="0.95" stop-color="#F0A505"/>
<stop offset="1" stop-color="#F1B100"/>
</linearGradient>
<linearGradient id="paint1_linear_2868_3390" x1="3.49915" y1="33.9984" x2="146.534" y2="15.0168" gradientUnits="userSpaceOnUse">
<stop stop-color="#EB512A"/>
<stop offset="0.25" stop-color="#EB5429"/>
<stop offset="0.44" stop-color="#EC5E24"/>
<stop offset="0.62" stop-color="#ED6F1D"/>
<stop offset="0.79" stop-color="#EE8713"/>
<stop offset="0.95" stop-color="#F0A505"/>
<stop offset="1" stop-color="#F1B100"/>
</linearGradient>
<linearGradient id="paint2_linear_2868_3390" x1="3.54322" y1="34.3262" x2="146.578" y2="15.3426" gradientUnits="userSpaceOnUse">
<stop stop-color="#EB512A"/>
<stop offset="0.25" stop-color="#EB5429"/>
<stop offset="0.44" stop-color="#EC5E24"/>
<stop offset="0.62" stop-color="#ED6F1D"/>
<stop offset="0.79" stop-color="#EE8713"/>
<stop offset="0.95" stop-color="#F0A505"/>
<stop offset="1" stop-color="#F1B100"/>
</linearGradient>
<linearGradient id="paint3_linear_2868_3390" x1="3.59364" y1="34.7135" x2="146.628" y2="15.7299" gradientUnits="userSpaceOnUse">
<stop stop-color="#EB512A"/>
<stop offset="0.25" stop-color="#EB5429"/>
<stop offset="0.44" stop-color="#EC5E24"/>
<stop offset="0.62" stop-color="#ED6F1D"/>
<stop offset="0.79" stop-color="#EE8713"/>
<stop offset="0.95" stop-color="#F0A505"/>
<stop offset="1" stop-color="#F1B100"/>
</linearGradient>
<linearGradient id="paint4_linear_2868_3390" x1="3.61242" y1="34.8635" x2="146.647" y2="15.8819" gradientUnits="userSpaceOnUse">
<stop stop-color="#EB512A"/>
<stop offset="0.25" stop-color="#EB5429"/>
<stop offset="0.44" stop-color="#EC5E24"/>
<stop offset="0.62" stop-color="#ED6F1D"/>
<stop offset="0.79" stop-color="#EE8713"/>
<stop offset="0.95" stop-color="#F0A505"/>
<stop offset="1" stop-color="#F1B100"/>
</linearGradient>
<linearGradient id="paint5_linear_2868_3390" x1="3.48361" y1="33.881" x2="146.52" y2="14.8993" gradientUnits="userSpaceOnUse">
<stop stop-color="#EB512A"/>
<stop offset="0.25" stop-color="#EB5429"/>
<stop offset="0.44" stop-color="#EC5E24"/>
<stop offset="0.62" stop-color="#ED6F1D"/>
<stop offset="0.79" stop-color="#EE8713"/>
<stop offset="0.95" stop-color="#F0A505"/>
<stop offset="1" stop-color="#F1B100"/>
</linearGradient>
<linearGradient id="paint6_linear_2868_3390" x1="3.57479" y1="34.5624" x2="146.609" y2="15.5787" gradientUnits="userSpaceOnUse">
<stop stop-color="#EB512A"/>
<stop offset="0.25" stop-color="#EB5429"/>
<stop offset="0.44" stop-color="#EC5E24"/>
<stop offset="0.62" stop-color="#ED6F1D"/>
<stop offset="0.79" stop-color="#EE8713"/>
<stop offset="0.95" stop-color="#F0A505"/>
<stop offset="1" stop-color="#F1B100"/>
</linearGradient>
<linearGradient id="paint7_linear_2868_3390" x1="3.51659" y1="34.1416" x2="146.551" y2="15.1578" gradientUnits="userSpaceOnUse">
<stop stop-color="#EB512A"/>
<stop offset="0.25" stop-color="#EB5429"/>
<stop offset="0.44" stop-color="#EC5E24"/>
<stop offset="0.62" stop-color="#ED6F1D"/>
<stop offset="0.79" stop-color="#EE8713"/>
<stop offset="0.95" stop-color="#F0A505"/>
<stop offset="1" stop-color="#F1B100"/>
</linearGradient>
<linearGradient id="paint8_linear_2868_3390" x1="3.45791" y1="33.6913" x2="146.492" y2="14.7097" gradientUnits="userSpaceOnUse">
<stop stop-color="#EB512A"/>
<stop offset="0.25" stop-color="#EB5429"/>
<stop offset="0.44" stop-color="#EC5E24"/>
<stop offset="0.62" stop-color="#ED6F1D"/>
<stop offset="0.79" stop-color="#EE8713"/>
<stop offset="0.95" stop-color="#F0A505"/>
<stop offset="1" stop-color="#F1B100"/>
</linearGradient>
<clipPath id="clip0_2868_3390">
<rect width="148" height="50" fill="white"/>
</clipPath>
</defs>
</svg>
