<svg width="164" height="29" viewBox="0 0 164 29" fill="none" xmlns="http://www.w3.org/2000/svg">
<g clip-path="url(#clip0_10789_57500)">
<path d="M20.1715 8.64762H21.0904L23.7094 6.02864L23.8381 4.91673C22.3377 3.59251 20.5246 2.67261 18.5699 2.24395C16.6153 1.81529 14.5836 1.89201 12.6668 2.46685C10.7501 3.0417 9.01147 4.09571 7.61531 5.5293C6.21912 6.96289 5.21146 8.72874 4.6875 10.6601C4.97926 10.5405 5.30246 10.5211 5.60644 10.6049L10.8443 9.74114C10.8443 9.74114 11.1109 9.30004 11.2487 9.32763C12.371 8.09498 13.922 7.33802 15.5842 7.21161C17.2464 7.08519 18.8941 7.59893 20.1899 8.64762H20.1715Z" fill="#EA4335"/>
<path d="M27.4409 10.6599C26.8389 8.44315 25.6029 6.45024 23.8846 4.92578L20.2089 8.60153C20.975 9.22748 21.5889 10.0192 22.0043 10.917C22.4198 11.8148 22.626 12.7952 22.6073 13.7843V14.4367C23.037 14.4367 23.4624 14.5213 23.8592 14.6857C24.2561 14.8501 24.6168 15.0911 24.9205 15.3949C25.2243 15.6986 25.4653 16.0593 25.6297 16.4562C25.7941 16.8531 25.8787 17.2786 25.8787 17.7081C25.8787 18.1378 25.7941 18.5631 25.6297 18.96C25.4653 19.357 25.2243 19.7176 24.9205 20.0214C24.6168 20.3251 24.2561 20.5661 23.8592 20.7305C23.4624 20.8949 23.037 20.9795 22.6073 20.9795H16.0645L15.4121 21.6412V25.565L16.0645 26.2175H22.6073C24.4344 26.2317 26.2175 25.6575 27.6929 24.5797C29.1683 23.502 30.2576 21.978 30.7997 20.2331C31.3418 18.4883 31.3079 16.6153 30.703 14.8912C30.0981 13.1672 28.9544 11.6836 27.4409 10.6599Z" fill="#4285F4"/>
<path d="M9.51181 26.1804H16.0547V20.9425H9.51181C9.04565 20.9424 8.585 20.8421 8.161 20.6484L7.24207 20.9333L4.60473 23.5522L4.375 24.4712C5.85396 25.588 7.65863 26.1885 9.51181 26.1804Z" fill="#34A853"/>
<path d="M9.51317 9.18951C7.74038 9.20014 6.01517 9.76415 4.5785 10.8028C3.14182 11.8414 2.06542 13.3029 1.49966 14.983C0.93388 16.6632 0.906985 18.4781 1.42272 20.1742C1.93846 21.8703 2.97107 23.363 4.37634 24.4438L8.17151 20.6486C7.68922 20.4307 7.26701 20.0991 6.94108 19.6822C6.61514 19.2651 6.39524 18.7753 6.30021 18.2548C6.20519 17.7341 6.2379 17.1982 6.39552 16.693C6.55316 16.1878 6.831 15.7283 7.20522 15.3542C7.57947 14.9799 8.03886 14.702 8.54405 14.5445C9.04925 14.3868 9.58515 14.3541 10.1058 14.4491C10.6265 14.5442 11.1163 14.7641 11.5332 15.09C11.9501 15.416 12.2818 15.8382 12.4997 16.3205L16.2949 12.5253C15.4983 11.4839 14.4717 10.6409 13.2951 10.0622C12.1186 9.48352 10.8243 9.18482 9.51317 9.18951Z" fill="#FBBC05"/>
<path d="M48.6032 22.5219C47.4767 22.5362 46.3589 22.323 45.3168 21.8952C44.2746 21.4673 43.3296 20.8334 42.5382 20.0316C41.722 19.2638 41.0742 18.3347 40.636 17.3033C40.1978 16.2719 39.9788 15.1606 39.9928 14.0401C39.9794 12.9197 40.1986 11.8086 40.6368 10.7773C41.075 9.74597 41.7224 8.81686 42.5382 8.04873C43.3257 7.23856 44.269 6.59621 45.3113 6.16033C46.3536 5.72445 47.4734 5.50407 48.6032 5.51244C49.6796 5.4981 50.7483 5.69787 51.7468 6.10014C52.7455 6.50242 53.6541 7.09917 54.42 7.85569L52.7844 9.51895C51.6641 8.43644 50.1608 7.84171 48.6032 7.86491C47.7952 7.85495 46.9939 8.01326 46.2504 8.32966C45.5069 8.64605 44.8373 9.1137 44.2842 9.70277C43.7094 10.273 43.2559 10.9537 42.9511 11.7039C42.6463 12.4541 42.4965 13.2581 42.5107 14.0677C42.5039 14.868 42.6573 15.6617 42.962 16.4018C43.2666 17.1419 43.7161 17.8137 44.2842 18.3775C45.4221 19.5115 46.9578 20.1567 48.5643 20.1756C50.1707 20.1944 51.7211 19.5856 52.8854 18.4786C53.6062 17.6892 54.0485 16.6854 54.1444 15.6207H48.6307V13.2682H56.4325C56.5091 13.742 56.5399 14.2221 56.5244 14.7018C56.5729 15.6946 56.4196 16.6869 56.0737 17.6188C55.7278 18.5507 55.1965 19.4027 54.5119 20.1234C53.7508 20.9159 52.8312 21.5391 51.8131 21.9523C50.795 22.3656 49.7013 22.5597 48.6032 22.5219ZM66.7429 20.9597C65.6959 21.9634 64.3016 22.5237 62.8512 22.5237C61.4008 22.5237 60.0066 21.9634 58.9596 20.9597C58.4385 20.4544 58.028 19.8463 57.7544 19.174C57.4806 18.5017 57.3497 17.7799 57.3698 17.0543C57.3503 16.3287 57.4815 15.607 57.7551 14.9348C58.0287 14.2625 58.4389 13.6544 58.9596 13.1488C60.0077 12.1472 61.4015 11.5883 62.8512 11.5883C64.3009 11.5883 65.6948 12.1472 66.7429 13.1488C67.2636 13.6544 67.6737 14.2625 67.9473 14.9348C68.221 15.607 68.3522 16.3287 68.3327 17.0543C68.3516 17.7805 68.2192 18.5028 67.9439 19.1751C67.6686 19.8475 67.2565 20.4552 66.7337 20.9597H66.7429ZM60.6779 19.4251C60.9565 19.7225 61.293 19.9595 61.6668 20.1217C62.0407 20.2838 62.4438 20.3674 62.8512 20.3674C63.2587 20.3674 63.6618 20.2838 64.0356 20.1217C64.4094 19.9595 64.746 19.7225 65.0245 19.4251C65.3282 19.1113 65.5659 18.7398 65.7238 18.3326C65.8816 17.9254 65.9563 17.4908 65.9434 17.0543C65.957 16.6162 65.8827 16.18 65.7248 15.7712C65.567 15.3625 65.3289 14.9895 65.0245 14.6742C64.7423 14.3798 64.4035 14.1456 64.0285 13.9855C63.6534 13.8255 63.2499 13.7431 62.8421 13.7431C62.4343 13.7431 62.0307 13.8255 61.6557 13.9855C61.2806 14.1456 60.9418 14.3798 60.6596 14.6742C60.3552 14.9895 60.1171 15.3625 59.9592 15.7712C59.8015 16.18 59.7271 16.6162 59.7406 17.0543C59.729 17.4914 59.8052 17.9264 59.9646 18.3337C60.124 18.7409 60.3635 19.112 60.6688 19.4251H60.6779ZM78.7077 20.9597C77.66 21.9634 76.2658 22.5237 74.8158 22.5237C73.3654 22.5237 71.9711 21.9634 70.9241 20.9597C70.4029 20.4544 69.9925 19.8463 69.7189 19.174C69.4451 18.5017 69.3142 17.7799 69.3343 17.0543C69.3148 16.3287 69.446 15.607 69.7196 14.9348C69.9932 14.2625 70.4034 13.6544 70.9241 13.1488C71.9711 12.1452 73.3654 11.5848 74.8158 11.5848C76.2658 11.5848 77.66 12.1452 78.7077 13.1488C79.2283 13.6544 79.638 14.2625 79.9116 14.9348C80.1853 15.607 80.3169 16.3287 80.2968 17.0543C80.3176 17.7799 80.186 18.5017 79.9124 19.174C79.6387 19.8463 79.2283 20.4544 78.7077 20.9597ZM72.6424 19.4251C72.921 19.7225 73.2575 19.9595 73.6313 20.1217C74.0052 20.2838 74.4083 20.3674 74.8158 20.3674C75.2233 20.3674 75.6263 20.2838 76.0003 20.1217C76.3736 19.9595 76.7105 19.7225 76.9893 19.4251C77.2927 19.1113 77.5306 18.7398 77.6883 18.3326C77.8459 17.9254 77.921 17.4908 77.9076 17.0543C77.9218 16.6162 77.8474 16.18 77.689 15.7712C77.5314 15.3625 77.2934 14.9895 76.9893 14.6742C76.7068 14.3798 76.3677 14.1456 75.9929 13.9855C75.6181 13.8255 75.2144 13.7431 74.8069 13.7431C74.3986 13.7431 73.9953 13.8255 73.6202 13.9855C73.2451 14.1456 72.9063 14.3798 72.6241 14.6742C72.3197 14.9895 72.0816 15.3625 71.9238 15.7712C71.766 16.18 71.6916 16.6162 71.7051 17.0543C71.6935 17.4914 71.7697 17.9264 71.9291 18.3337C72.0885 18.7409 72.328 19.112 72.6333 19.4251H72.6424ZM86.5734 27.429C85.4722 27.464 84.3917 27.1202 83.5136 26.455C82.7335 25.8686 82.1193 25.0896 81.7304 24.1944L83.8259 23.3214C84.0542 23.8563 84.4103 24.3267 84.8639 24.6906C85.3495 25.082 85.9592 25.2873 86.5824 25.2695C86.978 25.2935 87.3735 25.2321 87.7431 25.0894C88.1127 24.9467 88.4473 24.726 88.7239 24.4424C89.2771 23.7746 89.5508 22.9183 89.4868 22.0532V21.2629H89.4035C89.0533 21.6789 88.6116 22.0075 88.1119 22.2228C87.613 22.4382 87.0702 22.5342 86.5273 22.5035C85.8373 22.5056 85.1547 22.3645 84.5219 22.0893C83.8891 21.8141 83.321 21.4107 82.8518 20.9046C82.3432 20.4024 81.9416 19.8023 81.6717 19.1405C81.401 18.4787 81.2679 17.7689 81.2806 17.0543C81.2679 16.3354 81.4003 15.6213 81.6702 14.955C81.9401 14.2886 82.3424 13.6836 82.8518 13.1764C83.3195 12.6681 83.8876 12.2627 84.5204 11.9858C85.1532 11.709 85.8365 11.5667 86.5273 11.5682C87.1118 11.5672 87.6896 11.6959 88.2183 11.945C88.6756 12.1447 89.0838 12.4428 89.4132 12.818H89.4958V11.945H91.7749V21.7316C91.8343 22.5057 91.7362 23.2841 91.4849 24.0188C91.2335 24.7535 90.835 25.4292 90.3137 26.0046C89.817 26.4798 89.2303 26.8506 88.5878 27.0953C87.9454 27.3399 87.2605 27.4534 86.5734 27.429ZM86.7385 20.3716C87.1311 20.3802 87.5208 20.3023 87.8799 20.1435C88.2383 19.9848 88.5581 19.7488 88.8154 19.4526C89.3827 18.8029 89.6817 17.962 89.6519 17.1001C89.6861 16.2238 89.3872 15.367 88.8154 14.7018C88.5588 14.4051 88.2391 14.1688 87.8799 14.01C87.5208 13.8512 87.1311 13.7736 86.7385 13.7828C86.3355 13.7746 85.9354 13.8522 85.5644 14.0107C85.1941 14.1691 84.861 14.4047 84.5888 14.7018C83.9805 15.3431 83.6504 16.1984 83.6697 17.0818C83.6601 17.5151 83.7366 17.9461 83.8943 18.3498C84.0519 18.7534 84.2876 19.122 84.5888 19.4343C84.8602 19.7342 85.1919 19.9729 85.5629 20.1345C85.9332 20.2962 86.3348 20.3769 86.7385 20.3716ZM95.8274 6.12812V22.1911H93.4286V6.12812H95.8274ZM102.407 22.5219C101.688 22.5403 100.974 22.4103 100.308 22.1399C99.6428 21.8695 99.0397 21.4646 98.5378 20.9505C98.0284 20.4402 97.6284 19.8316 97.3614 19.1618C97.0945 18.4921 96.9666 17.775 96.9852 17.0543C96.9577 16.3316 97.0766 15.611 97.3339 14.9353C97.5912 14.2596 97.9816 13.6426 98.4828 13.1212C98.955 12.6236 99.526 12.23 100.159 11.9657C100.792 11.7015 101.473 11.5724 102.158 11.5866C102.789 11.58 103.414 11.7018 103.996 11.945C104.521 12.1565 104.998 12.4687 105.403 12.8639C105.749 13.1989 106.058 13.5719 106.322 13.9758C106.534 14.3168 106.716 14.6767 106.864 15.051L107.111 15.6758L99.7603 18.6991C99.9826 19.2099 100.354 19.6414 100.827 19.9367C101.299 20.232 101.85 20.3772 102.407 20.3532C102.948 20.3547 103.481 20.2158 103.953 19.95C104.425 19.6843 104.82 19.3008 105.099 18.837L106.937 20.0776C106.468 20.7486 105.868 21.3175 105.173 21.75C104.346 22.2723 103.385 22.5406 102.407 22.5219ZM99.3372 16.8888L104.226 14.858C104.075 14.4999 103.806 14.2046 103.463 14.0218C103.08 13.805 102.645 13.6941 102.204 13.7002C101.456 13.7195 100.747 14.0332 100.229 14.5731C99.9187 14.8697 99.6785 15.231 99.5245 15.6313C99.3699 16.0316 99.3067 16.461 99.3372 16.8888ZM119.674 22.5219C118.653 22.5395 117.641 22.3508 116.695 21.9672C115.75 21.5835 114.892 21.0128 114.173 20.2893C113.453 19.5657 112.888 18.7044 112.51 17.7569C112.132 16.8093 111.949 15.7951 111.973 14.7753C111.949 13.7554 112.132 12.7412 112.51 11.7937C112.888 10.8462 113.453 9.98481 114.173 9.2613C114.892 8.53779 115.75 7.96708 116.695 7.58339C117.641 7.19976 118.653 7.01107 119.674 7.02868C120.706 6.9964 121.732 7.19783 122.675 7.61789C123.619 8.03802 124.456 8.66591 125.123 9.45463L123.8 10.7412C123.31 10.1254 122.682 9.63384 121.967 9.30651C121.251 8.97918 120.468 8.82526 119.683 8.85738C118.926 8.84028 118.174 8.97643 117.471 9.25751C116.768 9.53858 116.13 9.95886 115.594 10.4931C115.036 11.0536 114.6 11.7234 114.314 12.4603C114.028 13.1973 113.897 13.9854 113.93 14.7753C113.897 15.5652 114.028 16.3533 114.314 17.0903C114.6 17.8272 115.036 18.497 115.594 19.0575C116.13 19.5917 116.768 20.012 117.471 20.293C118.174 20.5741 118.926 20.7103 119.683 20.6932C120.561 20.7031 121.43 20.5149 122.226 20.1425C123.021 19.7703 123.722 19.2235 124.277 18.5429L125.601 19.8662C124.908 20.6947 124.038 21.3573 123.055 21.8051C121.996 22.2942 120.84 22.5391 119.674 22.5219ZM129.157 22.1911H127.255V7.3503H129.157V22.1911ZM132.263 13.2591C133.26 12.2692 134.607 11.7137 136.012 11.7137C137.417 11.7137 138.765 12.2692 139.762 13.2591C140.249 13.7737 140.629 14.3796 140.882 15.042C141.134 15.7044 141.253 16.4101 141.232 17.1186C141.253 17.827 141.134 18.5327 140.882 19.1951C140.629 19.8575 140.249 20.4635 139.762 20.978C138.765 21.968 137.417 22.5235 136.012 22.5235C134.607 22.5235 133.26 21.968 132.263 20.978C131.776 20.4635 131.395 19.8575 131.142 19.1951C130.89 18.5327 130.771 17.827 130.792 17.1186C130.771 16.4101 130.89 15.7044 131.142 15.042C131.395 14.3796 131.776 13.7737 132.263 13.2591ZM133.678 19.7835C133.978 20.1002 134.339 20.3525 134.739 20.5249C135.14 20.6973 135.572 20.7863 136.007 20.7863C136.444 20.7863 136.875 20.6973 137.276 20.5249C137.676 20.3525 138.037 20.1002 138.337 19.7835C138.669 19.4267 138.927 19.0074 139.096 18.5499C139.265 18.0923 139.342 17.6058 139.32 17.1186C139.342 16.6313 139.265 16.1448 139.096 15.6873C138.927 15.2298 138.669 14.8104 138.337 14.4536C138.037 14.1369 137.676 13.8846 137.276 13.7122C136.875 13.5398 136.444 13.4508 136.007 13.4508C135.572 13.4508 135.14 13.5398 134.739 13.7122C134.339 13.8846 133.978 14.1369 133.678 14.4536C133.345 14.8104 133.087 15.2298 132.918 15.6873C132.75 16.1448 132.674 16.6313 132.695 17.1186C132.676 17.6049 132.754 18.0901 132.924 18.546C133.095 19.0018 133.354 19.4193 133.687 19.7742L133.678 19.7835ZM151.771 22.1911H149.934V20.7851H149.879C149.552 21.3191 149.089 21.7567 148.537 22.0532C147.965 22.3849 147.315 22.5593 146.653 22.5586C146.116 22.5954 145.578 22.5104 145.078 22.3098C144.579 22.1093 144.13 21.7986 143.768 21.4008C143.071 20.5203 142.722 19.4155 142.784 18.2948V12.046H144.686V17.9456C144.686 19.8386 145.523 20.7851 147.195 20.7851C147.567 20.7967 147.936 20.7193 148.272 20.5595C148.607 20.3997 148.9 20.162 149.125 19.8662C149.618 19.2413 149.881 18.4658 149.869 17.6699V12.046H151.771V22.1911ZM158.232 22.5219C157.586 22.524 156.948 22.3863 156.362 22.1182C155.775 21.8501 155.253 21.458 154.832 20.9689C153.879 19.9166 153.369 18.5375 153.407 17.1186C153.369 15.6996 153.879 14.3205 154.832 13.2682C155.253 12.7791 155.775 12.387 156.362 12.1189C156.948 11.8508 157.586 11.7131 158.232 11.7152C158.954 11.7038 159.669 11.8745 160.309 12.2115C160.871 12.4944 161.347 12.9227 161.687 13.452H161.77L161.687 12.046V7.3503H163.589V22.1911H161.751V20.7851H161.669C161.328 21.3144 160.852 21.7428 160.29 22.0257C159.656 22.3596 158.949 22.5302 158.232 22.5219ZM158.544 20.7851C158.975 20.7913 159.401 20.7061 159.795 20.535C160.19 20.3639 160.544 20.1109 160.833 19.7927C161.479 19.0569 161.809 18.0961 161.751 17.1186C161.809 16.141 161.479 15.1802 160.833 14.4445C160.541 14.1245 160.187 13.869 159.791 13.6941C159.395 13.5192 158.968 13.4288 158.535 13.4288C158.102 13.4288 157.675 13.5192 157.279 13.6941C156.884 13.869 156.529 14.1245 156.237 14.4445C155.917 14.8063 155.67 15.228 155.512 15.6853C155.355 16.1426 155.289 16.6266 155.319 17.1094C155.289 17.5922 155.355 18.0761 155.512 18.5334C155.67 18.9907 155.917 19.4124 156.237 19.7742C156.527 20.0982 156.883 20.356 157.281 20.5304C157.679 20.7048 158.11 20.7917 158.544 20.7851Z" fill="#FAF9F5"/>
</g>
<defs>
<clipPath id="clip0_10789_57500">
<rect width="163.59" height="29" fill="white"/>
</clipPath>
</defs>
</svg>
