<svg width="154" height="28" viewBox="0 0 154 28" fill="none" xmlns="http://www.w3.org/2000/svg">
<g clip-path="url(#clip0_19891_28091)">
<path d="M129.507 22.7697V11.6279C129.507 9.29824 129.248 7.65189 128.15 6.21955C126.768 4.4209 125.09 3.75 122.898 3.75C119.814 3.75 117.301 5.61451 115.664 7.80004C115.464 7.23664 115.175 6.70875 114.809 6.23601C113.427 4.43736 111.75 3.76646 109.561 3.76646C106.794 3.76646 104.487 5.27289 102.858 7.15797V4.16982H96.1262V4.82837H96.5375C97.4461 4.82837 98.0262 5.3799 98.0262 6.47473C98.0262 6.83694 98.0262 22.4487 98.0262 22.7779C98.0262 23.8769 97.4461 24.4243 96.5375 24.4243H96.1262V25.1075H104.762V24.4161H104.351C103.443 24.4161 102.862 23.8686 102.862 22.7697C102.862 22.5474 102.862 15.2293 102.862 9.62345C103.944 8.18286 105.761 6.59001 107.69 6.59001C108.254 6.55777 108.818 6.66566 109.33 6.90405C109.842 7.1425 110.288 7.50405 110.627 7.95649C111.146 8.75038 111.391 9.69338 111.322 10.6401V22.7697C111.322 23.8645 110.746 24.4161 109.837 24.4161H109.426V25.0828H118.062V24.4119H117.651C116.742 24.4119 116.162 23.8645 116.162 22.7656C116.162 22.4034 116.162 13.6364 116.162 11.6238C116.167 11.0041 116.141 10.3845 116.084 9.76749C117.157 8.29396 119.029 6.59001 121.019 6.59001C121.583 6.55694 122.146 6.66399 122.659 6.90173C123.171 7.13948 123.617 7.50039 123.955 7.95238C124.478 8.74498 124.724 9.68863 124.655 10.6359V22.7697C124.655 23.8645 124.075 24.4161 123.165 24.4161H122.755V25.0828H131.391V24.4119H130.98C130.07 24.4119 129.491 23.8645 129.491 22.7656" fill="#012649"/>
<path d="M84.0095 4.83671H84.4208C85.3294 4.83671 85.9095 5.38412 85.9095 6.48306C85.9095 6.84526 85.9095 22.2759 85.9095 22.6093C85.9095 23.7041 85.3333 24.4285 84.4208 24.4285H84.0095V25.1076H92.6457V24.4491H92.2344C91.3252 24.4491 90.7496 23.9017 90.7496 22.8027C90.7496 22.4364 90.7496 6.86176 90.7496 6.49956C90.7496 5.4047 91.3252 4.85317 92.2383 4.85317H92.6496V4.16992H84.0134L84.0095 4.83671Z" fill="#012649"/>
<path d="M152.984 19.6905C152.239 20.861 151.203 21.8178 149.977 22.4671C148.752 23.1165 147.379 23.4361 145.993 23.3949C142.773 23.2878 139.948 20.6495 138.685 16.2578C137.122 10.8289 138.463 7.12046 141.975 5.50293C144.693 4.24757 147.831 5.56878 148.749 6.87765C147.515 7.47856 147.297 9.0138 147.576 9.94403C147.712 10.3635 147.948 10.7438 148.262 11.0525C148.577 11.3614 148.961 11.5895 149.383 11.7177C149.804 11.8458 150.251 11.8701 150.684 11.7884C151.117 11.7068 151.524 11.5217 151.87 11.2487C152.803 10.5285 153.063 9.37189 152.803 8.21535C152.524 6.98053 151.496 5.98861 150.291 5.23128C148.564 4.15519 146.567 3.59539 144.533 3.61784C138.85 3.56433 133.582 8.347 133.582 14.8996C133.582 21.6497 139.421 25.7368 144.442 25.7368C146.371 25.771 148.274 25.2889 149.955 24.3403C151.635 23.3915 153.032 22.0108 154 20.3408C153.93 20.2914 153.087 19.7729 152.996 19.6864" fill="#012649"/>
<path d="M13.9828 7.25658e-06C13.061 0.00244802 12.1605 0.278263 11.3952 0.792612C10.63 1.30696 10.0341 2.03677 9.68305 2.88984C9.33193 3.74293 9.24132 4.681 9.42266 5.58559C9.60406 6.49016 10.0492 7.32065 10.7019 7.97223C11.3546 8.62374 12.1855 9.06706 13.0898 9.2461C13.9941 9.42521 14.9312 9.33209 15.7827 8.97843C16.6341 8.62483 17.3617 8.02656 17.8736 7.25926C18.3855 6.49202 18.6587 5.59008 18.6587 4.66747C18.6582 4.05364 18.5368 3.44594 18.3015 2.87909C18.0661 2.31225 17.7215 1.79738 17.2872 1.36391C16.853 0.930441 16.3376 0.586878 15.7706 0.352851C15.2036 0.118825 14.5961 -0.00107462 13.9828 7.25658e-06ZM13.9828 6.61018C13.5977 6.61102 13.2211 6.49741 12.9006 6.2838C12.58 6.07019 12.3301 5.76618 12.1823 5.41027C12.0346 5.05437 11.9957 4.66258 12.0707 4.28455C12.1456 3.90652 12.3309 3.55926 12.6032 3.28674C12.8755 3.01422 13.2225 2.82872 13.6002 2.75373C13.9779 2.67874 14.3694 2.71764 14.725 2.8655C15.0806 3.01337 15.3844 3.26354 15.5978 3.58431C15.8112 3.9051 15.9247 4.28207 15.9239 4.66747C15.9239 4.92259 15.8737 5.17521 15.7761 5.41091C15.6786 5.64661 15.5356 5.86078 15.3554 6.04117C15.1751 6.22157 14.9611 6.36467 14.7256 6.46228C14.4902 6.55996 14.2377 6.61018 13.9828 6.61018Z" fill="#012649"/>
<path d="M32.6496 9.33496C31.727 9.3358 30.8254 9.61047 30.0589 10.1242C29.2923 10.6379 28.6952 11.3676 28.3432 12.221C27.991 13.0744 27.8998 14.0132 28.0808 14.9186C28.2619 15.8239 28.7072 16.6552 29.3604 17.3072C30.0136 17.9592 30.8453 18.4027 31.7504 18.5815C32.6555 18.7604 33.5932 18.6665 34.445 18.3119C35.2968 17.9572 36.0243 17.3577 36.5356 16.5891C37.0469 15.8206 37.3189 14.9175 37.3172 13.9942C37.3151 12.7571 36.8222 11.5714 35.947 10.6977C35.0717 9.824 33.8857 9.33387 32.6496 9.33496ZM32.6496 15.9451C32.265 15.9451 31.8891 15.8311 31.5693 15.6174C31.2495 15.4036 31.0002 15.0998 30.8528 14.7443C30.7055 14.3888 30.6667 13.9975 30.7414 13.6201C30.8161 13.2425 31.001 12.8956 31.2726 12.6232C31.5442 12.3507 31.8905 12.165 32.2675 12.0894C32.6446 12.0138 33.0356 12.0518 33.3911 12.1985C33.7466 12.3452 34.0507 12.5941 34.265 12.9138C34.4792 13.2333 34.594 13.6093 34.5948 13.9942C34.5948 14.2497 34.5444 14.5026 34.4466 14.7386C34.3488 14.9746 34.2055 15.189 34.0248 15.3693C33.8441 15.5498 33.6296 15.6928 33.3936 15.7902C33.1576 15.8876 32.9048 15.9374 32.6496 15.9369" fill="#012649"/>
<path d="M32.6496 1.81495e-06C31.7274 0.000815712 30.8261 0.275249 30.0597 0.788612C29.2933 1.30197 28.6963 2.03122 28.3439 2.88415C27.9916 3.73709 27.8998 4.67543 28.0802 5.58056C28.2606 6.48571 28.7051 7.31698 29.3575 7.96933C30.0099 8.62168 30.8408 9.06576 31.7454 9.24551C32.6499 9.42533 33.5874 9.3326 34.4393 8.97926C35.2912 8.62585 36.0194 8.02758 36.5316 7.26015C37.0438 6.49265 37.3172 5.59042 37.3172 4.66746C37.3172 4.05418 37.1965 3.4469 36.9618 2.88035C36.7272 2.3138 36.3834 1.79908 35.9499 1.36561C35.5163 0.932144 35.0018 0.588429 34.4355 0.354109C33.8692 0.119789 33.2624 -0.000539002 32.6496 1.81495e-06ZM32.6496 6.61017C32.2646 6.61017 31.8884 6.49593 31.5684 6.28179C31.2484 6.06769 30.9991 5.76339 30.852 5.40741C30.7049 5.05143 30.6666 4.65978 30.742 4.28202C30.8174 3.90426 31.0031 3.55738 31.2756 3.28527C31.548 3.01317 31.895 2.82807 32.2726 2.75342C32.6502 2.67877 33.0414 2.71791 33.3968 2.86589C33.7522 3.01387 34.0557 3.26404 34.2689 3.58474C34.4822 3.90544 34.5956 4.28224 34.5948 4.66746C34.5948 4.92293 34.5444 5.17589 34.4466 5.41186C34.3488 5.64783 34.2055 5.86217 34.0248 6.04263C33.8441 6.22308 33.6297 6.36609 33.3936 6.46349C33.1576 6.56085 32.9048 6.61075 32.6496 6.61017Z" fill="#012649"/>
<path d="M23.3219 9.33496C22.3992 9.33496 21.4972 9.60892 20.7301 10.1222C19.963 10.6354 19.3653 11.3648 19.0125 12.2182C18.6598 13.0715 18.5679 14.0104 18.7485 14.916C18.9292 15.8216 19.3742 16.6533 20.0272 17.3057C20.6802 17.9582 21.512 18.402 22.4172 18.5812C23.3223 18.7604 24.2603 18.6668 25.1123 18.3122C25.9643 17.9577 26.6921 17.3582 27.2035 16.5895C27.715 15.8209 27.9871 14.9177 27.9855 13.9942C27.9833 12.7578 27.491 11.5726 26.6167 10.6991C25.7423 9.8256 24.5574 9.33496 23.3219 9.33496ZM23.3219 15.9451C22.9373 15.9451 22.5615 15.8311 22.2417 15.6174C21.9218 15.4036 21.6725 15.0998 21.5252 14.7443C21.3778 14.3888 21.3391 13.9975 21.4138 13.6201C21.4885 13.2425 21.6734 12.8956 21.945 12.6232C22.2166 12.3507 22.5629 12.165 22.9399 12.0894C23.317 12.0138 23.7079 12.0518 24.0635 12.1985C24.419 12.3452 24.723 12.5941 24.9373 12.9137C25.1515 13.2333 25.2663 13.6093 25.2671 13.9942C25.266 14.5098 25.0606 15.0039 24.6959 15.3682C24.3312 15.7324 23.8371 15.9369 23.3219 15.9369" fill="#012649"/>
<path d="M23.322 0C22.3997 0 21.498 0.273742 20.7311 0.786608C19.9642 1.29948 19.3664 2.02843 19.0135 2.8813C18.6605 3.73417 18.5681 4.67264 18.7481 5.57804C18.928 6.48347 19.3722 7.31512 20.0244 7.96785C20.6766 8.62058 21.5076 9.06512 22.4122 9.24525C23.3169 9.42533 24.2545 9.33291 25.1067 8.97964C25.9589 8.62636 26.6872 8.02809 27.1997 7.26053C27.7121 6.49297 27.9856 5.59059 27.9856 4.66746C27.9856 3.42957 27.4942 2.24238 26.6197 1.36707C25.7451 0.491748 24.5589 0 23.322 0ZM23.322 6.61017C22.9371 6.61017 22.5609 6.49586 22.2409 6.28179C21.9209 6.06768 21.6716 5.76339 21.5245 5.40741C21.3774 5.05143 21.3391 4.65978 21.4145 4.28202C21.4899 3.90426 21.6756 3.55738 21.948 3.28527C22.2205 3.01316 22.5675 2.82807 22.945 2.75342C23.3226 2.67877 23.7139 2.71791 24.0693 2.86589C24.4246 3.01387 24.7282 3.26404 24.9414 3.58474C25.1547 3.90544 25.2681 4.28223 25.2672 4.66746C25.2672 4.92293 25.2169 5.17588 25.1191 5.41185C25.0213 5.64783 24.8779 5.86217 24.6972 6.04263C24.5165 6.22308 24.3021 6.36609 24.0661 6.46349C23.8301 6.56085 23.5773 6.61069 23.322 6.61017Z" fill="#012649"/>
<path d="M23.322 18.666C22.3997 18.666 21.498 18.9398 20.7311 19.4526C19.9642 19.9655 19.3664 20.6945 19.0135 21.5473C18.6605 22.4002 18.5681 23.3387 18.7481 24.2441C18.928 25.1494 19.3722 25.9811 20.0244 26.6339C20.6766 27.2866 21.5076 27.7311 22.4122 27.9113C23.3169 28.0914 24.2545 27.9989 25.1067 27.6457C25.9589 27.2924 26.6872 26.6941 27.1997 25.9266C27.7121 25.159 27.9856 24.2566 27.9856 23.3335C27.9856 22.0956 27.4942 20.9084 26.6197 20.0331C25.7451 19.1578 24.5589 18.666 23.322 18.666ZM23.322 25.2803C22.9373 25.2803 22.5612 25.1661 22.2413 24.9522C21.9214 24.7383 21.6721 24.4343 21.5249 24.0785C21.3776 23.7228 21.3391 23.3314 21.4142 22.9537C21.4892 22.576 21.6745 22.2291 21.9465 21.9569C22.2186 21.6846 22.5652 21.4992 22.9425 21.4241C23.3199 21.3489 23.711 21.3875 24.0664 21.5349C24.4219 21.6822 24.7257 21.9317 24.9394 22.2519C25.1531 22.572 25.2672 22.9484 25.2672 23.3335C25.2672 23.8498 25.0623 24.345 24.6975 24.7101C24.3327 25.0752 23.8379 25.2803 23.322 25.2803Z" fill="#012649"/>
<path d="M13.9828 18.666C13.061 18.6685 12.1605 18.9443 11.3952 19.4586C10.63 19.973 10.0341 20.7028 9.68305 21.5559C9.33193 22.409 9.24132 23.347 9.42266 24.2516C9.60406 25.1562 10.0492 25.9867 10.7019 26.6382C11.3546 27.2898 12.1855 27.733 13.0898 27.9121C13.9941 28.0912 14.9312 27.9981 15.7827 27.6445C16.6341 27.2909 17.3617 26.6926 17.8736 25.9253C18.3855 25.158 18.6587 24.2561 18.6587 23.3335C18.6582 22.7197 18.5368 22.1119 18.3015 21.5451C18.0661 20.9783 17.7215 20.4634 17.2872 20.0299C16.853 19.5964 16.3376 19.2529 15.7706 19.0189C15.2036 18.7848 14.5961 18.6649 13.9828 18.666ZM13.9828 25.2803C13.5979 25.2812 13.2214 25.1676 12.901 24.9542C12.5806 24.7408 12.3306 24.437 12.1827 24.0814C12.0349 23.7257 11.9957 23.3341 12.0704 22.9562C12.1449 22.5783 12.3299 22.231 12.6018 21.9583C12.8737 21.6857 13.2202 21.4998 13.5977 21.4243C13.9752 21.3489 14.3664 21.3872 14.7221 21.5345C15.0778 21.6817 15.3819 21.9312 15.5958 22.2514C15.8097 22.5717 15.9239 22.9483 15.9239 23.3335C15.9239 23.8491 15.7195 24.3437 15.3556 24.7086C14.9917 25.0737 14.498 25.2792 13.9828 25.2803Z" fill="#012649"/>
<path d="M41.9807 9.33537C41.058 9.33537 40.156 9.60933 39.3889 10.1226C38.6218 10.6358 38.0241 11.3652 37.6713 12.2186C37.3186 13.072 37.2267 14.0108 37.4074 14.9164C37.588 15.8221 38.0329 16.6537 38.686 17.3061C39.339 17.9585 40.1708 18.4024 41.076 18.5816C41.9811 18.7608 42.9191 18.6671 43.7711 18.3126C44.6231 17.9581 45.3509 17.3586 45.8623 16.5899C46.3738 15.8213 46.6459 14.9181 46.6443 13.9946C46.6448 13.3815 46.5245 12.7744 46.2904 12.2078C46.0562 11.6413 45.7127 11.1265 45.2795 10.693C44.8464 10.2595 44.332 9.91573 43.766 9.68132C43.1999 9.44699 42.5933 9.32664 41.9807 9.32715M41.9807 15.9373C41.5956 15.9381 41.219 15.8246 40.8985 15.611C40.578 15.3973 40.328 15.0933 40.1803 14.7374C40.0325 14.3815 39.9937 13.9897 40.0685 13.6117C40.1435 13.2337 40.3288 12.8864 40.6011 12.6139C40.8734 12.3414 41.2204 12.1559 41.5981 12.0808C41.9758 12.0059 42.3673 12.0448 42.7229 12.1927C43.0785 12.3405 43.3822 12.5907 43.5957 12.9115C43.8091 13.2323 43.9226 13.6092 43.9218 13.9946C43.9207 14.5095 43.7158 15.003 43.3521 15.3671C42.9883 15.7312 42.4952 15.9362 41.9807 15.9373Z" fill="#012649"/>
<path d="M51.3075 9.33537C50.3847 9.33537 49.4828 9.60933 48.7157 10.1226C47.9486 10.6358 47.3509 11.3652 46.9982 12.2186C46.6454 13.072 46.5535 14.0109 46.7341 14.9164C46.9147 15.8221 47.3597 16.6537 48.0128 17.3061C48.6658 17.9586 49.4975 18.4024 50.4027 18.5816C51.3079 18.7608 52.2458 18.6672 53.0978 18.3126C53.9499 17.9581 54.6777 17.3586 55.1891 16.5899C55.7006 15.8213 55.9727 14.9181 55.971 13.9946C55.971 12.7567 55.4797 11.5695 54.6051 10.6942C53.7305 9.81888 52.5443 9.32715 51.3075 9.32715M51.3075 15.9373C50.9226 15.9373 50.5463 15.823 50.2264 15.6089C49.9064 15.3949 49.6571 15.0905 49.51 14.7346C49.3628 14.3786 49.3246 13.9869 49.4 13.6092C49.4754 13.2314 49.661 12.8845 49.9335 12.6124C50.2059 12.3403 50.5529 12.1552 50.9306 12.0806C51.3081 12.0059 51.6994 12.0451 52.0547 12.193C52.4101 12.341 52.7136 12.5912 52.9269 12.9119C53.1401 13.2326 53.2535 13.6094 53.2527 13.9946C53.2527 14.2501 53.2024 14.503 53.1046 14.739C53.0067 14.975 52.8634 15.1893 52.6827 15.3698C52.5021 15.5502 52.2875 15.6932 52.0516 15.7907C51.8156 15.888 51.5627 15.9378 51.3075 15.9373Z" fill="#012649"/>
<path d="M60.6391 9.33537C59.7164 9.33537 58.8145 9.60933 58.0474 10.1226C57.2803 10.6358 56.6825 11.3652 56.3298 12.2186C55.977 13.072 55.8852 14.0109 56.0658 14.9164C56.2464 15.8221 56.6914 16.6537 57.3444 17.3061C57.9975 17.9586 58.8292 18.4025 59.7344 18.5816C60.6396 18.7608 61.5775 18.6672 62.4295 18.3126C63.2816 17.9581 64.0094 17.3586 64.5208 16.5899C65.0322 15.8213 65.3043 14.9181 65.303 13.9946C65.303 12.7567 64.8115 11.5695 63.9368 10.6942C63.0622 9.81888 61.876 9.32715 60.6391 9.32715M60.6391 15.9373C60.2541 15.9382 59.8774 15.8246 59.5569 15.611C59.2364 15.3974 58.9865 15.0934 58.8387 14.7374C58.691 14.3815 58.6521 13.9897 58.727 13.6117C58.802 13.2337 58.9873 12.8864 59.2595 12.6139C59.5319 12.3414 59.8788 12.1559 60.2566 12.0808C60.6343 12.0059 61.0257 12.0448 61.3813 12.1927C61.737 12.3405 62.0407 12.5907 62.2541 12.9115C62.4676 13.2323 62.5811 13.6092 62.5802 13.9946C62.5791 14.5095 62.3743 15.0031 62.0105 15.3671C61.6467 15.7312 61.1536 15.9362 60.6391 15.9373Z" fill="#012649"/>
<path d="M4.66357 0C3.7412 0 2.83955 0.273742 2.07263 0.786608C1.30571 1.29948 0.707968 2.02843 0.354995 2.8813C0.0020206 3.73417 -0.0903334 4.67264 0.0896111 5.57804C0.269556 6.48347 0.713717 7.31512 1.36593 7.96785C2.01814 8.62058 2.84911 9.06512 3.75375 9.24525C4.6584 9.42533 5.59609 9.33291 6.44823 8.97964C7.30037 8.62636 8.02872 8.02809 8.54116 7.26053C9.05366 6.49297 9.32714 5.59059 9.32714 4.66746C9.32714 3.42957 8.83581 2.24238 7.96122 1.36707C7.08663 0.491748 5.90042 0 4.66357 0ZM4.66357 6.61017C4.27867 6.61017 3.90242 6.49586 3.58244 6.28179C3.26247 6.06768 3.01315 5.76339 2.86604 5.40741C2.71893 5.05143 2.68066 4.65978 2.75605 4.28202C2.83144 3.90426 3.01711 3.55738 3.28956 3.28527C3.56202 3.01316 3.90901 2.82807 4.28661 2.75342C4.66421 2.67877 5.05546 2.71791 5.41083 2.86589C5.76619 3.01387 6.06971 3.26404 6.28295 3.58474C6.49623 3.90544 6.60961 4.28223 6.60878 4.66746C6.60878 4.92293 6.55841 5.17588 6.46062 5.41185C6.36283 5.64783 6.21948 5.86217 6.03879 6.04263C5.85811 6.22308 5.64364 6.36609 5.40766 6.46349C5.17168 6.56085 4.91883 6.61069 4.66357 6.61017Z" fill="#012649"/>
<path d="M32.6496 18.666C31.7274 18.6669 30.8261 18.9413 30.0597 19.4546C29.2933 19.968 28.6963 20.6972 28.3439 21.5501C27.9916 22.4031 27.8998 23.3414 28.0802 24.2466C28.2606 25.1517 28.7051 25.983 29.3575 26.6354C30.0099 27.2876 30.8408 27.7318 31.7454 27.9115C32.6499 28.0913 33.5874 27.9986 34.4393 27.6453C35.2912 27.2919 36.0194 26.6936 36.5316 25.9262C37.0438 25.1587 37.3172 24.2564 37.3172 23.3335C37.3172 22.7202 37.1965 22.1129 36.9618 21.5464C36.7272 20.9798 36.3834 20.4651 35.9499 20.0317C35.5163 19.5982 35.0018 19.2545 34.4355 19.0201C33.8692 18.7858 33.2624 18.6655 32.6496 18.666ZM32.6496 25.2803C32.2648 25.2803 31.8887 25.1661 31.5689 24.9522C31.2489 24.7383 30.9997 24.4342 30.8525 24.0785C30.7052 23.7228 30.6667 23.3313 30.7417 22.9537C30.8168 22.576 31.002 22.2291 31.2741 21.9569C31.5462 21.6846 31.8927 21.4992 32.2701 21.4241C32.6474 21.3489 33.0386 21.3875 33.394 21.5349C33.7494 21.6822 34.0532 21.9317 34.267 22.2519C34.4807 22.572 34.5948 22.9484 34.5948 23.3335C34.5953 23.5893 34.5454 23.8427 34.4478 24.0791C34.3502 24.3156 34.207 24.5304 34.0263 24.7113C33.8455 24.8922 33.6309 25.0356 33.3946 25.1332C33.1584 25.2309 32.9052 25.2808 32.6496 25.2803Z" fill="#012649"/>
<path d="M41.9806 0C41.0582 0 40.1566 0.273742 39.3897 0.786608C38.6228 1.29948 38.025 2.02843 37.672 2.8813C37.319 3.73417 37.2267 4.67264 37.4066 5.57804C37.5866 6.48347 38.0308 7.31512 38.683 7.96785C39.3351 8.62058 40.1662 9.06512 41.0708 9.24525C41.9754 9.42533 42.9131 9.33291 43.7653 8.97964C44.6174 8.62636 45.3458 8.02809 45.8582 7.26053C46.3706 6.49297 46.6442 5.59059 46.6442 4.66746C46.6442 4.05452 46.5235 3.44758 46.2892 2.8813C46.0548 2.31502 45.7113 1.80048 45.2783 1.36707C44.8452 0.933653 44.3311 0.589851 43.7653 0.355289C43.1995 0.120727 42.593 0 41.9806 0ZM41.9806 6.61017C41.5955 6.61101 41.2189 6.4974 40.8984 6.28379C40.5779 6.07018 40.3279 5.76617 40.1802 5.41027C40.0324 5.05436 39.9936 4.66258 40.0684 4.28455C40.1434 3.90651 40.3288 3.55924 40.601 3.28673C40.8733 3.01421 41.2203 2.82871 41.598 2.75372C41.9757 2.67873 42.3672 2.71764 42.7228 2.8655C43.0784 3.01336 43.3821 3.26352 43.5956 3.58431C43.809 3.9051 43.9226 4.28206 43.9217 4.66746C43.9217 5.1827 43.7172 5.67683 43.3532 6.04117C42.9891 6.4055 42.4954 6.61017 41.9806 6.61017Z" fill="#012649"/>
<path d="M51.3075 0C50.3851 0 49.4835 0.273742 48.7166 0.786608C47.9496 1.29948 47.3519 2.02843 46.9989 2.8813C46.646 3.73417 46.5536 4.67264 46.7336 5.57804C46.9135 6.48347 47.3576 7.31512 48.0099 7.96785C48.6621 8.62058 49.493 9.06512 50.3977 9.24525C51.3023 9.42533 52.24 9.33291 53.0921 8.97964C53.9443 8.62636 54.6727 8.02809 55.1851 7.26053C55.6976 6.49297 55.971 5.59059 55.971 4.66746C55.971 3.42957 55.4797 2.24238 54.6051 1.36707C53.7305 0.491748 52.5444 0 51.3075 0ZM51.3075 6.61017C50.9226 6.61017 50.5463 6.49586 50.2264 6.28179C49.9064 6.06768 49.657 5.76339 49.51 5.40741C49.3628 5.05143 49.3246 4.65978 49.4 4.28202C49.4754 3.90426 49.661 3.55738 49.9335 3.28527C50.2059 3.01316 50.5529 2.82807 50.9306 2.75342C51.3081 2.67877 51.6994 2.71791 52.0548 2.86589C52.4101 3.01387 52.7136 3.26404 52.9269 3.58474C53.1401 3.90544 53.2535 4.28223 53.2527 4.66746C53.2527 4.92293 53.2024 5.17588 53.1045 5.41185C53.0067 5.64783 52.8634 5.86217 52.6827 6.04263C52.5021 6.22308 52.2876 6.36609 52.0516 6.46349C51.8156 6.56085 51.5627 6.61069 51.3075 6.61017Z" fill="#012649"/>
<path d="M69.9661 0C69.044 0 68.1424 0.273742 67.375 0.786608C66.6082 1.29948 66.0108 2.02843 65.6579 2.8813C65.305 3.73417 65.2126 4.67264 65.3923 5.57804C65.5719 6.48347 66.0166 7.31512 66.6685 7.96785C67.3211 8.62058 68.1521 9.06512 69.0562 9.24525C69.9609 9.42533 70.899 9.33291 71.7512 8.97964C72.6033 8.62636 73.3316 8.02809 73.8437 7.26053C74.3563 6.49297 74.6297 5.59059 74.6297 4.66746C74.6297 4.05452 74.5091 3.44758 74.2749 2.8813C74.0406 2.31502 73.6967 1.80048 73.2636 1.36707C72.8311 0.933653 72.3165 0.589851 71.7512 0.355289C71.1852 0.120727 70.5789 0 69.9661 0ZM69.9661 6.61017C69.5811 6.61017 69.205 6.49586 68.8849 6.28179C68.5653 6.06768 68.3157 5.76339 68.1688 5.40741C68.0218 5.05143 67.9833 4.65978 68.0584 4.28202C68.1341 3.90426 68.3195 3.55738 68.5923 3.28527C68.865 3.01316 69.2115 2.82807 69.5894 2.75342C69.9667 2.67877 70.3581 2.71791 70.7136 2.86589C71.0691 3.01387 71.3726 3.26404 71.5856 3.58474C71.7987 3.90544 71.9122 4.28223 71.9116 4.66746C71.9116 4.92293 71.8609 5.17588 71.7634 5.41185C71.6652 5.64783 71.5221 5.86217 71.3412 6.04263C71.1608 6.22308 70.9465 6.36609 70.7104 6.46349C70.4743 6.56085 70.2214 6.61069 69.9661 6.61017Z" fill="#012649"/>
<path d="M69.9661 18.666C69.044 18.666 68.1424 18.9398 67.375 19.4526C66.6082 19.9655 66.0108 20.6945 65.6579 21.5473C65.305 22.4002 65.2126 23.3387 65.3923 24.2441C65.5719 25.1494 66.0166 25.9811 66.6685 26.6339C67.3211 27.2866 68.1521 27.7311 69.0562 27.9113C69.9609 28.0914 70.899 27.9989 71.7512 27.6457C72.6033 27.2924 73.3316 26.6941 73.8437 25.9266C74.3563 25.159 74.6297 24.2566 74.6297 23.3335C74.6297 22.7206 74.5091 22.1136 74.2749 21.5473C74.0406 20.981 73.6967 20.4665 73.2636 20.0331C72.8311 19.5996 72.3165 19.2559 71.7512 19.0213C71.1852 18.7867 70.5789 18.666 69.9661 18.666ZM69.9661 25.2803C69.5817 25.2803 69.2057 25.1661 68.8855 24.9522C68.5659 24.7383 68.3163 24.4342 68.1694 24.0785C68.0218 23.7228 67.9833 23.3313 68.0584 22.9537C68.1335 22.576 68.3189 22.2291 68.591 21.9569C68.863 21.6846 69.2095 21.4992 69.5868 21.4241C69.9641 21.3489 70.3549 21.3875 70.7104 21.5349C71.0659 21.6822 71.37 21.9317 71.5837 22.2519C71.7974 22.572 71.9116 22.9484 71.9116 23.3335C71.9116 23.8498 71.7063 24.345 71.3418 24.7101C70.9767 25.0752 70.482 25.2803 69.9661 25.2803Z" fill="#012649"/>
<path d="M60.6391 0C59.7168 0 58.8151 0.273742 58.0482 0.786608C57.2813 1.29948 56.6836 2.02843 56.3306 2.8813C55.9776 3.73417 55.8853 4.67264 56.0652 5.57804C56.2451 6.48347 56.6893 7.31512 57.3415 7.96785C57.9937 8.62058 58.8247 9.06512 59.7294 9.24525C60.634 9.42533 61.5717 9.33291 62.4238 8.97964C63.276 8.62636 64.0043 8.02809 64.517 7.26053C65.029 6.49297 65.303 5.59059 65.303 4.66746C65.3017 3.4299 64.8102 2.24335 63.9356 1.36827C63.0612 0.493188 61.8757 0.00108987 60.6391 0ZM60.6391 6.61017C60.2541 6.61101 59.8774 6.4974 59.5569 6.28379C59.2364 6.07018 58.9864 5.76617 58.8387 5.41027C58.691 5.05436 58.6521 4.66258 58.727 4.28455C58.802 3.90651 58.9873 3.55924 59.2596 3.28673C59.5319 3.01421 59.8789 2.82871 60.2566 2.75372C60.6343 2.67873 61.0257 2.71764 61.3813 2.8655C61.7369 3.01336 62.0407 3.26352 62.2541 3.58431C62.4675 3.9051 62.5811 4.28206 62.5802 4.66746C62.5802 5.1827 62.3757 5.67683 62.0117 6.04117C61.6477 6.4055 61.154 6.61017 60.6391 6.61017Z" fill="#012649"/>
<path d="M60.6391 18.666C59.7168 18.666 58.8151 18.9398 58.0482 19.4526C57.2813 19.9655 56.6836 20.6945 56.3306 21.5473C55.9776 22.4002 55.8853 23.3387 56.0652 24.2441C56.2451 25.1494 56.6893 25.9811 57.3415 26.6339C57.9937 27.2866 58.8247 27.7311 59.7294 27.9113C60.634 28.0914 61.5717 27.9989 62.4238 27.6457C63.276 27.2924 64.0043 26.6941 64.517 25.9266C65.029 25.159 65.303 24.2566 65.303 23.3335C65.3017 22.096 64.8102 20.9094 63.9356 20.0343C63.0612 19.1592 61.8757 18.6671 60.6391 18.666ZM60.6391 25.2803C60.2542 25.2811 59.8778 25.1677 59.5573 24.9542C59.2369 24.7408 58.987 24.437 58.839 24.0814C58.6912 23.7257 58.6521 23.3341 58.7267 22.9562C58.8013 22.5783 58.9862 22.231 59.2581 21.9583C59.53 21.6856 59.8766 21.4998 60.2541 21.4243C60.6315 21.3489 61.0228 21.3872 61.3785 21.5345C61.7342 21.6817 62.0382 21.9312 62.2521 22.2514C62.4661 22.5717 62.5802 22.9483 62.5802 23.3335C62.5802 23.8491 62.3759 24.3437 62.012 24.7086C61.6481 25.0737 61.1543 25.2792 60.6391 25.2803Z" fill="#012649"/>
<path d="M51.3075 18.666C50.3851 18.666 49.4835 18.9398 48.7166 19.4526C47.9496 19.9655 47.3519 20.6945 46.9989 21.5473C46.646 22.4002 46.5536 23.3387 46.7336 24.2441C46.9135 25.1494 47.3576 25.9811 48.0099 26.6339C48.6621 27.2866 49.493 27.7311 50.3977 27.9113C51.3023 28.0914 52.24 27.9989 53.0921 27.6457C53.9443 27.2924 54.6727 26.6941 55.1851 25.9266C55.6976 25.159 55.971 24.2566 55.971 23.3335C55.971 22.0956 55.4797 20.9084 54.6051 20.0331C53.7305 19.1578 52.5444 18.666 51.3075 18.666ZM51.3075 25.2803C50.9228 25.2803 50.5467 25.1661 50.2268 24.9522C49.9069 24.7383 49.6576 24.4343 49.5104 24.0785C49.3632 23.7228 49.3246 23.3314 49.3997 22.9537C49.4747 22.576 49.66 22.2291 49.932 21.9569C50.2041 21.6846 50.5507 21.4992 50.928 21.4241C51.3054 21.3489 51.6965 21.3875 52.0519 21.5349C52.4074 21.6822 52.7111 21.9317 52.9249 22.2519C53.1386 22.572 53.2527 22.9484 53.2527 23.3335C53.2533 23.5893 53.2033 23.8427 53.1058 24.0791C53.0082 24.3156 52.8649 24.5304 52.6842 24.7113C52.5034 24.8922 52.2888 25.0356 52.0525 25.1332C51.8163 25.2309 51.5631 25.2809 51.3075 25.2803Z" fill="#012649"/>
<path d="M41.9807 18.666C41.0583 18.666 40.1567 18.9398 39.3898 19.4526C38.6229 19.9655 38.0251 20.6945 37.6721 21.5473C37.3192 22.4002 37.2268 23.3387 37.4067 24.2441C37.5867 25.1494 38.0309 25.9811 38.6831 26.6339C39.3353 27.2866 40.1663 27.7311 41.0709 27.9113C41.9755 28.0914 42.9133 27.9989 43.7654 27.6457C44.6175 27.2924 45.3459 26.6941 45.8583 25.9266C46.3708 25.159 46.6443 24.2566 46.6443 23.3335C46.6443 22.7206 46.5237 22.1136 46.2893 21.5473C46.0549 20.981 45.7114 20.4665 45.2784 20.0331C44.8453 19.5996 44.3312 19.2559 43.7654 19.0213C43.1996 18.7867 42.5931 18.666 41.9807 18.666ZM41.9807 25.2803C41.5959 25.2811 41.2193 25.1677 40.8989 24.9542C40.5785 24.7408 40.3285 24.437 40.1807 24.0814C40.0328 23.7257 39.9937 23.3341 40.0683 22.9562C40.1429 22.5783 40.3278 22.231 40.5997 21.9583C40.8715 21.6856 41.2182 21.4998 41.5956 21.4243C41.973 21.3489 42.3644 21.3872 42.7201 21.5345C43.0757 21.6817 43.3798 21.9312 43.5937 22.2514C43.8076 22.5717 43.9218 22.9483 43.9218 23.3335C43.9218 23.8491 43.7175 24.3437 43.3536 24.7086C42.9896 25.0737 42.4959 25.2792 41.9807 25.2803Z" fill="#012649"/>
<path d="M4.66356 9.33496C3.74085 9.33496 2.83887 9.60892 2.07177 10.1222C1.30467 10.6354 0.706936 11.3648 0.354207 12.2182C0.00147502 13.0715 -0.0903976 14.0104 0.0902149 14.916C0.270827 15.8216 0.715804 16.6533 1.36884 17.3057C2.02188 17.9582 2.85361 18.402 3.7588 18.5812C4.66399 18.7604 5.60193 18.6668 6.45394 18.3122C7.30594 17.9577 8.03372 17.3582 8.5452 16.5895C9.0566 15.8209 9.32873 14.9177 9.32713 13.9942C9.32495 12.7578 8.83266 11.5726 7.95833 10.6991C7.08393 9.8256 5.89899 9.33496 4.66356 9.33496ZM4.66356 15.9451C4.27901 15.9451 3.90309 15.8311 3.58329 15.6174C3.2635 15.4036 3.01417 15.0998 2.86682 14.7443C2.71947 14.3888 2.68071 13.9975 2.75544 13.6201C2.83016 13.2425 3.01502 12.8956 3.28665 12.6232C3.55828 12.3507 3.9045 12.165 4.28156 12.0894C4.65862 12.0138 5.04961 12.0518 5.40512 12.1985C5.76063 12.3452 6.06472 12.5941 6.27895 12.9137C6.49321 13.2333 6.60794 13.6093 6.60877 13.9942C6.60877 14.2497 6.5584 14.5026 6.46061 14.7386C6.36282 14.9746 6.21947 15.1889 6.03879 15.3693C5.8581 15.5498 5.64363 15.6928 5.40765 15.7902C5.17167 15.8876 4.91882 15.9374 4.66356 15.9369" fill="#012649"/>
<path d="M13.9827 9.33498C13.0605 9.33742 12.1598 9.61344 11.3943 10.1282C10.6289 10.6429 10.033 11.3732 9.68224 12.2267C9.33137 13.0803 9.24128 14.0188 9.42326 14.9236C9.60524 15.8284 10.0512 16.6589 10.7047 17.3101C11.3583 17.9613 12.19 18.404 13.0949 18.5821C13.9997 18.7603 14.937 18.6659 15.7883 18.311C16.6396 17.9562 17.3666 17.3567 17.8775 16.5883C18.3884 15.8199 18.6603 14.9172 18.6586 13.9942C18.6576 13.3809 18.5358 12.7738 18.3001 12.2077C18.0645 11.6416 17.7198 11.1275 17.2855 10.6948C16.8512 10.2621 16.336 9.91925 15.7693 9.68594C15.2026 9.45263 14.5955 9.33337 13.9827 9.33498ZM13.9827 15.9452C13.5986 15.9436 13.2235 15.8281 12.9047 15.6133C12.586 15.3986 12.338 15.0942 12.1919 14.7386C12.0458 14.383 12.0082 13.992 12.0839 13.615C12.1595 13.238 12.345 12.8919 12.617 12.6203C12.8889 12.3486 13.2351 12.1637 13.612 12.0888C13.9888 12.0139 14.3794 12.0523 14.7344 12.1993C15.0894 12.3463 15.3931 12.5952 15.6069 12.9146C15.8208 13.234 15.9354 13.6097 15.9362 13.9942C15.9368 14.2509 15.8866 14.5052 15.7885 14.7424C15.6905 14.9796 15.5466 15.1951 15.365 15.3764C15.1834 15.5577 14.9678 15.7013 14.7306 15.7989C14.4934 15.8965 14.2392 15.9463 13.9827 15.9452Z" fill="#012649"/>
<path d="M4.66357 18.666C3.74121 18.666 2.83955 18.9398 2.07263 19.4526C1.30571 19.9655 0.70797 20.6945 0.354995 21.5473C0.00202077 22.4002 -0.0903337 23.3387 0.0896114 24.2441C0.269557 25.1494 0.713719 25.9811 1.36593 26.6339C2.01814 27.2866 2.84911 27.7311 3.75376 27.9113C4.6584 28.0914 5.59608 27.9989 6.44824 27.6457C7.30037 27.2924 8.02873 26.6941 8.54116 25.9266C9.05366 25.159 9.32714 24.2566 9.32714 23.3335C9.32714 22.0956 8.83581 20.9084 7.96122 20.0331C7.08663 19.1578 5.90043 18.666 4.66357 18.666ZM4.66357 25.2803C4.27885 25.2803 3.90276 25.1661 3.58287 24.9522C3.26298 24.7383 3.01366 24.4343 2.86643 24.0785C2.7192 23.7228 2.68068 23.3314 2.75574 22.9537C2.8308 22.576 3.01606 22.2291 3.2881 21.9569C3.56015 21.6846 3.90675 21.4992 4.28408 21.4241C4.66141 21.3489 5.05253 21.3875 5.40797 21.5349C5.76341 21.6822 6.06721 21.9317 6.28095 22.2519C6.49469 22.572 6.60878 22.9484 6.60878 23.3335C6.60929 23.5893 6.55937 23.8427 6.46184 24.0791C6.36426 24.3156 6.22099 24.5304 6.04025 24.7113C5.85951 24.8922 5.64486 25.0356 5.40861 25.1332C5.17237 25.2309 4.91917 25.2809 4.66357 25.2803Z" fill="#012649"/>
<path d="M69.966 9.33537C69.0433 9.33537 68.1417 9.60933 67.3743 10.1226C66.6075 10.6358 66.0095 11.3652 65.6565 12.2186C65.3043 13.072 65.2119 14.0109 65.3928 14.9164C65.5731 15.8221 66.0184 16.6537 66.6717 17.3061C67.3242 17.9586 68.1565 18.4025 69.0612 18.5816C69.9666 18.7608 70.9047 18.6672 71.7562 18.3126C72.6084 17.9581 73.336 17.3586 73.8481 16.5899C74.3595 15.8213 74.6315 14.9181 74.6296 13.9946C74.6296 13.3817 74.509 12.7747 74.2748 12.2085C74.0406 11.6422 73.6966 11.1276 73.2635 10.6942C72.831 10.2608 72.3164 9.91701 71.7511 9.68241C71.1851 9.44788 70.5788 9.32715 69.966 9.32715M69.966 15.9373C69.581 15.9373 69.205 15.823 68.8848 15.6089C68.5652 15.3949 68.3156 15.0905 68.1687 14.7346C68.0217 14.3786 67.9832 13.987 68.0583 13.6092C68.134 13.2314 68.3195 12.8845 68.5922 12.6124C68.8649 12.3403 69.2114 12.1552 69.5893 12.0806C69.9666 12.0059 70.358 12.0451 70.7135 12.193C71.069 12.341 71.3725 12.5912 71.5855 12.9119C71.7986 13.2326 71.9122 13.6094 71.9115 13.9946C71.9102 14.5102 71.7049 15.0043 71.3404 15.3686C70.9753 15.7328 70.4812 15.9373 69.966 15.9373Z" fill="#012649"/>
</g>
<defs>
<clipPath id="clip0_19891_28091">
<rect width="154" height="28" fill="white"/>
</clipPath>
</defs>
</svg>
