<svg width="90" height="26" viewBox="0 0 90 26" fill="none" xmlns="http://www.w3.org/2000/svg">
<g clip-path="url(#clip0_69_1713)">
<path d="M83.25 0.25H70.5V25.75H83.25V0.25Z" fill="#FFAA0D"/>
<path d="M6.75 25.75C13.7912 25.75 19.5 20.0412 19.5 13C19.5 5.95881 13.7912 0.25 6.75 0.25C-0.291187 0.25 -6 5.95881 -6 13C-6 20.0412 -0.291187 25.75 6.75 25.75Z" fill="#E2F78C"/>
<path d="M32.25 25.75C39.2912 25.75 45 20.0412 45 13C45 5.95881 39.2912 0.25 32.25 0.25C25.2088 0.25 19.5 5.95881 19.5 13C19.5 20.0412 25.2088 25.75 32.25 25.75Z" fill="#FFC3DF"/>
<path d="M6.75 0.25H-6V25.75H6.75V0.25Z" fill="#418B5C"/>
<path d="M45 0.25H19.5V13H45V0.25Z" fill="#E14322"/>
<path fill-rule="evenodd" clip-rule="evenodd" d="M57.75 13C56.0592 13 54.4377 12.3283 53.2422 11.1328C52.0466 9.93726 51.375 8.31576 51.375 6.625C51.375 4.93424 52.0466 3.31274 53.2422 2.11719C54.4377 0.92165 56.0592 0.25 57.75 0.25L96 0.25V13H57.75Z" fill="#3B82F6"/>
<path fill-rule="evenodd" clip-rule="evenodd" d="M45 25.75V13H57.75C59.4408 13 61.0623 13.6717 62.2578 14.8672C63.4533 16.0627 64.125 17.6842 64.125 19.375C64.125 21.0658 63.4533 22.6873 62.2578 23.8828C61.0623 25.0784 59.4408 25.75 57.75 25.75H45Z" fill="#9FDBFF"/>
</g>
<defs>
<clipPath id="clip0_69_1713">
<rect width="90" height="26" fill="white"/>
</clipPath>
</defs>
</svg>
