<svg width="186" height="26" viewBox="0 0 186 26" fill="none" xmlns="http://www.w3.org/2000/svg">
<g clip-path="url(#clip0_8758_12415)">
<mask id="mask0_8758_12415" style="mask-type:luminance" maskUnits="userSpaceOnUse" x="0" y="0" width="186" height="26">
<path d="M186 0H0V26H186V0Z" fill="white"/>
</mask>
<g mask="url(#mask0_8758_12415)">
<mask id="mask1_8758_12415" style="mask-type:luminance" maskUnits="userSpaceOnUse" x="0" y="0" width="24" height="25">
<path d="M23.8559 0.224609H0V24.0024H23.8559V0.224609Z" fill="white"/>
</mask>
<g mask="url(#mask1_8758_12415)">
<mask id="mask2_8758_12415" style="mask-type:luminance" maskUnits="userSpaceOnUse" x="0" y="0" width="24" height="25">
<path d="M23.8559 0.224609H0V24.0024H23.8559V0.224609Z" fill="white"/>
</mask>
<g mask="url(#mask2_8758_12415)">
<path d="M9.60903 6.79037L12.4995 7.55893L10.5309 0.224609L7.19727 1.11896L8.38391 5.56619C8.54243 6.16293 9.01185 6.63235 9.60903 6.79037Z" fill="#F34E3F"/>
<path d="M4.72347 21.7279L11.0291 15.4551L13.324 24.0013L16.6575 23.107L13.3362 10.698L0.886517 7.39062L0 10.7318L8.56658 13.0145L2.28709 19.278L4.72347 21.7279Z" fill="#F34E3F"/>
<path d="M16.4805 11.5293L17.2547 14.4225C17.4149 15.0193 17.8842 15.4872 18.4799 15.6452L22.9678 16.8341L23.8543 13.493L16.4805 11.5293Z" fill="#F34E3F"/>
<path d="M19.1305 2.49609L16.2617 5.3525C15.9446 5.66851 15.7646 6.08732 15.7522 6.53525L15.7061 8.34698L17.3867 8.40527C17.3652 8.40527 17.4083 8.40527 17.3867 8.40527C17.8469 8.40527 18.2794 8.22578 18.6041 7.90209L21.5669 4.94597L19.1305 2.49609Z" fill="#F34E3F"/>
</g>
</g>
<path d="M40.6727 11.4538C39.6542 11.028 38.3803 10.6719 36.851 10.3869C35.8077 10.1701 35.026 9.97814 34.5043 9.81091C33.9826 9.64367 33.5964 9.42997 33.344 9.17137C33.0918 8.91278 32.9657 8.55663 32.9657 8.10602C32.9657 7.57025 33.112 7.1568 33.4064 6.86414C33.7007 6.57148 34.101 6.36707 34.6054 6.24939C35.11 6.13325 35.7407 6.07441 36.4975 6.07441C37.4054 6.07441 38.3102 6.18281 39.2103 6.40114C40.1105 6.61948 41.0806 6.96169 42.124 7.42933L42.6784 4.31843C41.7363 3.86627 40.7489 3.53179 39.7133 3.31501C38.6793 3.09822 37.6064 2.98828 36.4975 2.98828C35.1692 2.98828 33.9576 3.19268 32.8644 3.60302C31.7712 4.01338 30.8961 4.60644 30.2404 5.38379C29.5848 6.16113 29.2562 7.11034 29.2562 8.23145C29.2562 9.21784 29.5085 10.0463 30.013 10.7152C30.5176 11.3842 31.2573 11.923 32.2337 12.3334C33.2086 12.7437 34.4544 13.0813 35.9681 13.3492C37.0442 13.5675 37.8508 13.7626 38.3896 13.9392C38.9285 14.1142 39.3489 14.3572 39.651 14.6669C39.9531 14.9767 40.1058 15.4242 40.1058 16.0094C40.1058 16.5453 39.9329 16.9665 39.5888 17.2761C39.2445 17.5858 38.7899 17.7949 38.2261 17.9033C37.6624 18.0117 36.985 18.0659 36.1954 18.0659C35.1022 18.0659 33.9032 17.9234 32.6013 17.6401C31.2978 17.3567 30.175 16.9711 29.2329 16.4864L28.9043 19.5726C29.8122 20.0913 30.9007 20.4846 32.1714 20.7509C33.4407 21.0189 34.7986 21.152 36.2453 21.152C37.692 21.152 38.8849 20.9476 40.0295 20.5373C41.1725 20.1284 42.085 19.5261 42.7672 18.7318C43.4477 17.9374 43.7887 16.9711 43.7887 15.8346C43.7887 14.7816 43.524 13.8943 42.9945 13.1758C42.4651 12.4573 41.6911 11.8844 40.6741 11.457L40.6727 11.4538Z" fill="#060000"/>
<path d="M56.3776 7.71594C55.2175 7.10584 53.9218 6.80078 52.4922 6.80078C51.0626 6.80078 49.7249 7.10584 48.5819 7.71594C47.4373 8.32604 46.5418 9.17926 45.8956 10.274C45.2477 11.3703 44.9238 12.603 44.9238 13.9749C44.9238 15.3469 45.2431 16.55 45.8831 17.6371C46.5216 18.7242 47.417 19.5819 48.5694 20.2091C49.7218 20.8363 51.0284 21.1506 52.4922 21.1506C53.9561 21.1506 55.2175 20.8363 56.3776 20.2091C57.5378 19.5819 58.4425 18.721 59.0903 17.6247C59.7382 16.5299 60.0621 15.3051 60.0621 13.9501C60.0621 12.5952 59.7382 11.3502 59.0903 10.2632C58.4425 9.17616 57.5394 8.32759 56.3776 7.71748V7.71594ZM56.1503 16.1567C55.7968 16.7932 55.3 17.2902 54.6615 17.6495C54.0215 18.0087 53.3066 18.1883 52.5172 18.1883C51.7276 18.1883 50.9615 18.0087 50.3229 17.6495C49.6829 17.2902 49.1784 16.7885 48.8093 16.1443C48.4387 15.5002 48.2548 14.76 48.2548 13.9238C48.2548 13.0876 48.4401 12.3598 48.8093 11.742C49.1798 11.1242 49.6844 10.6379 50.3229 10.2864C50.9615 9.93492 51.6855 9.75994 52.4922 9.75994C53.2988 9.75994 54.023 9.93492 54.6615 10.2864C55.3 10.6379 55.7968 11.1319 56.1503 11.7668C56.5038 12.4032 56.6797 13.1387 56.6797 13.9749C56.6797 14.8111 56.5038 15.5219 56.1503 16.1567Z" fill="#060000"/>
<path d="M71.8424 15.2611C71.7785 15.4283 71.7084 15.5924 71.6275 15.7535C71.2662 16.472 70.7647 17.0418 70.1263 17.4599C69.4862 17.878 68.773 18.087 67.9819 18.087C66.9386 18.087 66.1614 17.8068 65.6491 17.2462C65.1351 16.6856 64.8799 15.8882 64.8799 14.8507V7.07422H61.5254V15.3524C61.5254 16.5231 61.7606 17.5435 62.2324 18.4123C62.7027 19.2825 63.3584 19.9515 64.2008 20.419C65.0418 20.8867 66.0088 21.122 67.102 21.122C68.7497 21.122 70.0546 20.704 71.0124 19.8678C71.3269 19.5937 71.601 19.2933 71.8456 18.9681V20.8464H75.1999V7.07422H71.8456V15.2611H71.8424Z" fill="#060000"/>
<path d="M84.4808 6.82422C82.9001 6.82422 81.7135 7.34295 80.924 8.37889C80.7371 8.6251 80.5689 8.89919 80.4194 9.20114V7.07506H77.0635V20.8473H80.4194V15.1783C80.4194 13.6407 80.7512 12.4065 81.4161 11.4789C82.0795 10.5514 82.9843 10.0869 84.1273 10.0869H84.9604C85.1286 10.1039 85.2797 10.1116 85.4151 10.1116H85.8185L86.1969 7.00074C85.6082 6.88461 85.0368 6.82577 84.4808 6.82577V6.82422Z" fill="#060000"/>
<path d="M91.6586 10.2493C92.3065 9.90705 93.0415 9.73516 93.8669 9.73516C94.5396 9.73516 95.1702 9.83582 95.7588 10.0356C96.3475 10.2369 96.944 10.5621 97.5497 11.0142L98.9374 8.53045C98.1135 7.92808 97.2725 7.48986 96.4144 7.21423C95.5564 6.9386 94.6143 6.80078 93.5896 6.80078C92.2271 6.80078 90.9827 7.0981 89.8552 7.69117C88.7278 8.28423 87.8371 9.1297 87.1815 10.2245C86.5258 11.3208 86.1973 12.5704 86.1973 13.9749C86.1973 15.3794 86.5164 16.6213 87.1564 17.7006C87.7949 18.7799 88.6827 19.6161 89.8179 20.2091C90.9532 20.8021 92.202 21.0995 93.5647 21.0995C94.6065 21.0995 95.5362 20.9694 96.3522 20.7108C97.1682 20.4523 98.0295 20.0202 98.9374 19.4194L97.5995 16.9867C96.9938 17.3878 96.385 17.6929 95.7699 17.9019C95.1563 18.1109 94.5287 18.2163 93.8902 18.2163C93.0665 18.2163 92.3268 18.049 91.6695 17.7145C91.014 17.3801 90.4969 16.8907 90.1185 16.2466C89.7401 15.6024 89.5501 14.8467 89.5501 13.9765C89.5501 13.1062 89.7385 12.3335 90.1185 11.7064C90.4969 11.0793 91.0091 10.5946 91.657 10.2508L91.6586 10.2493Z" fill="#060000"/>
<path d="M109.785 7.61394C108.759 7.08745 107.632 6.82422 106.405 6.82422C104.941 6.82422 103.65 7.12927 102.532 7.73937C101.413 8.34947 100.551 9.19804 99.945 10.2851C99.3392 11.3721 99.0371 12.6016 99.0371 13.972C99.0371 15.3424 99.3564 16.527 99.9964 17.6218C100.635 18.7181 101.535 19.5744 102.695 20.1938C103.855 20.8133 105.159 21.1214 106.605 21.1214C107.615 21.1214 108.515 21.0161 109.304 20.8071C110.095 20.598 110.851 20.2511 111.575 19.7665L110.717 17.0319C110.178 17.4174 109.557 17.7132 108.85 17.9222C108.142 18.1312 107.453 18.2366 106.781 18.2366C105.874 18.2366 105.092 18.074 104.435 17.7472C103.779 17.4205 103.275 16.9405 102.921 16.3041C102.728 15.9571 102.589 15.5623 102.502 15.1256H112.659C112.775 14.7912 112.873 14.435 112.948 14.0587C113.025 13.6825 113.062 13.286 113.062 12.8679C113.062 11.7314 112.772 10.7016 112.191 9.78181C111.611 8.86201 110.809 8.13888 109.782 7.61239L109.785 7.61394ZM102.86 11.6911C103.172 11.0562 103.625 10.5669 104.223 10.2231C104.819 9.88091 105.531 9.70904 106.355 9.70904C107.094 9.70904 107.733 9.85614 108.272 10.1472C108.811 10.4399 109.205 10.8874 109.457 11.4898C109.605 11.8413 109.69 12.2439 109.717 12.6945H102.519C102.597 12.3338 102.709 11.9977 102.86 11.6911Z" fill="#060000"/>
<path d="M125.804 8.95782C125.251 8.23933 124.551 7.70046 123.711 7.33966C122.869 6.98041 121.878 6.80078 120.732 6.80078C119.488 6.80078 118.373 7.09345 117.391 7.67878C116.407 8.26411 115.632 9.07551 115.071 10.1115C114.507 11.1489 114.225 12.3103 114.225 13.5987C114.225 14.887 114.507 15.9787 115.071 16.9728C115.634 17.9685 116.416 18.7536 117.417 19.3311C118.418 19.9087 119.54 20.1968 120.786 20.1968C121.896 20.1968 122.868 20.0218 123.699 19.6702C124.533 19.3188 125.218 18.7845 125.755 18.0644V18.7164C125.755 19.9536 125.355 20.9322 124.556 21.6507C123.757 22.3693 122.651 22.7301 121.239 22.7301C120.314 22.7301 119.413 22.5923 118.54 22.3166C117.664 22.041 116.883 21.66 116.193 21.1754L114.882 23.5337C115.79 24.1516 116.812 24.6254 117.947 24.9506C119.082 25.2773 120.306 25.4399 121.617 25.4399C123.971 25.4399 125.814 24.8128 127.143 23.5585C128.471 22.3043 129.135 20.5575 129.135 18.3153V7.07641H125.807V8.95782H125.804ZM125.236 15.7185C124.875 16.3287 124.383 16.7978 123.761 17.123C123.137 17.4497 122.414 17.6123 121.591 17.6123C120.834 17.6123 120.148 17.4404 119.535 17.0983C118.921 16.756 118.437 16.2744 118.085 15.655C117.731 15.0371 117.556 14.3512 117.556 13.5987C117.556 12.846 117.731 12.1059 118.085 11.4788C118.439 10.8516 118.921 10.3623 119.535 10.0108C120.148 9.65929 120.834 9.48431 121.591 9.48431C122.414 9.48431 123.139 9.6469 123.761 9.97363C124.381 10.3004 124.873 10.7727 125.236 11.3905C125.598 12.0098 125.778 12.7283 125.778 13.5476C125.778 14.3667 125.598 15.1069 125.236 15.717V15.7185Z" fill="#060000"/>
<path d="M134.91 8.3793C134.723 8.62551 134.555 8.89959 134.406 9.20154V7.07548H131.05V20.8477H134.406V15.1787C134.406 13.6411 134.738 12.4069 135.403 11.4793C136.066 10.5518 136.971 10.0873 138.114 10.0873H138.947C139.115 10.1043 139.267 10.1121 139.402 10.1121H139.805L140.183 7.00115C139.594 6.88501 139.023 6.82617 138.467 6.82617C136.887 6.82617 135.7 7.34491 134.91 8.38085V8.3793Z" fill="#060000"/>
<path d="M151.625 8.3183C150.539 7.30714 148.896 6.80078 146.693 6.80078C145.011 6.80078 143.319 7.07641 141.622 7.62922L142.025 10.5636C142.647 10.2957 143.329 10.0913 144.069 9.94886C144.808 9.80639 145.565 9.73516 146.339 9.73516C147.517 9.73516 148.405 9.96124 149 10.4119C149.597 10.864 149.896 11.5329 149.896 12.4187V12.524C149.348 12.476 148.752 12.431 148.105 12.3924C147.264 12.3429 146.44 12.3165 145.632 12.3165C143.816 12.3165 142.47 12.7269 141.595 13.546C140.721 14.3651 140.284 15.4197 140.284 16.7065C140.284 17.5597 140.478 18.3199 140.865 18.9889C141.252 19.6579 141.812 20.1813 142.542 20.5559C143.275 20.9322 144.119 21.1211 145.078 21.1211C146.037 21.1211 146.861 20.9833 147.601 20.7077C148.34 20.4321 148.938 20.0729 149.391 19.6284C149.584 19.4395 149.751 19.2476 149.896 19.0524V20.8455H153.252V12.6432C153.252 10.7711 152.71 9.32791 151.625 8.3152V8.3183ZM148.282 17.7997C147.729 18.1093 147.029 18.2642 146.189 18.2642C145.347 18.2642 144.637 18.1187 144.157 17.8245C143.678 17.5318 143.438 17.1013 143.438 16.533C143.438 15.9306 143.681 15.4708 144.17 15.1533C144.657 14.8359 145.481 14.6764 146.643 14.6764C147.282 14.6764 147.863 14.6887 148.384 14.7135C148.896 14.7384 149.399 14.7832 149.896 14.8482C149.884 15.4785 149.755 16.0437 149.507 16.5439C149.246 17.0703 148.839 17.4884 148.282 17.7981V17.7997Z" fill="#060000"/>
<path d="M166.61 7.72833C165.577 7.11048 164.444 6.80078 163.217 6.80078C162.258 6.80078 161.367 6.96337 160.544 7.2901C159.719 7.61683 159.005 8.08913 158.399 8.70697V7.07641H155.043V25.1627H158.399V19.2677C158.786 19.6857 159.235 20.0295 159.749 20.2958C160.261 20.5637 160.8 20.7727 161.364 20.923C161.927 21.0732 162.536 21.1491 163.194 21.1491C164.455 21.1491 165.598 20.8518 166.625 20.2586C167.651 19.6656 168.462 18.8248 169.059 17.7377C169.655 16.6507 169.954 15.4042 169.954 13.9997C169.954 12.5952 169.655 11.3951 169.059 10.2988C168.462 9.20403 167.646 8.34618 166.612 7.72678L166.61 7.72833ZM166.105 16.1443C165.762 16.7715 165.282 17.2608 164.668 17.6123C164.055 17.9638 163.361 18.1388 162.586 18.1388C161.763 18.1388 161.031 17.9715 160.393 17.6371C159.752 17.3026 159.262 16.8179 158.916 16.1815C158.571 15.5466 158.399 14.8111 158.399 13.9734C158.399 13.1356 158.575 12.3846 158.929 11.7652C159.282 11.1474 159.774 10.6612 160.405 10.3097C161.036 9.95814 161.763 9.78317 162.586 9.78317C163.361 9.78317 164.054 9.95814 164.668 10.3097C165.282 10.6612 165.762 11.1582 166.105 11.8024C166.45 12.4465 166.623 13.1775 166.623 13.9966C166.623 14.8157 166.45 15.5141 166.105 16.1412V16.1443Z" fill="#060000"/>
<path d="M184.611 9.50617C184.14 8.63746 183.483 7.96853 182.642 7.49933C181.801 7.03169 180.834 6.79631 179.741 6.79631C178.091 6.79631 176.79 7.21441 175.83 8.0506C175.516 8.32467 175.241 8.62508 174.998 8.95026V2.33203H171.642V20.8457H174.998V12.6574C175.061 12.4901 175.131 12.3259 175.212 12.1649C175.574 11.4464 176.074 10.8766 176.714 10.4585C177.352 10.0404 178.067 9.83135 178.858 9.83135C179.902 9.83135 180.678 10.1116 181.19 10.6722C181.703 11.2327 181.96 12.0318 181.96 13.0677V20.8442H185.316V12.566C185.316 11.3953 185.08 10.3749 184.608 9.50617H184.611Z" fill="#060000"/>
</g>
</g>
<defs>
<clipPath id="clip0_8758_12415">
<rect width="186" height="26" fill="white"/>
</clipPath>
</defs>
</svg>
