<svg width="121" height="38" viewBox="0 0 121 38" fill="none" xmlns="http://www.w3.org/2000/svg">
<g clip-path="url(#clip0_58_1227)">
<mask id="mask0_58_1227" style="mask-type:luminance" maskUnits="userSpaceOnUse" x="0" y="-1" width="43" height="40">
<path d="M42.577 -0.00427246H0V38.004H42.577V-0.00427246Z" fill="white"/>
</mask>
<g mask="url(#mask0_58_1227)">
<path d="M1.29785 27.7971C1.29785 28.6519 1.99556 29.3461 2.85491 29.3461H11.2591C15.8199 29.3461 19.5884 32.7849 20.0812 37.1963C20.1324 37.6549 20.5188 38.004 20.9839 38.004H28.2488C28.7495 38.004 29.1555 37.6002 29.1555 37.1021C29.1555 31.1106 24.2714 26.2522 18.2483 26.2522H2.85491C1.99556 26.2522 1.29785 26.9462 1.29785 27.801V27.7971Z" fill="black"/>
<path d="M4.11144 32.8829C7.37144 32.8829 10.1544 34.9417 11.2188 37.8158C11.2582 37.9256 11.3646 38 11.4829 38H18.1841C18.3458 38 18.472 37.8629 18.4641 37.7021C18.2196 33.9613 15.0819 30.989 11.2582 30.989H0.950008C0.42573 30.989 0 31.4124 0 31.9339C0 32.4555 0.42573 32.8791 0.950008 32.8791H4.11144V32.8829Z" fill="black"/>
<path d="M4.35314 37.9997C5.40248 37.9997 6.25314 37.1536 6.25314 36.1098C6.25314 35.066 5.40248 34.2197 4.35314 34.2197C3.30378 34.2197 2.45312 35.066 2.45312 36.1098C2.45312 37.1536 3.30378 37.9997 4.35314 37.9997Z" fill="black"/>
<path d="M26.1668 3.4109C25.4217 2.98348 24.4677 3.23837 24.0381 3.97947L19.8359 11.218C17.5536 15.1471 12.6775 16.6724 8.58962 14.8921C8.16388 14.7079 7.6672 14.8648 7.43462 15.2648L3.80014 21.523C3.54786 21.9543 3.69766 22.5072 4.13127 22.7581C9.3504 25.7539 16.0202 23.9776 19.0318 18.7859L26.7265 5.5244C27.1562 4.7833 26.9 3.83439 26.1549 3.40698L26.1668 3.4109Z" fill="black"/>
<path d="M20.3329 3.28951C18.7048 6.0971 15.5197 7.4656 12.4844 6.948C12.3661 6.9284 12.2519 6.9794 12.1928 7.0813L8.84206 12.8534C8.76323 12.9905 8.81447 13.1709 8.96034 13.2415C12.3386 14.9041 16.4973 13.6847 18.4052 10.3908L23.5574 1.50927C23.8214 1.05835 23.6637 0.478011 23.2105 0.219211C22.7571 -0.0435193 22.1737 0.113331 21.9135 0.564281L20.3329 3.28559V3.28951Z" fill="black"/>
<path d="M17.4039 3.77577C18.4533 3.77577 19.3039 2.92958 19.3039 1.88575C19.3039 0.841917 18.4533 -0.00427246 17.4039 -0.00427246C16.3545 -0.00427246 15.5039 0.841917 15.5039 1.88575C15.5039 2.92958 16.3545 3.77577 17.4039 3.77577Z" fill="black"/>
<path d="M34.9634 37.0318C35.7083 36.6043 35.9646 35.6553 35.5349 34.9142L31.3327 27.6757C29.0505 23.7466 30.162 18.7785 33.7571 16.1512C34.1316 15.8768 34.242 15.371 34.0094 14.971L30.375 8.71269C30.1227 8.28139 29.5668 8.13239 29.1332 8.38339C23.9141 11.3791 22.1284 18.0178 25.14 23.2055L32.8347 36.467C33.2643 37.2081 34.2183 37.4631 34.9634 37.0356V37.0318Z" fill="black"/>
<path d="M37.9876 32.0634C36.3597 29.2558 36.7577 25.8287 38.7287 23.4721C38.8035 23.3819 38.8154 23.2563 38.7563 23.1544L35.4057 17.3825C35.3268 17.2452 35.1417 17.202 35.0075 17.2883C31.8697 19.3705 30.8526 23.5584 32.7645 26.8521L37.9167 35.7336C38.1808 36.1845 38.7603 36.3414 39.2136 36.0786C39.667 35.8159 39.8245 35.2396 39.5605 34.7887L37.9797 32.0674L37.9876 32.0634Z" fill="black"/>
<path d="M40.6744 32.1301C41.7237 32.1301 42.5744 31.284 42.5744 30.24C42.5744 29.1962 41.7237 28.3501 40.6744 28.3501C39.625 28.3501 38.7744 29.1962 38.7744 30.24C38.7744 31.284 39.625 32.1301 40.6744 32.1301Z" fill="black"/>
</g>
<path d="M61.3226 11.1929C62.898 11.1929 64.2746 11.5035 65.4526 12.1247C66.6306 12.7458 67.5388 13.6212 68.1776 14.7506C68.8304 15.8658 69.1568 17.1577 69.1568 18.6258C69.1568 20.08 68.8304 21.3717 68.1776 22.5012C67.5388 23.6306 66.6235 24.5058 65.4313 25.127C64.2533 25.7481 62.8838 26.0587 61.3226 26.0587H55.7239V11.1929H61.3226ZM61.0885 22.9247C62.4651 22.9247 63.5366 22.5506 64.303 21.8023C65.0694 21.0541 65.4526 19.9952 65.4526 18.6258C65.4526 17.2564 65.0694 16.1906 64.303 15.4281C63.5366 14.6658 62.4651 14.2847 61.0885 14.2847H59.3642V22.9247H61.0885ZM70.0416 20.1294C70.0416 18.9152 70.2687 17.8494 70.7228 16.9317C71.1912 16.0141 71.8227 15.3081 72.6175 14.8141C73.4123 14.32 74.2993 14.0729 75.2786 14.0729C76.1159 14.0729 76.8468 14.2423 77.4713 14.5812C78.1099 14.92 78.5996 15.3647 78.9402 15.9152V14.2423H82.5805V26.0587H78.9402V24.3858C78.5854 24.9364 78.0886 25.3812 77.45 25.72C76.8255 26.0587 76.0946 26.2281 75.2573 26.2281C74.2922 26.2281 73.4123 25.9812 72.6175 25.487C71.8227 24.9787 71.1912 24.2658 70.7228 23.3481C70.2687 22.4164 70.0416 21.3435 70.0416 20.1294ZM78.9402 20.1506C78.9402 19.247 78.6847 18.5341 78.1738 18.0117C77.6771 17.4894 77.0668 17.2281 76.343 17.2281C75.6192 17.2281 75.0018 17.4894 74.4909 18.0117C73.9942 18.52 73.7458 19.2258 73.7458 20.1294C73.7458 21.0329 73.9942 21.7529 74.4909 22.2894C75.0018 22.8117 75.6192 23.0729 76.343 23.0729C77.0668 23.0729 77.6771 22.8117 78.1738 22.2894C78.6847 21.767 78.9402 21.0541 78.9402 20.1506ZM96.9227 14.2423L89.4719 31.6706H85.5547L88.2797 25.6564L83.4472 14.2423H87.5133L90.2594 21.6329L92.9844 14.2423H96.9227ZM99.5165 26.2281C98.8779 26.2281 98.3527 26.0447 97.9411 25.6777C97.5437 25.2964 97.3451 24.8306 97.3451 24.28C97.3451 23.7152 97.5437 23.2423 97.9411 22.8612C98.3527 22.48 98.8779 22.2894 99.5165 22.2894C100.141 22.2894 100.652 22.48 101.049 22.8612C101.461 23.2423 101.667 23.7152 101.667 24.28C101.667 24.8306 101.461 25.2964 101.049 25.6777C100.652 26.0447 100.141 26.2281 99.5165 26.2281ZM102.672 20.1294C102.672 18.9152 102.899 17.8494 103.353 16.9317C103.822 16.0141 104.453 15.3081 105.248 14.8141C106.043 14.32 106.93 14.0729 107.909 14.0729C108.746 14.0729 109.477 14.2423 110.102 14.5812C110.74 14.92 111.23 15.3647 111.571 15.9152V14.2423H115.211V26.0587H111.571V24.3858C111.216 24.9364 110.719 25.3812 110.08 25.72C109.456 26.0587 108.725 26.2281 107.888 26.2281C106.923 26.2281 106.043 25.9812 105.248 25.487C104.453 24.9787 103.822 24.2658 103.353 23.3481C102.899 22.4164 102.672 21.3435 102.672 20.1294ZM111.571 20.1506C111.571 19.247 111.315 18.5341 110.804 18.0117C110.307 17.4894 109.697 17.2281 108.973 17.2281C108.25 17.2281 107.632 17.4894 107.121 18.0117C106.625 18.52 106.376 19.2258 106.376 20.1294C106.376 21.0329 106.625 21.7529 107.121 22.2894C107.632 22.8117 108.25 23.0729 108.973 23.0729C109.697 23.0729 110.307 22.8117 110.804 22.2894C111.315 21.767 111.571 21.0541 111.571 20.1506ZM119.25 13.0141C118.611 13.0141 118.086 12.8306 117.674 12.4635C117.277 12.0823 117.078 11.6164 117.078 11.0659C117.078 10.5011 117.277 10.0353 117.674 9.66823C118.086 9.28703 118.611 9.09644 119.25 9.09644C119.874 9.09644 120.385 9.28703 120.783 9.66823C121.194 10.0353 121.4 10.5011 121.4 11.0659C121.4 11.6164 121.194 12.0823 120.783 12.4635C120.385 12.8306 119.874 13.0141 119.25 13.0141ZM121.059 14.2423V26.0587H117.419V14.2423H121.059Z" fill="black"/>
</g>
<defs>
<clipPath id="clip0_58_1227">
<rect width="121" height="38" fill="white"/>
</clipPath>
</defs>
</svg>
