<svg width="145" height="36" viewBox="0 0 145 36" fill="none" xmlns="http://www.w3.org/2000/svg">
<path d="M45.2129 28.6532V7.98438H52.3254C53.9718 7.98438 55.3172 8.27568 56.3614 8.85829C57.4151 9.44091 58.196 10.227 58.704 11.2164C59.212 12.206 59.4661 13.3111 59.4661 14.5318C59.4661 15.7433 59.212 16.8484 58.704 17.8471C58.2054 18.8459 57.4292 19.6413 56.3755 20.2331C55.3312 20.8157 53.9905 21.107 52.3536 21.107H47.2732V18.8875H52.2689C53.3978 18.8875 54.3057 18.698 54.9925 18.3188C55.6794 17.9396 56.178 17.4217 56.4884 16.7651C56.7989 16.0993 56.9541 15.3548 56.9541 14.5318C56.9541 13.6995 56.7989 12.9596 56.4884 12.3123C56.178 11.6557 55.6746 11.1425 54.9784 10.7725C54.2916 10.3934 53.3791 10.2038 52.2407 10.2038H47.7531V28.6532H45.2129ZM65.9441 29.0139C64.9468 29.0139 64.0389 28.829 63.2205 28.459C62.402 28.0799 61.7528 27.5342 61.273 26.8221C60.7931 26.1101 60.5532 25.25 60.5532 24.242C60.5532 23.3542 60.732 22.6376 61.0895 22.0919C61.447 21.5371 61.9221 21.1024 62.5148 20.788C63.117 20.4643 63.7755 20.2239 64.4905 20.0666C65.215 19.9094 65.9441 19.7846 66.6779 19.6921C67.6375 19.5719 68.4136 19.4794 69.0064 19.4147C69.6085 19.3499 70.0459 19.2389 70.3188 19.0817C70.601 18.9246 70.7422 18.6563 70.7422 18.2771V18.194C70.7422 17.2044 70.4646 16.4369 69.9095 15.8912C69.3639 15.3364 68.5313 15.059 67.4117 15.059C66.2639 15.059 65.3608 15.3086 64.7022 15.808C64.0436 16.2982 63.5827 16.8252 63.3192 17.3894L61.0048 16.5848C61.4188 15.6416 61.9691 14.9064 62.6559 14.3792C63.3522 13.8521 64.1048 13.4822 64.9139 13.2695C65.7324 13.0568 66.5368 12.9504 67.327 12.9504C67.8351 12.9504 68.4184 13.0106 69.077 13.1308C69.7355 13.2417 70.3753 13.4822 70.9962 13.8521C71.6265 14.2127 72.144 14.763 72.5485 15.5028C72.9625 16.2334 73.1694 17.2137 73.1694 18.4436V28.6532H70.7422V26.5447H70.6293C70.4694 26.8776 70.1965 27.2383 69.8108 27.6267C69.4251 28.0059 68.9123 28.3341 68.2725 28.6116C67.6422 28.8798 66.866 29.0139 65.9441 29.0139ZM66.311 26.8776C67.2706 26.8776 68.0797 26.6927 68.7382 26.3228C69.3968 25.9529 69.8954 25.4766 70.2341 24.894C70.5728 24.3021 70.7422 23.6871 70.7422 23.0491V20.8573C70.6386 20.9775 70.4129 21.0885 70.0648 21.1902C69.7261 21.2827 69.331 21.3659 68.8794 21.4399C68.4372 21.5139 68.0044 21.5786 67.5811 21.6341C67.1577 21.6804 66.819 21.7173 66.565 21.7451C65.9347 21.8284 65.3467 21.9624 64.801 22.1474C64.2554 22.3231 63.8132 22.5866 63.4745 22.938C63.1452 23.2895 62.9806 23.7704 62.9806 24.3808C62.9806 25.2038 63.291 25.828 63.9119 26.2534C64.5423 26.6696 65.342 26.8776 66.311 26.8776ZM78.0948 19.3314V28.6532H75.6963V13.1446H78.0103V15.586H78.2361C78.603 14.7907 79.1629 14.1526 79.9155 13.6718C80.6682 13.1909 81.6421 12.9504 82.8364 12.9504C83.9 12.9504 84.8313 13.1632 85.6311 13.5885C86.4308 14.0139 87.0519 14.6613 87.4936 15.5306C87.9451 16.3906 88.1708 17.4818 88.1708 18.8043V28.6532H85.7723V18.9708C85.7723 17.7593 85.4472 16.8114 84.7984 16.1271C84.1489 15.4334 83.2647 15.0867 82.1451 15.0867C81.3737 15.0867 80.6824 15.2531 80.071 15.586C79.4596 15.919 78.9745 16.3999 78.6172 17.0288C78.2689 17.6576 78.0948 18.4251 78.0948 19.3314ZM97.0763 28.9861C95.6555 28.9861 94.4095 28.6532 93.337 27.9874C92.2644 27.3215 91.4266 26.3875 90.8249 25.1853C90.2322 23.9831 89.9355 22.5866 89.9355 20.996C89.9355 19.3776 90.2322 17.9674 90.8249 16.7651C91.4266 15.5537 92.2644 14.6151 93.337 13.9492C94.4095 13.2834 95.6555 12.9504 97.0763 12.9504C98.5062 12.9504 99.7574 13.2834 100.83 13.9492C101.902 14.6151 102.74 15.5537 103.342 16.7651C103.944 17.9674 104.246 19.3776 104.246 20.996C104.246 22.5866 103.944 23.9831 103.342 25.1853C102.74 26.3875 101.902 27.3215 100.83 27.9874C99.7574 28.6532 98.5062 28.9861 97.0763 28.9861ZM97.0763 26.8499C98.1676 26.8499 99.0615 26.5771 99.7573 26.0315C100.454 25.4858 100.971 24.7691 101.31 23.8813C101.649 22.9843 101.818 22.0225 101.818 20.996C101.818 19.951 101.649 18.98 101.31 18.083C100.971 17.1859 100.454 16.4646 99.7573 15.919C99.0615 15.3641 98.1676 15.0867 97.0763 15.0867C96.0038 15.0867 95.1196 15.3641 94.423 15.919C93.7271 16.4646 93.2099 17.1859 92.8713 18.083C92.532 18.98 92.3631 19.951 92.3631 20.996C92.3631 22.0225 92.532 22.9843 92.8713 23.8813C93.2099 24.7691 93.7271 25.4858 94.423 26.0315C95.1196 26.5771 96.0038 26.8499 97.0763 26.8499ZM106.01 34.4516V13.1446H108.324V15.6138H108.607C108.785 15.3456 109.034 15.0034 109.354 14.5873C109.674 14.1619 110.135 13.7827 110.738 13.4498C111.339 13.1169 112.153 12.9504 113.179 12.9504C114.505 12.9504 115.672 13.2787 116.679 13.9353C117.685 14.5827 118.471 15.5074 119.036 16.7097C119.609 17.9027 119.896 19.3129 119.896 20.9406C119.896 22.5774 119.614 24.0016 119.05 25.213C118.485 26.4153 117.699 27.3447 116.692 28.0013C115.686 28.6579 114.524 28.9861 113.207 28.9861C112.2 28.9861 111.391 28.8197 110.78 28.4867C110.168 28.1446 109.698 27.7608 109.368 27.3354C109.04 26.9008 108.785 26.5447 108.607 26.2673H108.409V34.4516H106.01ZM112.896 26.8499C113.903 26.8499 114.745 26.5863 115.423 26.0592C116.1 25.5228 116.608 24.8061 116.947 23.9091C117.295 23.012 117.469 22.0133 117.469 20.9128C117.469 19.8215 117.299 18.8367 116.961 17.9581C116.622 17.0796 116.114 16.3813 115.437 15.8635C114.769 15.3456 113.922 15.0867 112.896 15.0867C111.909 15.0867 111.081 15.3318 110.413 15.8219C109.745 16.3027 109.237 16.9825 108.889 17.861C108.55 18.7303 108.38 19.7476 108.38 20.9128C108.38 22.078 108.555 23.1092 108.903 24.0062C109.251 24.894 109.759 25.5922 110.427 26.1008C111.105 26.6002 111.928 26.8499 112.896 26.8499ZM128.491 13.1446V15.1699H120.334V13.1446H128.491ZM122.705 9.45472H125.104V24.2143C125.104 25.0188 125.274 25.6107 125.612 25.9899C125.951 26.3597 126.487 26.5447 127.221 26.5447C127.381 26.5447 127.546 26.5355 127.715 26.517C127.893 26.4985 128.086 26.4707 128.293 26.4337L128.801 28.57C128.576 28.6532 128.298 28.718 127.969 28.7642C127.649 28.8197 127.325 28.8474 126.995 28.8474C125.725 28.8474 124.69 28.4775 123.89 27.7377C123.1 26.9979 122.705 26.0361 122.705 24.8524V9.45472ZM136.436 28.9861C135.016 28.9861 133.77 28.6532 132.697 27.9874C131.624 27.3215 130.787 26.3875 130.185 25.1853C129.592 23.9831 129.296 22.5866 129.296 20.996C129.296 19.3776 129.592 17.9674 130.185 16.7651C130.787 15.5537 131.624 14.6151 132.697 13.9492C133.77 13.2834 135.016 12.9504 136.436 12.9504C137.867 12.9504 139.118 13.2834 140.191 13.9492C141.263 14.6151 142.1 15.5537 142.703 16.7651C143.304 17.9674 143.606 19.3776 143.606 20.996C143.606 22.5866 143.304 23.9831 142.703 25.1853C142.1 26.3875 141.263 27.3215 140.191 27.9874C139.118 28.6532 137.867 28.9861 136.436 28.9861ZM136.436 26.8499C137.528 26.8499 138.422 26.5771 139.118 26.0315C139.814 25.4858 140.332 24.7691 140.671 23.8813C141.009 22.9843 141.178 22.0225 141.178 20.996C141.178 19.951 141.009 18.98 140.671 18.083C140.332 17.1859 139.814 16.4646 139.118 15.919C138.422 15.3641 137.528 15.0867 136.436 15.0867C135.364 15.0867 134.48 15.3641 133.784 15.919C133.087 16.4646 132.57 17.1859 132.231 18.083C131.893 18.98 131.723 19.951 131.723 20.996C131.723 22.0225 131.893 22.9843 132.231 23.8813C132.57 24.7691 133.087 25.4858 133.784 26.0315C134.48 26.5771 135.364 26.8499 136.436 26.8499Z" fill="#1A1A1A"/>
<path d="M4.1295 28.3011C5.53528 28.6669 7.0465 28.4841 8.3029 27.7699L12.5554 25.3401L12.5466 9.9947C12.5466 8.26156 12.5642 7.21647 12.5466 5.49207C12.5466 3.58478 13.3725 2.3568 13.9612 1.78201C11.6593 3.09707 8.37323 4.96953 6.08002 6.2846L2.52163 8.3138C1.74845 8.81897 1.10706 9.50694 0.667749 10.3082C0.237227 11.092 0 11.989 0 12.9383V22.9712C0 23.9814 0.272371 24.9307 0.755607 25.7407C1.49365 27.0122 2.70614 27.9354 4.1295 28.3011ZM29.2491 20.1408L25.928 18.2422L12.5027 25.9236L8.36441 28.2925C7.02893 29.0588 5.28927 29.0676 4.52488 28.8672L15.7272 35.2771C16.5795 35.7562 17.5196 36 18.5037 36C19.4877 36 20.4454 35.7474 21.3064 35.2685C24.2059 33.6399 27.0965 31.9677 29.9872 30.313C30.8394 29.8165 31.5511 29.1111 32.0431 28.2663C32.5176 27.4564 32.79 26.5158 32.79 25.5317C32.79 24.4866 32.5703 23.5373 32.0431 22.6228C31.3051 21.3339 30.4968 20.8462 29.2491 20.1408ZM30.4265 20.2191C31.5247 20.8549 32.5703 22.0219 32.8866 23.2063V14.2795V10.4998C32.8866 9.46344 32.6054 8.49673 32.1134 7.66065C31.6038 6.79844 30.8745 6.07558 29.996 5.57916C27.1756 3.96799 24.3465 2.33938 21.5085 0.736913C20.2609 0.0314779 18.776 -0.17754 17.379 0.153405C16.641 0.327587 16.1578 0.597569 15.5252 0.954639C13.724 2.1565 13.0386 3.86348 13.0386 5.95366V10.2734L21.2713 14.9763L26.4639 17.9461C27.9751 18.8082 28.9328 19.3569 30.4265 20.2191Z" fill="#1A1A1A"/>
</svg>
