<svg width="172" height="41" viewBox="0 0 172 41" fill="none" xmlns="http://www.w3.org/2000/svg">
<path d="M54.1807 10.8508H51.8733V28.9871H63.3774V26.7313H54.1807V10.8508ZM151.347 17.4015L146.783 22.651L151.386 27.9433L149.846 29.2783L149.809 29.2354L145.433 24.2029L141.017 29.2783L139.481 27.9433L139.519 27.8981L144.082 22.651L139.481 17.3575L141.017 16.0213L141.057 16.0643L145.433 21.0968L149.846 16.0213L151.386 17.3575L151.347 17.4015ZM121.23 23.8885L108.857 10.8508H108.4V28.9871H110.707V15.9494L123.08 28.9871H123.536V10.8508H121.23V23.8885ZM153.695 16.3136H155.875V28.9871H153.695V16.3136ZM153.591 12.8909H155.976V10.8496H153.591V12.8909ZM138.797 23.1821C138.746 18.6704 136.16 16.1107 132.61 16.1107C129.061 16.1107 126.245 18.9743 126.245 22.651C126.245 26.2998 129.01 29.1901 132.763 29.1901C134.968 29.1901 136.769 28.2773 137.86 27.1372L137.848 27.1244L136.296 25.7755C135.48 26.519 134.254 27.1372 132.763 27.1372C130.455 27.1372 128.706 25.4392 128.501 23.1821H138.797ZM136.338 21.2812H128.605C129.061 19.3547 130.632 18.1137 132.482 18.1137C134.41 18.087 136.032 19.2016 136.338 21.2812ZM163.9 21.7625L162.819 21.3821C161.29 20.8497 160.894 20.242 160.894 19.4568C160.894 18.5695 161.766 18.0626 162.766 18.0626C163.692 18.0626 164.345 18.4396 164.904 19.0508L166.381 17.7669C165.457 16.6592 164.223 16.1107 162.766 16.1107C160.368 16.1107 158.654 17.5802 158.654 19.4823C158.654 21.0028 159.472 22.3969 161.791 23.2332L162.819 23.6136C164.373 24.1448 165.059 24.6772 165.059 25.641C165.059 26.6048 164.005 27.2381 162.714 27.2381C161.321 27.2381 160.429 26.5944 159.603 25.641L158.046 26.9945C159.185 28.3771 160.805 29.1901 162.662 29.1901C165.534 29.1901 167.326 27.593 167.326 25.5645C167.326 23.689 166.139 22.5489 163.9 21.7625ZM89.4098 17.3575L87.8729 16.0213L83.4586 21.0968L79.0823 16.0643L79.044 16.0213L77.5043 17.3575L82.1078 22.651L77.544 27.8981L77.5043 27.9433L79.044 29.2783L83.4586 24.2029L87.8336 29.2354L87.8729 29.2783L89.4098 27.9433L84.8091 22.651L89.3728 17.4015L89.4098 17.3575ZM91.7186 16.3136H93.8999V28.9871H91.7186V16.3136ZM91.6176 12.8909H94.0044V10.8496H91.6176V12.8909ZM76.8221 23.1821C76.7714 18.6704 74.1865 16.1107 70.6354 16.1107C67.0851 16.1107 64.2718 18.9743 64.2718 22.651C64.2718 26.2998 67.0353 29.1901 70.7871 29.1901C72.994 29.1901 74.7942 28.2773 75.8849 27.1372L75.8734 27.1244L74.321 25.7755C73.5042 26.519 72.2791 27.1372 70.7871 27.1372C68.481 27.1372 66.7314 25.4392 66.5281 23.1821H76.8221ZM74.3629 21.2812H66.6291C67.0851 19.3547 68.6583 18.1137 70.5088 18.1137C72.4356 18.087 74.0586 19.2016 74.3629 21.2812ZM101.925 21.7625L100.845 21.3821C99.3157 20.8497 98.9197 20.242 98.9197 19.4568C98.9197 18.5695 99.7911 18.0626 100.792 18.0626C101.717 18.0626 102.371 18.4396 102.929 19.0508L104.406 17.7669C103.483 16.6592 102.249 16.1107 100.792 16.1107C98.3931 16.1107 96.6797 17.5802 96.6797 19.4823C96.6797 21.0028 97.4974 22.3969 99.8154 23.2332L100.845 23.6136C102.399 24.1448 103.085 24.6772 103.085 25.641C103.085 26.6048 102.03 27.2381 100.739 27.2381C99.347 27.2381 98.4548 26.5944 97.6288 25.641L96.0715 26.9945C97.2098 28.3771 98.8306 29.1901 100.687 29.1901C103.559 29.1901 105.352 27.593 105.352 25.5645C105.352 23.689 104.165 22.5489 101.925 21.7625ZM170.812 14.582C170.812 13.632 170.075 12.8886 169.132 12.8886C168.201 12.8886 167.445 13.6471 167.445 14.582C167.445 15.5319 168.186 16.2765 169.132 16.2765C170.075 16.2765 170.812 15.5319 170.812 14.582ZM170.532 14.582C170.532 15.3776 169.918 16.0039 169.132 16.0039C168.347 16.0039 167.731 15.3776 167.731 14.582C167.731 13.7979 168.359 13.1589 169.132 13.1589C169.905 13.1589 170.532 13.7979 170.532 14.582ZM169.454 14.6655L169.91 15.5052H169.571L169.135 14.7119H168.803V15.5052H168.489V13.6031H169.16C169.592 13.6031 169.841 13.8014 169.841 14.1459C169.841 14.4254 169.71 14.6005 169.454 14.6655ZM169.138 13.8884H168.803V14.4382H169.146C169.417 14.4382 169.531 14.3523 169.531 14.1529C169.531 13.9708 169.41 13.8884 169.138 13.8884ZM42.5906 9.15625C42.5906 8.20637 41.8528 7.46289 40.9107 7.46289C39.9802 7.46289 39.2227 8.22141 39.2227 9.15625C39.2227 10.1062 39.9652 10.8508 40.9107 10.8508C41.8528 10.8508 42.5906 10.1062 42.5906 9.15625ZM42.311 9.15625C42.311 9.95305 41.6961 10.5782 40.9107 10.5782C40.1253 10.5782 39.5104 9.95305 39.5104 9.15625C39.5104 8.3722 40.138 7.73315 40.9107 7.73315C41.6834 7.73315 42.311 8.3722 42.311 9.15625ZM41.2332 9.24089L41.6892 10.0795H41.3504L40.9142 9.28613H40.5824V10.0795H40.268V8.17731H40.9386C41.3713 8.17731 41.6195 8.37564 41.6195 8.72012C41.6195 8.99964 41.4896 9.17478 41.2332 9.24089ZM40.9177 8.46265H40.5824V9.01358H40.9246C41.1961 9.01358 41.3098 8.92771 41.3098 8.72709C41.3098 8.54499 41.1891 8.46265 40.9177 8.46265Z" fill="white"/>
<path d="M8.30212 18.0847C10.3127 14.0775 13.6203 10.8566 17.5185 8.98345C17.9744 8.76655 18.4384 8.56593 18.9072 8.38383C18.9489 8.36641 18.9315 8.30493 18.8863 8.31309C5.00845 10.6478 -0.946673 27.8923 8.32069 35.2723C8.35663 35.3013 8.40312 35.2573 8.37639 35.2213C7.0306 33.376 3.8552 27.0154 8.30212 18.0847ZM11.4903 29.5821C11.126 27.3066 11.1318 24.9938 11.4929 22.7611C12.2192 18.2876 14.3806 14.1876 17.4897 11.1489C18.0675 10.5794 18.6813 10.054 19.3182 9.5645C19.353 9.53782 19.3208 9.48335 19.2799 9.50077C12.0254 12.7425 7.83953 20.8324 8.37551 28.202C8.6702 31.5701 9.99509 37.7729 16.4549 38.9977C16.4955 39.0047 16.5175 38.9514 16.4839 38.9282C13.8259 37.1025 11.9567 32.8309 11.4903 29.5821ZM2.52364 12.9675C5.76746 8.38732 12.4256 5.29634 18.9295 6.10011C18.9758 6.1062 18.9886 6.03982 18.9445 6.02818C13.9802 4.57721 8.81631 5.55033 5.66069 8.09849C4.30678 9.19104 3.25567 11.077 2.45864 12.9304C2.44011 12.9733 2.49693 13.0046 2.52364 12.9675ZM39.158 18.6843C38.3007 8.20173 28.8511 0.258023 18.3737 1.21489C14.7332 1.5466 10.8385 3.05091 7.93461 5.50627C7.89871 5.53648 7.93726 5.59214 7.97753 5.56779C10.4614 4.14699 13.8839 4.18178 15.9026 4.4172C16.9665 4.54131 18.0176 4.76402 19.035 5.07834C20.0525 5.39496 21.0398 5.80555 21.9795 6.29963C22.4668 6.55481 22.9413 6.83548 23.4007 7.13705C25.1142 6.37505 26.9218 5.86818 28.7421 5.613H28.7482C28.8769 5.59448 29.0092 5.66407 29.0533 5.78698C29.1101 5.94822 29.0104 6.11175 28.8537 6.14421C27.8746 6.35185 26.9105 6.63366 25.9742 6.98626C25.9336 7.00254 25.944 7.06393 25.9893 7.06393C27.3165 7.06829 28.6368 7.21123 29.9211 7.47916L29.9272 7.48004C30.042 7.50553 30.1337 7.59484 30.1476 7.70968C30.1685 7.89989 30.0084 8.03793 29.839 8.01474C28.7113 7.84424 27.5674 7.77579 26.4258 7.81292C26.3817 7.81376 26.3736 7.87789 26.4165 7.89059C26.9501 8.05412 27.4745 8.24085 27.9908 8.44848C28.9607 8.844 29.8935 9.32185 30.7798 9.86581L30.7891 9.87361C30.8738 9.92469 30.9295 10.0198 30.9179 10.1195C30.8924 10.3329 30.6766 10.4245 30.5165 10.3364C29.6336 9.84927 28.7125 9.43171 27.7623 9.09304C27.3621 8.95386 26.9572 8.82631 26.5499 8.71495C26.5047 8.7034 26.4792 8.76254 26.5175 8.78688C27.1845 9.20789 27.8215 9.66836 28.4236 10.174C29.2253 10.8456 29.9678 11.5844 30.6407 12.3789L30.6468 12.3859C30.7118 12.4635 30.7338 12.5714 30.692 12.6619C30.6004 12.8568 30.3649 12.8765 30.2407 12.7408C29.562 11.995 28.8195 11.3072 28.0248 10.6867C27.555 10.3202 27.063 9.98273 26.556 9.66722C26.5167 9.64287 26.4737 9.69504 26.5062 9.72984C26.6512 9.88063 26.7927 10.036 26.932 10.1927C27.6257 10.9825 28.2476 11.8327 28.7848 12.7315C29.3219 13.6281 29.7755 14.5745 30.1398 15.5499L30.1433 15.5569C30.1769 15.652 30.1618 15.7622 30.0911 15.8341C29.9368 15.9872 29.7071 15.9245 29.6374 15.7506C29.2616 14.8157 28.801 13.9134 28.2615 13.0621C27.722 12.2096 27.1037 11.4081 26.4192 10.667C25.7335 9.92817 24.9806 9.25084 24.1731 8.64659C23.9457 8.4749 23.6012 8.23715 23.4643 8.14898C7.69421 16.9406 13.1667 40.0236 24.5478 38.8243C33.5878 36.6798 39.9374 28.2037 39.1589 18.6838M4.91553 15.804C8.55262 10.0407 14.8906 7.55982 18.7736 7.18755C18.8178 7.18406 18.8178 7.11557 18.7736 7.11332C17.1691 6.97414 15.6841 7.07967 13.7397 7.48449C11.7732 7.93451 9.87985 8.71041 8.186 9.80645C6.48752 10.8944 4.98975 12.292 3.77507 13.9007C3.7635 13.9157 3.75184 13.9344 3.73914 13.9494C1.39677 17.0868 0.644989 21.1172 1.57543 24.9203C1.68102 25.3552 1.97686 26.2564 2.17756 26.8294C2.19148 26.8711 2.25526 26.8572 2.24952 26.812C1.76689 22.3107 3.07549 18.7186 4.91553 15.804Z" fill="#E8171F"/>
</svg>
