<svg width="160" height="33" viewBox="0 0 160 33" fill="none" xmlns="http://www.w3.org/2000/svg">
<g clip-path="url(#clip0_19784_2858)">
<path d="M0.149414 24.3924C0.149414 19.7909 3.87973 16.0605 8.48129 16.0605H20.3263C24.9279 16.0605 28.6582 19.7909 28.6582 24.3924V32.2373H0.149414V24.3924Z" fill="url(#paint0_linear_19784_2858)"/>
<path d="M8.23783 16.3789L20.5701 16.3789C25.0372 16.3789 28.6584 12.7576 28.6584 8.29054C28.6584 3.82347 25.0372 0.202181 20.5701 0.202181L8.23783 0.202181C3.77076 0.202181 0.149473 3.82347 0.149473 8.29054C0.149473 12.7576 3.77076 16.3789 8.23783 16.3789Z" fill="url(#paint1_linear_19784_2858)"/>
<path d="M8.23984 0.201172C12.7067 0.20129 16.3277 3.82265 16.3277 8.28955C16.3277 12.1799 13.581 15.4283 9.92106 16.2022C13.5691 16.8982 16.3264 20.1045 16.3264 23.9551V32.2386H0.150146V23.9551C0.150146 20.1041 2.90796 16.8974 6.5564 16.2018C2.89734 15.4272 0.151471 12.1793 0.151471 8.28955C0.151542 3.82258 3.77286 0.201172 8.23984 0.201172Z" fill="url(#paint2_linear_19784_2858)"/>
<path d="M148.138 32.2098C142.171 32.2098 138.233 27.2576 138.233 20.7845C138.233 13.7266 142.795 9.28125 148.215 9.28125C151.452 9.28125 154.221 10.958 155.663 13.6486H155.741V9.90516H159.68V31.5469H155.897V27.9595H155.78C154.143 30.845 151.14 32.2098 148.138 32.2098ZM142.366 20.7066C142.366 25.2689 145.135 28.4664 148.995 28.4664C152.895 28.4664 155.702 25.0349 155.702 20.6676C155.702 16.1832 152.778 12.9857 148.956 12.9857C145.096 12.9857 142.366 16.2612 142.366 20.7066Z" fill="white"/>
<path d="M116.484 31.5469V9.90516H120.383V13.6096H120.462C122.099 10.6071 124.751 9.28125 127.676 9.28125C131.575 9.28125 135.396 11.6989 135.396 17.938V31.5469H131.419V19.6927C131.419 15.4813 129.625 13.0247 126.389 13.0247C122.801 13.0247 120.462 15.9493 120.462 19.9267V31.5469H116.484Z" fill="white"/>
<path d="M100.344 32.2098C94.3775 32.2098 90.439 27.2576 90.439 20.7845C90.439 13.7266 95.0012 9.28125 100.422 9.28125C103.658 9.28125 106.427 10.958 107.869 13.6486H107.948V9.90516H111.886V31.5469H108.104V27.9595H107.987C106.349 30.845 103.346 32.2098 100.344 32.2098ZM94.5723 20.7066C94.5723 25.2689 97.3411 28.4664 101.201 28.4664C105.101 28.4664 107.908 25.0349 107.908 20.6676C107.908 16.1832 104.984 12.9857 101.163 12.9857C97.3022 12.9857 94.5723 16.2612 94.5723 20.7066Z" fill="white"/>
<path d="M83.3511 31.5469V0.351562H87.3289V31.5469H83.3511Z" fill="white"/>
<path d="M74.7815 31.5463V11.8932C74.7815 10.7949 75.6719 9.9045 76.7702 9.9045C77.8685 9.9045 78.7589 10.7949 78.7589 11.8932V31.5463H74.7815ZM74.0796 2.6906C74.0796 1.20882 75.2498 0 76.8095 0C78.3693 0 79.539 1.20882 79.539 2.6906C79.539 4.25036 78.3693 5.49817 76.8095 5.49817C75.2498 5.49817 74.0796 4.25036 74.0796 2.6906Z" fill="white"/>
<path d="M37.5142 31.5463V1.13086H42.6614C46.2879 9.16365 49.9141 17.2355 53.5019 25.2682H53.5797C57.2063 17.2355 60.7937 9.16365 64.4203 1.13086H69.6063V31.5463H65.3559V9.08568H65.2C61.8856 16.5726 58.532 24.0594 55.2176 31.5463H51.8639C48.5496 24.0594 45.196 16.5726 41.8815 9.08568H41.7645V31.5463H37.5142Z" fill="white"/>
</g>
<defs>
<linearGradient id="paint0_linear_19784_2858" x1="14.4038" y1="32.2373" x2="14.4038" y2="16.0605" gradientUnits="userSpaceOnUse">
<stop stop-color="#FCFF6C"/>
<stop offset="0.552885" stop-color="#FF95B4"/>
<stop offset="1" stop-color="#F8286D"/>
</linearGradient>
<linearGradient id="paint1_linear_19784_2858" x1="14.404" y1="0.202181" x2="14.404" y2="16.3789" gradientUnits="userSpaceOnUse">
<stop stop-color="#FCFF6C"/>
<stop offset="0.528846" stop-color="#FF95B4"/>
<stop offset="1" stop-color="#F8286D"/>
</linearGradient>
<linearGradient id="paint2_linear_19784_2858" x1="8.23808" y1="32.2386" x2="7.84355" y2="0.201175" gradientUnits="userSpaceOnUse">
<stop stop-color="#F8286D"/>
<stop offset="0.3" stop-color="#FF95B4"/>
<stop offset="0.5" stop-color="#FCFF6C"/>
<stop offset="0.7" stop-color="#FF95B4"/>
<stop offset="1" stop-color="#F8286D"/>
</linearGradient>
<clipPath id="clip0_19784_2858">
<rect width="160" height="32.5424" fill="white"/>
</clipPath>
</defs>
</svg>
