<svg width="130" height="52" viewBox="0 0 130 52" fill="none" xmlns="http://www.w3.org/2000/svg">
<g clip-path="url(#clip0_216_2636)">
<mask id="mask0_216_2636" style="mask-type:luminance" maskUnits="userSpaceOnUse" x="0" y="0" width="130" height="52">
<path d="M130 0H0V51.3953H130V0Z" fill="white"/>
</mask>
<g mask="url(#mask0_216_2636)">
<mask id="mask1_216_2636" style="mask-type:luminance" maskUnits="userSpaceOnUse" x="0" y="0" width="130" height="52">
<path d="M129.145 0H0.855957V51.3953H129.145V0Z" fill="white"/>
</mask>
<g mask="url(#mask1_216_2636)">
<path d="M100.644 0V25.6292C99.7515 26.3144 98.996 27.0683 98.2405 27.8906V0H69.7393V23.3678H67.4043V0H38.9719V23.3678H36.5682V0H8.13577V26.6571L0.855957 50.8471H7.24295L10.4708 40.1568H11.3636L16.6519 50.8471H24.3438L19.1928 40.1568H30.868L27.6402 50.8471H34.6452L37.8731 40.1568H39.384H41.5818H41.7877H54.9737L51.8834 50.8471H58.8884L61.9103 40.1568H65.0693L65.1381 50.8471H71.0443L77.8433 40.1568H82.3074L80.0411 50.8471H86.9775L89.2439 40.1568H93.2271C93.0897 43.4462 93.9139 46.4614 96.1116 48.4487C98.7899 50.9157 102.911 51.3953 106.001 51.3953C110.19 51.3953 114.517 50.7786 118.844 49.8192L121.248 40.1568H129.145V0H100.644ZM35.6066 24.7382L35.1945 26.1088L31.4174 38.6493L31.28 39.0605H18.7807L17.8193 37.0047L31.2114 23.2992H22.6267L12.1191 34.6748L15.4843 23.3678H9.09725V1.02791H35.5381V24.7382H35.6066ZM42.9552 35.36C42.6806 35.36 42.4059 35.4285 42.1311 35.4285C41.719 35.4285 41.4444 35.4285 41.1697 35.4285H39.4526L40.2082 32.5503L40.5514 31.1113L41.4444 27.7535C41.8564 27.7535 42.1997 27.7535 42.6118 27.7535H43.9168C46.183 27.7535 47.5566 27.8906 48.106 28.5758C48.518 29.1241 48.4494 30.0149 47.9687 31.454C47.2133 33.8525 46.183 35.1544 42.9552 35.36ZM62.185 39.1289L65.0007 29.261L65.0693 39.1289H62.185ZM66.4429 23.3678H59.8499L55.3172 39.1289H48.2434C51.8146 37.827 54.0123 35.2915 54.6991 31.5224C55.2484 28.6443 54.9737 26.7256 53.8063 25.2865C52.0208 23.1622 48.4494 23.2992 45.2902 23.2992C44.7409 23.2992 40.0707 23.2992 40.0707 23.2992V1.02791H66.5115V23.3678H66.4429ZM82.4449 39.1289H78.4616L84.5052 29.6722L82.4449 39.1289ZM97.2791 23.779V29.261C95.4247 31.7966 94.2573 34.6062 93.7765 36.7991C93.5706 37.5529 93.4332 38.3752 93.3646 39.1289H89.4499L92.7464 23.3678H81.5519L71.525 39.1289H70.7696V1.02791H97.2104V23.779H97.2791ZM112.525 45.5706C111.015 45.8447 109.504 46.0502 108.062 46.0502C104.215 46.0502 101.606 44.2685 101.537 40.1568H113.83L112.525 45.5706ZM128.115 39.1289H121.453L122.552 34.7433H109.229L108.13 39.1289H101.674V38.2381C101.743 37.7585 101.88 37.2102 102.018 36.662C103.185 31.9336 106.344 27.2052 111.701 27.2052C113.83 27.2052 115.959 28.0275 115.685 30.9743H123.651C123.995 29.6037 124.475 27.2738 122.964 25.0809C121.248 22.7511 117.882 21.7916 113.418 21.7916C110.259 21.7916 105.658 22.2713 101.674 24.8753V1.02791H128.115V39.1289Z" fill="#00338D"/>
</g>
</g>
</g>
<defs>
<clipPath id="clip0_216_2636">
<rect width="130" height="51.3953" fill="white"/>
</clipPath>
</defs>
</svg>
