<svg width="190" height="50" viewBox="0 0 190 50" fill="none" xmlns="http://www.w3.org/2000/svg">
<g clip-path="url(#clip0_2868_3842)">
<path d="M182.987 5.19472H151.549C150.968 2.23416 148.361 0 145.232 0C142.104 0 139.496 2.23416 138.916 5.19472H7.01324C3.13992 5.19472 0 8.33568 0 12.2112V42.9827C0 46.8582 3.13992 50 7.01324 50H182.988C186.861 50 190 46.8582 190 42.9827V12.2112C190 8.33568 186.86 5.1939 182.988 5.1939L182.987 5.19472Z" fill="#0070C0"/>
<path d="M182.723 8.04984H150.414C150.555 7.57677 150.632 7.07583 150.632 6.55604C150.632 3.68731 148.308 1.36133 145.441 1.36133C142.574 1.36133 140.249 3.68731 140.249 6.55604C140.249 7.07505 140.326 7.57677 140.468 8.04984H7.07165C4.46025 8.04984 2.34375 10.1676 2.34375 12.7805V42.5887C2.34375 45.2016 4.46025 47.3193 7.07165 47.3193H182.723C185.334 47.3193 187.45 45.2016 187.45 42.5887V12.7805C187.45 10.1676 185.334 8.04984 182.723 8.04984Z" fill="white"/>
<path d="M66.332 40.1472H72.3293L84.5752 22.2289L96.2771 40.1472H102.49L85.712 15.2305H83.62L66.332 40.1472Z" fill="#0070C0"/>
<path d="M136.026 40.1472L124.799 27.1399L135.399 15.2305H129.038L121.64 23.4809L114.52 15.2305H108.16L118.369 27.1285L106.695 40.1472H113.222L121.53 30.813L129.541 40.1472H136.026Z" fill="#333333"/>
<path d="M148.077 15.2305H142.387V40.162H148.077V15.2305Z" fill="#0070C0"/>
<path d="M156.531 33.2944L162.18 32.4574C162.18 32.4574 162.515 35.6811 165.319 36.56C168.122 37.4389 174.733 37.4389 174.733 32.8337C174.733 32.8337 174.858 30.6151 171.636 29.5263C168.414 28.4375 163.393 27.3077 160.757 25.5491C158.121 23.7905 158.204 22.1163 158.33 20.693C158.455 19.2697 159.669 16.7158 164.732 15.4597C169.795 14.2037 175.359 14.3709 179.334 19.018L174.732 20.902C174.732 20.902 172.515 17.4274 167.41 18.599C162.305 19.7715 163.895 22.8271 165.527 23.4552C167.158 24.0832 172.473 25.4646 175.067 26.4698C177.661 27.475 180.589 29.4001 180.255 33.7126C179.92 38.0251 174.565 40.1601 170.339 40.5782C166.114 40.9971 158.414 40.2855 156.531 33.2936V33.2944Z" fill="#333333"/>
<path d="M16.4582 15.2788H9.65234V40.1472H15.2595V30.1276C15.2595 30.1276 30.4339 31.5508 30.4339 22.3682C30.4339 22.3682 30.7968 14.8328 16.4591 15.2788H16.4582ZM15.3143 26.6103V18.7674C15.3143 18.7674 24.966 17.8188 24.966 22.6888C24.966 27.5589 15.3143 26.6103 15.3143 26.6103Z" fill="#333333"/>
<path d="M50.3378 29.5903C50.3378 29.5903 58.4343 28.3974 58.4343 22.6821C58.4343 16.9667 51.8439 15.6697 48.6851 15.4812C45.5263 15.2926 37.6602 15.2598 37.6602 15.2598V40.1471H43.309V29.9667H44.2506L54.8577 40.1471H61.6987L50.3387 29.5896L50.3378 29.5903ZM43.3779 26.6946V18.8795C43.3779 18.8795 53.0295 17.8186 53.0295 22.6477C53.0295 27.4767 43.3779 26.6946 43.3779 26.6946Z" fill="#333333"/>
<path d="M84.6173 37.6178C86.8583 37.6178 88.6755 35.7997 88.6755 33.5569C88.6755 31.3142 86.8583 29.4961 84.6173 29.4961C82.3758 29.4961 80.5586 31.3142 80.5586 33.5569C80.5586 35.7997 82.3758 37.6178 84.6173 37.6178Z" fill="#C9121C"/>
<path d="M145.653 10.4045C147.675 10.4045 149.314 8.76446 149.314 6.74134C149.314 4.7182 147.675 3.07812 145.653 3.07812C143.631 3.07812 141.992 4.7182 141.992 6.74134C141.992 8.76446 143.631 10.4045 145.653 10.4045Z" fill="#C9121C"/>
</g>
<defs>
<clipPath id="clip0_2868_3842">
<rect width="190" height="50" fill="white"/>
</clipPath>
</defs>
</svg>
