<svg width="145" height="50" viewBox="0 0 145 50" fill="none" xmlns="http://www.w3.org/2000/svg">
<g clip-path="url(#clip0_2868_3423)">
<path d="M60.5737 17.0083H57.8254V16.6584H58.7787V11.212H56.8721V11.9719H56.4141V10.4707H56.8721V10.7348H61.527V10.4707H61.9851V11.9719H61.527V11.212H59.6181V16.6584H60.5737V17.0083Z" fill="#005797"/>
<path d="M69.2441 17.0078H66.9724V16.658H67.6909V14.0449H64.1125V16.658H64.8263V17.0078H62.5547V16.658H63.2732V11.0865H62.5547V10.7344H64.8263V11.0865H64.1125V13.6163H67.6909V11.0865H66.9724V10.7344H69.2441V11.0865H68.5187V16.658H69.2441V17.0078Z" fill="#005797"/>
<path d="M74.3817 17.0083H70.043V16.6584H70.7568V11.0869H70.043V10.7348H73.8492V10.4707H74.2863V11.9835H73.8585V11.1726H71.5962V13.6051H73.3981V12.8939L73.8399 12.8846V14.7565L73.3981 14.7658V14.0314H71.5962V16.582H73.9422V15.7457H74.3817V17.0083Z" fill="#005797"/>
<path d="M83.8073 11.0865H83.0911V14.7074C83.0911 15.7244 82.7284 16.38 81.9355 16.8063C81.5356 17.0148 81.0799 17.1306 80.6102 17.1306C79.2291 17.1306 78.2083 16.2179 78.2083 14.9715V11.0842H77.4922V10.7344H79.7638V11.0842H79.0477V14.6773C79.0477 15.8263 79.7266 16.5793 80.7846 16.5793C81.8425 16.5793 82.6075 15.8101 82.6075 14.6657V11.0842H81.8913V10.7344H83.8096V11.0842L83.8073 11.0865Z" fill="#005797"/>
<path d="M89.69 17.1137H89.3947L85.7303 12.0981V16.6596H86.4557V17.0117H84.5282V16.6596H85.2536V11.4518L84.9979 11.0904H84.3398V10.7383H85.7233L89.2133 15.5082V11.0904H88.4879V10.7383H90.4061V11.0904H89.69V17.1137Z" fill="#005797"/>
<path d="M93.3693 17.0078H91.0977V16.658H91.8161V11.0865H91.0977V10.7344H93.3693V11.0865H92.6532V16.658H93.3693V17.0078Z" fill="#005797"/>
<path d="M97.2237 17.1716H96.9005L94.4963 11.0881H93.9336V10.7383H96.2983V11.0881H95.4031L97.2516 15.7561L99.0838 11.0881H98.4537V10.7383H100.086V11.0881H99.6092L97.2237 17.1716Z" fill="#005797"/>
<path d="M104.997 17.0083H100.656V16.6584H101.372V11.0869H100.656V10.7348H104.462V10.4707H104.902V11.9835H104.472V11.1726H102.209V13.6051H104.014V12.8939L104.456 12.8846V14.7565L104.014 14.7658V14.0314H102.209V16.582H104.558V15.7457H104.997V17.0083Z" fill="#005797"/>
<path d="M111.427 17.0078H110.615C110.053 17.0078 109.948 16.9522 109.634 16.4472L108.211 14.1954H107.467V16.6557H108.183V17.0078H105.914V16.6557H106.63V11.0842H105.914V10.7344H108.565C109.49 10.7344 110.016 10.9892 110.302 11.5776C110.425 11.8371 110.492 12.122 110.492 12.4255C110.492 13.3475 109.976 13.936 109.06 14.068L110.436 16.1808C110.664 16.5306 110.818 16.6464 111.055 16.6464H111.427V17.0078ZM107.47 13.7576H108.386C109.111 13.7576 109.618 13.2248 109.618 12.4464C109.618 11.668 109.167 11.1745 108.367 11.1745H107.47V13.7576Z" fill="#005797"/>
<path d="M112.645 17.0941H112.196V15.3821H112.645V16.1327C113.226 16.5218 113.484 16.6191 113.903 16.6191C114.667 16.6191 115.181 16.2207 115.181 15.6207C115.181 15.0763 114.809 14.6801 113.779 14.1473C112.577 13.5218 112.168 13.0446 112.168 12.2662C112.168 11.3233 112.97 10.6214 114.049 10.6214C114.526 10.6214 114.877 10.7071 115.184 10.8878V10.5449H115.623V12.1712H115.184V11.4947C114.698 11.1704 114.458 11.0754 114.077 11.0754C113.431 11.0754 113.01 11.4669 113.01 12.0554C113.01 12.5419 113.286 12.8175 114.477 13.501C115.672 14.1844 116.014 14.6037 116.014 15.3821C116.014 16.3713 115.195 17.1311 114.116 17.1311C113.514 17.1311 113.121 17.006 112.647 16.7025V17.0917L112.645 17.0941Z" fill="#005797"/>
<path d="M119.16 17.0078H116.891V16.658H117.607V11.0865H116.891V10.7344H119.16V11.0865H118.444V16.658H119.16V17.0078Z" fill="#005797"/>
<path d="M123.937 17.0083H121.189V16.6584H122.142V11.212H120.235V11.9719H119.777V10.4707H120.235V10.7348H124.89V10.4707H125.348V11.9719H124.89V11.212H122.984V16.6584H123.937V17.0083Z" fill="#005797"/>
<path d="M129.963 17.0078H127.692V16.658H128.408V14.119L126.434 11.0865H125.883V10.7344H128.236V11.0865H127.369L129.01 13.5769L130.524 11.0865H129.659V10.7344H131.565V11.0865H131.07L129.24 14.0611V16.658H129.963V17.0078Z" fill="#005797"/>
<path d="M134.023 13.8806C134.023 12.0945 135.416 10.6211 137.104 10.6211C138.792 10.6211 140.157 12.1037 140.157 13.8713C140.157 15.6389 138.764 17.1308 137.104 17.1308C135.444 17.1308 134.023 15.6482 134.023 13.8783M134.967 13.8737C134.967 15.4791 135.865 16.6397 137.104 16.6397C138.344 16.6397 139.211 15.4721 139.211 13.8737C139.211 12.2752 138.327 11.1169 137.116 11.1169C135.904 11.1169 134.967 12.2566 134.967 13.8737Z" fill="#005797"/>
<path d="M143.018 17.0083H140.746V16.6584H141.465V11.0869H140.746V10.7348H144.552V10.4707H144.992V11.9835H144.562V11.1726H142.302V13.6051H144.104V12.8939L144.541 12.8846V14.7565L144.104 14.7658V14.0314H142.302V16.6584H143.018V17.0083Z" fill="#005797"/>
<path d="M57.5993 37.3131H56.4158V32.805H57.5993V34.7857C59.1316 35.8143 59.8128 36.0622 60.9173 36.0622C62.9309 36.0622 64.2864 35.0104 64.2864 33.4328C64.2864 32.0057 63.3052 30.9563 60.5941 29.5501C57.4249 27.896 56.3438 26.6427 56.3438 24.5786C56.3438 22.0998 58.455 20.2442 61.294 20.2442C62.5542 20.2442 63.4819 20.4689 64.2887 20.9461V20.0449H65.4443V24.3284H64.2887V22.5492C63.0053 21.699 62.3775 21.4488 61.373 21.4488C59.6617 21.4488 58.5573 22.4751 58.5573 24.0272C58.5573 25.306 59.285 26.0381 62.4263 27.845C65.5722 29.6497 66.4767 30.7524 66.4767 32.805C66.4767 35.4112 64.3143 37.4128 61.473 37.4128C59.8919 37.4128 58.8595 37.0884 57.6016 36.2869V37.3131H57.5993Z" fill="#005797"/>
<path d="M77.6865 37.088H71.7016V36.1637H73.5873V29.4756L68.3836 21.4739H66.9258V20.5449H73.1362V21.4739H70.846L75.1707 28.0485L79.1676 21.4739H76.8797V20.5449H81.9089V21.4739H80.5999L75.7752 29.325V36.1637H77.6865V37.088Z" fill="#005797"/>
<path d="M83.1641 37.09V36.1633H85.0497V21.4735H83.1641V20.5469H90.5812C95.1059 20.5469 98.8006 24.2535 98.8006 28.7987C98.8006 33.344 95.1804 37.09 90.5557 37.09H83.1641ZM87.2609 35.8367H90.279C93.7225 35.8367 96.3383 32.8065 96.3104 28.8242C96.3104 24.9531 93.6434 21.8257 90.3255 21.8257H87.2609V35.8367Z" fill="#005797"/>
<path d="M113.303 37.3633H112.522L102.871 24.1284V36.161H104.782V37.09H99.7014V36.161H101.613V22.4234L100.934 21.4712H99.1992V20.5469H102.845L112.046 33.1332V21.4712H110.134V20.5469H115.189V21.4712H113.303V37.3633Z" fill="#005797"/>
<path d="M128.334 37.0865H116.895V36.1621H118.78V21.4723H116.895V20.5434H126.925V19.8438H128.081V23.826H126.953V21.6947H120.994V28.1211H125.744V26.2377L126.9 26.2145V31.1513L125.744 31.1767V29.2493H120.994V35.9606H127.176V33.7575H128.334V37.0865Z" fill="#005797"/>
<path d="M140.774 37.088H134.791V36.1637H136.677V29.4756L131.473 21.4739H130.016V20.5449H136.226V21.4739H133.936L138.261 28.0485L142.257 21.4739H139.97V20.5449H144.999V21.4739H143.69L138.865 29.325V36.1637H140.774V37.088Z" fill="#005797"/>
<path d="M46.9817 7.13061V18.7486C46.9817 32.8291 37.3556 47.2942 23.4839 50C10.1074 47.4725 0 32.8291 0 18.7486V3.12514C0 3.12514 11.7187 0 23.4885 0C37.1626 0 46.9817 3.12514 46.9817 3.12514V7.13061Z" fill="#FAC400"/>
<path d="M23.4882 46.338C34.7535 46.3264 43.4867 35.9155 43.4867 24.4504V4.71731L43.1938 4.62928C43.1938 4.62928 33.0445 1.49255 23.4813 1.49023C13.9226 1.49255 3.79204 4.62465 3.77344 4.62928L3.48047 4.71731V24.4504C3.48047 35.9155 12.216 46.3241 23.4813 46.338" fill="white"/>
<path d="M28.0383 44.8888V37.1257H36.9296C37.4504 37.1257 37.9131 37.3806 38.1991 37.7767C40.2987 34.9852 41.7589 31.6307 42.3564 28.0538H28.0383V20.5873C26.5339 20.5108 25.004 20.4668 23.4856 20.4668C21.9673 20.4668 20.4444 20.5108 18.9423 20.5873V28.0538H4.61719C5.21475 31.633 6.67726 34.9921 8.7815 37.7837C9.06284 37.3852 9.5302 37.1257 10.0557 37.1257H18.9423V44.8888C20.3979 45.2873 21.9115 45.5073 23.4833 45.5073V45.5699H23.4903V45.5073C25.0621 45.5073 26.5827 45.2896 28.0359 44.8888" fill="#005797"/>
<path d="M38.1429 35.2493L36.2014 34.332L35.5132 36.3358L34.7924 34.3204L32.8811 35.2493L33.8042 33.3149L31.793 32.6269L33.8135 31.9064L32.8811 29.9998L34.8249 30.9172L35.5132 28.918L36.234 30.9288L38.1429 29.9998L37.2222 31.9365L39.2311 32.6269L37.2082 33.3451L38.1429 35.2493Z" fill="#FAC400"/>
<path d="M8.82802 35.2493L10.7718 34.332L11.4624 36.3358L12.1809 34.3204L14.0921 35.2493L13.1691 33.3149L15.178 32.6269L13.1621 31.9064L14.0921 29.9998L12.153 30.9172L11.4624 28.918L10.7393 30.9288L8.82802 29.9998L9.75343 31.9365L7.74219 32.6269L9.76505 33.3451L8.82802 35.2493Z" fill="#FAC400"/>
<path d="M26.1171 42.8532L24.178 41.9335L23.4897 43.9444L22.7666 41.9219L20.86 42.8532L21.7808 40.9188L19.7695 40.2285L21.7877 39.508L20.86 37.6084L22.7969 38.5211L23.4897 36.5195L24.2105 38.535L26.1171 37.6084L25.1987 39.5404L27.2076 40.2285L25.1871 40.9489L26.1171 42.8532Z" fill="#FAC400"/>
<path d="M26.1195 28.1614L24.1803 27.2487L23.4874 29.2503L22.769 27.2348L20.86 28.1614L21.7784 26.2294L19.7695 25.5413L21.7901 24.8209L20.86 22.9189L22.7969 23.834L23.4874 21.8301L24.2082 23.8479L26.1195 22.9189L25.1964 24.851L27.2076 25.5413L25.1871 26.2595L26.1195 28.1614Z" fill="#FAC400"/>
<path d="M30.6526 29.5527H29.8086V30.1713H30.6526V29.5527Z" fill="#FAC400"/>
<path d="M30.6526 31.2012H29.8086V31.8174H30.6526V31.2012Z" fill="#FAC400"/>
<path d="M30.6526 32.8457H29.8086V33.4642H30.6526V32.8457Z" fill="#FAC400"/>
<path d="M30.6526 34.4922H29.8086V35.1084H30.6526V34.4922Z" fill="#FAC400"/>
<path d="M25.6134 29.1738H25.3832C24.5275 29.1738 23.8672 29.8318 23.8672 30.6727V35.6442C24.1485 35.3152 24.5671 35.1091 25.0344 35.1091C25.0925 35.1091 28.1896 35.1091 29.3638 35.1091V29.1738H25.6134ZM28.5244 34.0249H24.8205V33.4666H28.5244V34.0249ZM28.5244 32.4936H24.8205V31.9329H28.5244V32.4936ZM28.5244 30.9646H24.8205V30.404H28.5244V30.9646Z" fill="white"/>
<path d="M17.162 29.5527H16.3203V30.1713H17.162V29.5527Z" fill="#FAC400"/>
<path d="M17.162 31.2012H16.3203V31.8174H17.162V31.2012Z" fill="#FAC400"/>
<path d="M17.162 32.8457H16.3203V33.4642H17.162V32.8457Z" fill="#FAC400"/>
<path d="M17.162 34.4922H16.3203V35.1084H17.162V34.4922Z" fill="#FAC400"/>
<path d="M17.6094 29.1738V35.1091C18.7812 35.1091 21.876 35.1091 21.9388 35.1091C22.4061 35.1091 22.827 35.3176 23.106 35.6442V30.6727C23.106 29.8318 22.4457 29.1738 21.59 29.1738H17.6094ZM18.4464 33.4642H22.1527V34.0226H18.4464V33.4642ZM18.4464 31.9353H22.1527V32.4959H18.4464V31.9353ZM18.4464 30.404H22.1527V30.9646H18.4464V30.404Z" fill="white"/>
<path d="M23.4856 19.6425C31.7863 19.6425 40.5381 20.97 42.6586 21.3105V5.33035C42.3749 5.24695 41.8913 5.10564 41.238 4.93421C40.1475 4.64463 38.5966 4.25543 36.7481 3.86624C33.0558 3.09016 28.1777 2.31641 23.4856 2.31641C16.4474 2.31641 8.99997 4.06083 5.73083 4.93421C5.07979 5.10564 4.59617 5.24695 4.3125 5.33035V21.3105C6.42837 20.97 15.1848 19.6425 23.4856 19.6425Z" fill="#E41635"/>
<path fill-rule="evenodd" clip-rule="evenodd" d="M31.9655 14.8524C31.6957 15.0863 31.2144 15.3412 30.4564 15.3157C30.1356 15.3041 29.9821 15.3944 29.9007 15.4894L29.817 15.6516C29.7729 15.8091 29.831 15.9806 29.917 16.1126C29.9961 16.2284 29.9635 16.3026 29.838 16.335C29.7147 16.3674 29.5473 16.3698 29.2195 16.2122C29.0753 16.145 29.0358 16.2331 29.0172 16.2979C28.9637 16.4578 29.066 16.6524 29.2823 16.7914C29.3915 16.8887 29.3706 16.9813 29.2009 17.0416C28.9126 17.1435 28.6568 17.0115 28.2336 16.7775C27.9848 16.6408 27.7965 16.6176 27.6291 16.8145L27.5989 17.081C27.7639 17.2408 27.8616 17.5651 27.4524 18.0771C27.3175 18.2462 27.1734 17.7783 27.0478 17.8339C26.4874 18.098 26.0294 17.7551 25.8573 17.5211H25.6434C25.3644 17.7065 24.7645 18.0169 24.5367 17.4771C24.4995 17.3983 24.1716 17.5976 24.1739 17.4424C24.1856 16.5528 24.9622 16.386 25.2923 16.3582L25.3621 16.2169C25.2272 16.0223 25.0691 15.7929 25.1575 15.5265C25.2156 15.3319 24.7087 15.2856 24.918 15.1813C25.941 14.6717 26.513 15.6446 26.6897 15.7512C26.9873 15.9203 28.3196 15.4894 28.4824 14.7666C28.5173 14.6253 28.1732 14.5605 27.829 14.4771L27.8453 14.2917C28.6545 13.6917 29.3032 12.9133 30.768 12.7674C30.9447 12.7512 31.0168 12.8971 31.0238 12.9689C31.0494 13.1936 31.1121 13.416 31.2075 13.6199C31.4191 14.0693 31.6748 14.3473 31.9329 14.5535C32.0561 14.6508 32.0422 14.7898 31.9724 14.85M37.8271 12.7975C38.9013 12.8044 37.8434 13.6848 37.7899 13.9419C37.7504 14.1296 37.9271 14.2964 38.0922 14.396C38.2201 14.4632 38.2247 14.5442 38.1294 14.63C38.0294 14.7157 37.8806 14.7968 37.5202 14.8014C37.3621 14.8037 37.3667 14.9033 37.3784 14.9682C37.3993 15.135 37.5853 15.2624 37.8411 15.2902C37.9806 15.3273 38.0038 15.4176 37.8806 15.5473C37.669 15.7697 37.383 15.7697 36.8994 15.7535C36.4437 15.735 36.0809 16.2887 36.3507 16.5157C36.5297 16.6709 36.8971 17.0115 36.5785 17.9427C36.4785 18.2231 36.3065 17.6856 36.16 17.769C35.7857 17.9937 35.4555 17.7134 35.2834 17.5095H35.0951C34.944 17.7736 34.5464 18.2346 33.7442 17.8038C33.5698 17.7134 33.2094 18.0308 33.1908 17.9219C33.0606 17.2987 33.3815 16.9304 33.6512 16.7381C33.6814 16.7149 33.786 16.5759 33.607 16.5806C33.335 16.5667 33.0048 16.4786 32.9699 16.1474L32.6397 16.0014C32.7235 15.545 33.7302 15.2137 34.4254 15.6724C35.0114 16.0593 35.7485 14.7388 35.2183 14.1203C34.837 13.6755 32.5932 14.9219 31.8283 13.3025C31.5237 12.6492 31.905 12.0909 31.5934 12.0469C31.2795 12.0029 29.8705 11.6994 28.3034 12.9527C25.6574 15.0748 22.7858 13.9164 22.1115 13.4462L21.9488 13.6037C22.0581 13.877 22.0116 14.1319 21.8767 14.3265C21.6023 14.7412 20.6514 15.1674 20.4839 15.2161C19.3679 15.5427 19.4865 16.3906 19.6027 16.7705L19.4748 16.9327C19.1354 16.8678 18.4448 16.6616 18.1751 15.9945L17.9751 15.9806C17.5613 16.2725 17.7077 16.7033 17.8054 16.891L17.724 17.0508C17.345 17.0949 17.073 16.6547 16.7451 16.6871C16.5312 16.7057 16.2801 16.8701 16.1452 16.9628C16.0778 17.0068 16.0708 17.1134 16.1104 17.2362C16.5266 18.4663 15.843 18.508 15.8011 18.4872C15.7546 18.4594 15.7825 18.2555 15.5826 18.2231C14.9106 18.2578 14.7199 17.8246 14.6827 17.5003L14.5595 17.4099C14.3037 17.586 13.6783 17.9335 13.2853 17.4215L12.9389 17.4725L12.8575 17.3312C12.904 16.6292 13.383 16.3142 13.6434 16.1914L13.6736 16.0385C13.462 15.8809 13.0877 15.5427 13.2086 15.1744L12.9784 14.9149C13.748 14.3566 14.7385 15.2809 14.8641 15.3805C14.9966 15.4848 15.6965 15.508 17.4845 14.5072C18.6192 13.8724 19.2144 13.3442 19.5399 12.9458L19.7748 12.8114C20.4979 12.7882 21.2094 12.6793 21.7651 12.1905L21.9906 12.179C23.0137 12.8878 23.5415 11.3195 23.7508 10.6036C23.7787 10.4577 23.8066 10.3372 23.9623 10.3303C27.7267 10.511 34.8602 10.4832 34.8602 10.4832C34.8602 10.4832 35.7996 10.5596 35.7508 9.97583C35.674 9.04223 31.7841 9.06308 28.8823 9.45922C27.829 9.60517 26.2968 9.68857 25.39 9.33876C25.0133 9.19281 24.711 8.96114 24.5413 8.66461C24.3599 8.28237 24.4088 8.05534 24.4413 7.81209C24.4878 7.63834 24.5739 7.45533 24.6948 7.25841C25.4388 6.11168 27.1617 6.02365 27.6942 6.02365L27.8755 5.90781C27.929 5.6414 28.1313 5.02749 28.8498 4.98811C29.0544 4.97653 29.259 4.90008 29.3892 4.83984L29.5124 4.90008L29.3427 5.21051C28.8358 5.6414 28.9126 5.84063 28.9707 5.89623L29.0893 5.87538C30.6239 4.54331 31.5167 5.42595 31.7887 5.71322L31.7585 5.86611C30.7169 6.10009 30.3123 7.02675 28.1848 6.87617C27.9267 6.86227 26.1875 6.77192 25.6318 7.55958C25.3156 8.01595 25.5365 8.4399 26.4758 8.6484C27.1873 8.80593 28.8544 8.565 29.638 8.50245C30.4053 8.43758 33.7581 8.0229 35.5159 8.52561C36.2577 8.73411 37.3342 9.32949 37.1203 10.4507C36.9784 11.1573 36.2972 11.4353 36.2972 11.4353C36.2972 11.4353 34.3696 12.7882 37.8271 12.8021M12.6715 11.0647C12.3739 10.8029 13.0249 9.31096 11.5857 8.95188C11.3601 8.93798 11.6833 9.21829 11.6019 9.28547C11.1857 9.63297 11.2904 9.77197 11.2694 9.97815L11.0997 10.05C10.7928 9.84378 10.0348 9.443 9.33958 10.0847C9.20705 10.2052 9.60465 10.2307 9.59302 10.3002C9.50699 10.7867 9.81856 11.0484 10.0464 11.1689L10.079 11.3589C10.0046 11.4399 9.81856 11.5604 9.77671 11.762C9.74648 11.8986 9.26285 11.8454 9.41166 12.0029C10.1511 12.7813 10.9114 12.3272 11.2067 12.0979C11.4136 11.8894 12.2972 12.128 12.16 12.5774C11.9902 13.1496 12.0344 13.4276 12.1786 13.328C12.4064 13.1821 12.5343 13.0848 12.8459 13.0848C12.9063 13.0848 13.0761 13.1218 13.0086 13.2608C12.8994 13.5249 12.7831 13.7659 12.8901 14.1296C12.9342 14.2871 13.0435 14.25 13.1016 14.1898C13.4551 13.701 14.2224 13.7056 14.599 13.9465C15.1361 14.2917 16.6638 14.7782 18.668 12.8716C18.7285 12.816 18.7308 12.5959 18.5564 12.6631C18.01 12.8763 17.3915 12.9272 16.3824 12.4129L15.8035 12.2114C14.5525 11.9403 13.2249 11.5581 12.6738 11.0693M29.3753 7.19355C29.3753 7.19355 30.2495 7.16343 30.8215 6.6584C30.8215 6.6584 31.4353 6.44991 31.7934 6.77424L31.7469 6.91787C31.6423 6.9364 31.4911 6.98273 31.3284 7.09162C31.0168 7.30011 29.7659 7.81672 29.3776 7.19586M19.9538 11.7226C19.8445 12.0075 19.4353 11.9149 19.2191 12.0886L19.1144 12.0956C18.8959 11.9125 18.4936 12.0006 18.3634 11.6901L18.4123 11.6044C18.6982 11.5743 18.9517 11.4353 19.1377 11.2314L19.2447 11.243C19.4097 11.4284 19.6446 11.565 19.905 11.6044L19.9561 11.7226M17.3892 6.54952L17.073 6.42442C16.8195 6.42442 16.6173 6.62597 16.6173 6.87617C16.6173 7.0198 16.6847 7.14722 16.787 7.23293L16.8823 7.22598C17.0172 7.00822 17.1892 6.80667 17.3845 6.64914V6.54952M17.7147 10.4901C17.7147 10.2886 17.338 9.40825 17.1939 9.16964C16.8916 8.64608 17.3404 7.10783 18.0658 6.92713C18.2216 6.89007 18.303 6.66304 18.1821 6.54257C17.8798 6.24604 17.531 5.87075 17.0753 5.87075C16.5126 5.87075 16.0522 6.32713 16.0522 6.89007C16.0522 7.53178 16.5521 7.63834 16.5173 7.81441C16.3173 8.41442 16.315 9.06307 16.5847 9.5264C16.7707 9.84378 16.9125 10.3511 17.0241 10.7148C17.0939 11.0925 17.3171 11.4075 17.6403 11.5952C17.8007 11.6878 17.7217 11.8106 17.7868 11.9427L17.91 12.084L17.8705 12.1396C17.3962 12.0793 16.6614 11.8801 16.3568 11.243C16.1987 10.9025 15.6802 12.1048 15.3733 11.5303C15.0478 10.9187 14.899 10.4577 14.7548 9.84378C14.6758 9.50324 14.4595 10.0847 14.3781 9.88085C14.2293 9.50092 14.1224 9.09551 14.1224 8.65998C14.1224 7.15185 15.2315 5.88928 16.7265 5.5441C17.0172 5.4746 16.3917 4.99738 16.7986 5.01822C17.0637 5.03444 17.9403 5.03676 18.6029 5.36109C18.7285 5.41437 18.8052 5.17344 19.0586 5.01127H19.1842C19.4446 5.17344 19.5376 5.40742 19.6632 5.35182C20.3212 5.03676 21.1908 5.03676 21.4512 5.01822C21.8721 4.99506 21.235 5.4746 21.5233 5.5441C23.0183 5.88928 24.1298 7.15185 24.1298 8.65998C24.1298 9.09551 24.0205 9.50092 23.8717 9.88085C23.7903 10.0847 23.5787 9.50324 23.4973 9.84378C23.3508 10.4554 23.202 10.9164 22.8765 11.5303C22.5626 12.1048 22.0534 10.9025 21.893 11.243C21.6023 11.8477 20.9257 12.0562 20.4537 12.1303L20.4142 12.0678C20.4398 12.0446 20.556 11.938 20.5839 11.7249L20.6235 11.6461C20.9792 11.477 21.2466 11.1457 21.3256 10.745C21.4419 10.3766 21.593 9.84842 21.7721 9.52409C22.179 8.80361 21.686 7.93256 21.8116 7.73796C22.0883 7.55958 22.272 7.2422 22.272 6.88775C22.272 6.32481 21.8139 5.86843 21.2536 5.86843C20.9467 5.86843 20.6746 6.0028 20.4886 6.21361L20.4607 6.23909L20.1956 6.54721C20.105 6.66535 20.1236 6.8808 20.284 6.92482C20.9815 7.10552 21.4349 8.66925 21.1489 9.17659C21.0257 9.40362 20.6421 10.2446 20.6421 10.4901C20.6421 10.8052 20.3863 11.0623 20.0701 11.0623C19.8283 11.0623 19.6236 10.9118 19.5399 10.6894L19.5516 10.6639C19.7446 10.5457 20.1701 10.2909 20.1701 10.0268L20.084 9.17196C20.4328 9.13026 20.5909 8.94029 20.6374 8.61365L20.7258 8.54878C20.8397 8.44222 20.9164 8.15495 20.67 8.19665C20.3189 8.26152 19.9189 8.24994 19.533 8.3565L19.4307 8.4677C19.4167 8.54415 19.6422 9.57737 19.6934 9.8044L19.6655 9.84842C19.5074 9.83452 19.2261 9.82062 19.1586 9.82062C19.0912 9.82062 18.8145 9.83683 18.6517 9.84842L18.6192 9.80903C18.6727 9.56579 18.8982 8.5372 18.8982 8.5372L18.875 8.4121C18.7982 8.3148 17.7868 8.22909 17.6519 8.20129L17.5031 8.26152C17.4008 8.40283 17.5775 8.56037 17.6891 8.62755C17.7333 8.94493 17.8984 9.13026 18.2355 9.17196L18.2518 9.18586L18.1542 10.0361C18.1542 10.3164 18.5704 10.548 18.782 10.6685L18.8099 10.7195C18.7099 10.9164 18.5146 11.06 18.2867 11.06C17.9705 11.06 17.7147 10.8029 17.7147 10.4878M20.9839 6.59817C21.1722 6.75802 21.3303 6.96652 21.4582 7.2005L21.5465 7.22598C21.6465 7.1449 21.7139 7.01748 21.7139 6.87617C21.7139 6.62597 21.5093 6.42442 21.2582 6.42442L20.9885 6.51246L20.9815 6.59817" fill="#FDE5A3"/>
<path d="M43.1945 4.62928C43.1945 4.62928 33.043 1.49487 23.482 1.49023C13.9234 1.49487 3.79046 4.62465 3.77185 4.62928L3.47656 4.71731V24.4504C3.47889 35.9155 12.2144 46.3241 23.4797 46.338V45.511C18.1156 45.511 13.3305 43.0183 9.87533 39.1356C6.41786 35.2552 4.30431 29.9802 4.30664 24.4528V22.15C5.10648 22.0203 7.27351 21.6821 10.1799 21.3415C13.8815 20.906 18.7643 20.4704 23.4797 20.4704C28.1951 20.4704 33.0778 20.906 36.7795 21.3415C39.6859 21.6821 41.8506 22.0226 42.6527 22.15V24.4528C42.6527 29.9802 40.5415 35.2552 37.0887 39.1356C33.6312 43.0183 28.8461 45.511 23.4843 45.511V46.338C34.745 46.3264 43.4805 35.9178 43.4851 24.4504V4.71731L43.1922 4.62928H43.1945ZM23.4843 19.6434C15.1836 19.6434 6.42948 20.9708 4.31129 21.3114V5.33122C4.59495 5.24782 5.07858 5.10882 5.72962 4.93507C8.99876 4.0617 16.4462 2.31496 23.4843 2.31496C28.1765 2.31496 33.0523 3.08871 36.7469 3.8671C38.5954 4.2563 40.1462 4.64549 41.2367 4.93507C41.8901 5.10882 42.3737 5.24782 42.6574 5.33122V21.3137C40.5369 20.9732 31.7851 19.6457 23.4843 19.6457" fill="white"/>
</g>
<defs>
<clipPath id="clip0_2868_3423">
<rect width="145" height="50" fill="white"/>
</clipPath>
</defs>
</svg>
