<svg width="760" height="520" viewBox="0 0 760 520" fill="none" xmlns="http://www.w3.org/2000/svg">
  <defs>
    <marker id="arrow" markerWidth="6" markerHeight="6" refX="5" refY="3" orient="auto">
      <path d="M0,0 L0,6 L6,3 z" fill="#757575"/>
    </marker>
  </defs>

  <rect width="760" height="520" rx="6" fill="#F9F9F7"/>

  
  <rect x="250" y="12" width="260" height="36" rx="6" fill="#E4E9F0" stroke="#7A8BA8" stroke-width="1.5"/>
  <text x="380" y="35" text-anchor="middle" font-family="ui-monospace, monospace" font-size="13" font-weight="600" fill="#1E1E1E">query({ prompt: "..." })</text>

  
  <line x1="380" y1="48" x2="380" y2="72" stroke="#757575" stroke-width="1.5" marker-end="url(#arrow)"/>

  
  <rect x="40" y="80" width="680" height="200" rx="8" fill="#fff" stroke="#D0D0CC" stroke-width="1"/>
  <rect x="40" y="80" width="680" height="30" rx="8" fill="#F0F0EC"/>
  <rect x="40" y="96" width="680" height="14" fill="#F0F0EC"/>
  <text x="60" y="100" font-family="system-ui, -apple-system, sans-serif" font-size="12" font-weight="700" fill="#1E1E1E">Step 1</text>
  <text x="130" y="100" font-family="system-ui, -apple-system, sans-serif" font-size="11" fill="#757575">Parallel tool calls</text>

  
  <text x="60" y="136" font-family="ui-monospace, monospace" font-size="11" fill="#1E1E1E">assistant (text)</text>
  <rect x="240" y="122" width="120" height="20" rx="3" fill="#E8E4F0" stroke="#9B8AB8" stroke-width="0.75"/>
  <text x="250" y="137" font-family="ui-monospace, monospace" font-size="11" fill="#6B5A88">id: "msg_1"</text>
  <rect x="372" y="122" width="230" height="20" rx="3" fill="#F0F0EC" stroke="#C0C0BC" stroke-width="0.75"/>
  <text x="382" y="137" font-family="ui-monospace, monospace" font-size="11" fill="#1E1E1E">usage: { output_tokens: 100 }</text>

  <text x="60" y="162" font-family="ui-monospace, monospace" font-size="11" fill="#1E1E1E">assistant (tool_use)</text>
  <rect x="240" y="148" width="120" height="20" rx="3" fill="#E8E4F0" stroke="#9B8AB8" stroke-width="0.75"/>
  <text x="250" y="163" font-family="ui-monospace, monospace" font-size="11" fill="#6B5A88">id: "msg_1"</text>
  <rect x="372" y="148" width="230" height="20" rx="3" fill="#F0F0EC" stroke="#C0C0BC" stroke-width="0.75"/>
  <text x="382" y="163" font-family="ui-monospace, monospace" font-size="11" fill="#1E1E1E">usage: { output_tokens: 100 }</text>

  <text x="60" y="188" font-family="ui-monospace, monospace" font-size="11" fill="#1E1E1E">assistant (tool_use)</text>
  <rect x="240" y="174" width="120" height="20" rx="3" fill="#E8E4F0" stroke="#9B8AB8" stroke-width="0.75"/>
  <text x="250" y="189" font-family="ui-monospace, monospace" font-size="11" fill="#6B5A88">id: "msg_1"</text>
  <rect x="372" y="174" width="230" height="20" rx="3" fill="#F0F0EC" stroke="#C0C0BC" stroke-width="0.75"/>
  <text x="382" y="189" font-family="ui-monospace, monospace" font-size="11" fill="#1E1E1E">usage: { output_tokens: 100 }</text>

  <text x="60" y="214" font-family="ui-monospace, monospace" font-size="11" fill="#1E1E1E">assistant (tool_use)</text>
  <rect x="240" y="200" width="120" height="20" rx="3" fill="#E8E4F0" stroke="#9B8AB8" stroke-width="0.75"/>
  <text x="250" y="215" font-family="ui-monospace, monospace" font-size="11" fill="#6B5A88">id: "msg_1"</text>
  <rect x="372" y="200" width="230" height="20" rx="3" fill="#F0F0EC" stroke="#C0C0BC" stroke-width="0.75"/>
  <text x="382" y="215" font-family="ui-monospace, monospace" font-size="11" fill="#1E1E1E">usage: { output_tokens: 100 }</text>

  
  <text x="616" y="164" font-family="system-ui, -apple-system, sans-serif" font-size="11" font-weight="600" fill="#6B5A88">Same ID,</text>
  <text x="616" y="178" font-family="system-ui, -apple-system, sans-serif" font-size="11" fill="#6B5A88">count once</text>

  
  <text x="60" y="256" font-family="ui-monospace, monospace" font-size="11" fill="#757575">user (tool_result) x 3</text>

  
  <line x1="380" y1="280" x2="380" y2="304" stroke="#757575" stroke-width="1.5" marker-end="url(#arrow)"/>

  
  <rect x="40" y="312" width="680" height="70" rx="8" fill="#fff" stroke="#D0D0CC" stroke-width="1"/>
  <rect x="40" y="312" width="680" height="30" rx="8" fill="#F0F0EC"/>
  <rect x="40" y="328" width="680" height="14" fill="#F0F0EC"/>
  <text x="60" y="332" font-family="system-ui, -apple-system, sans-serif" font-size="12" font-weight="700" fill="#1E1E1E">Step 2</text>
  <text x="130" y="332" font-family="system-ui, -apple-system, sans-serif" font-size="11" fill="#757575">Follow-up response</text>

  <text x="60" y="365" font-family="ui-monospace, monospace" font-size="11" fill="#1E1E1E">assistant (text)</text>
  <rect x="240" y="351" width="120" height="20" rx="3" fill="#DDE8F0" stroke="#6A8FAD" stroke-width="0.75"/>
  <text x="250" y="366" font-family="ui-monospace, monospace" font-size="11" fill="#3A6A8D">id: "msg_2"</text>
  <rect x="372" y="351" width="230" height="20" rx="3" fill="#F0F0EC" stroke="#C0C0BC" stroke-width="0.75"/>
  <text x="382" y="366" font-family="ui-monospace, monospace" font-size="11" fill="#1E1E1E">usage: { output_tokens: 98 }</text>

  
  <text x="616" y="366" font-family="system-ui, -apple-system, sans-serif" font-size="11" font-weight="600" fill="#3A6A8D">New ID</text>

  
  <line x1="380" y1="382" x2="380" y2="406" stroke="#757575" stroke-width="1.5" marker-end="url(#arrow)"/>

  
  <rect x="40" y="414" width="680" height="90" rx="8" fill="#fff" stroke="#4A7C59" stroke-width="1.5"/>
  <rect x="40" y="414" width="680" height="30" rx="8" fill="#D4E4D8"/>
  <rect x="40" y="430" width="680" height="14" fill="#D4E4D8"/>
  <text x="60" y="434" font-family="system-ui, -apple-system, sans-serif" font-size="12" font-weight="700" fill="#2D5A3D">Result</text>
  <text x="130" y="434" font-family="system-ui, -apple-system, sans-serif" font-size="11" fill="#4A7C59">Cumulative cost estimate</text>

  <text x="60" y="468" font-family="ui-monospace, monospace" font-size="11" font-weight="600" fill="#2D5A3D">total_cost_usd: 0.0034</text>
  <text x="60" y="490" font-family="ui-monospace, monospace" font-size="11" fill="#1E1E1E">usage: { input_tokens: 1200, output_tokens: 198 }</text>

</svg>
